<?xml version="1.0" encoding="utf-8" standalone="no"?>
<!DOCTYPE svg PUBLIC "-//W3C//DTD SVG 1.1//EN"
  "http://www.w3.org/Graphics/SVG/1.1/DTD/svg11.dtd">
<!-- Created with matplotlib (https://matplotlib.org/) -->
<svg height="345.6pt" version="1.1" viewBox="0 0 460.8 345.6" width="460.8pt" xmlns="http://www.w3.org/2000/svg" xmlns:xlink="http://www.w3.org/1999/xlink">
 <defs>
  <style type="text/css">
*{stroke-linecap:butt;stroke-linejoin:round;}
  </style>
 </defs>
 <g id="figure_1">
  <g id="patch_1">
   <path d="M 0 345.6 
L 460.8 345.6 
L 460.8 0 
L 0 0 
z
" style="fill:#ffffff;"/>
  </g>
  <g id="axes_1">
   <g id="patch_2">
    <path d="M 57.6 307.584 
L 414.72 307.584 
L 414.72 41.472 
L 57.6 41.472 
z
" style="fill:#ffffff;"/>
   </g>
   <g id="matplotlib.axis_1">
    <g id="xtick_1">
     <g id="line2d_1">
      <defs>
       <path d="M 0 0 
L 0 3.5 
" id="m8f533dd1d7" style="stroke:#000000;stroke-width:0.8;"/>
      </defs>
      <g>
       <use style="stroke:#000000;stroke-width:0.8;" x="73.832727" xlink:href="#m8f533dd1d7" y="307.584"/>
      </g>
     </g>
     <g id="text_1">
      <!-- 0 -->
      <defs>
       <path d="M 31.78125 66.40625 
Q 24.171875 66.40625 20.328125 58.90625 
Q 16.5 51.421875 16.5 36.375 
Q 16.5 21.390625 20.328125 13.890625 
Q 24.171875 6.390625 31.78125 6.390625 
Q 39.453125 6.390625 43.28125 13.890625 
Q 47.125 21.390625 47.125 36.375 
Q 47.125 51.421875 43.28125 58.90625 
Q 39.453125 66.40625 31.78125 66.40625 
z
M 31.78125 74.21875 
Q 44.046875 74.21875 50.515625 64.515625 
Q 56.984375 54.828125 56.984375 36.375 
Q 56.984375 17.96875 50.515625 8.265625 
Q 44.046875 -1.421875 31.78125 -1.421875 
Q 19.53125 -1.421875 13.0625 8.265625 
Q 6.59375 17.96875 6.59375 36.375 
Q 6.59375 54.828125 13.0625 64.515625 
Q 19.53125 74.21875 31.78125 74.21875 
z
" id="DejaVuSans-48"/>
      </defs>
      <g transform="translate(67.282797 324.34569)rotate(-30)scale(0.1 -0.1)">
       <use xlink:href="#DejaVuSans-48"/>
      </g>
     </g>
    </g>
    <g id="xtick_2">
     <g id="line2d_2">
      <g>
       <use style="stroke:#000000;stroke-width:0.8;" x="138.763636" xlink:href="#m8f533dd1d7" y="307.584"/>
      </g>
     </g>
     <g id="text_2">
      <!-- 100 -->
      <defs>
       <path d="M 12.40625 8.296875 
L 28.515625 8.296875 
L 28.515625 63.921875 
L 10.984375 60.40625 
L 10.984375 69.390625 
L 28.421875 72.90625 
L 38.28125 72.90625 
L 38.28125 8.296875 
L 54.390625 8.296875 
L 54.390625 0 
L 12.40625 0 
z
" id="DejaVuSans-49"/>
      </defs>
      <g transform="translate(121.193533 330.70819)rotate(-30)scale(0.1 -0.1)">
       <use xlink:href="#DejaVuSans-49"/>
       <use x="63.623047" xlink:href="#DejaVuSans-48"/>
       <use x="127.246094" xlink:href="#DejaVuSans-48"/>
      </g>
     </g>
    </g>
    <g id="xtick_3">
     <g id="line2d_3">
      <g>
       <use style="stroke:#000000;stroke-width:0.8;" x="203.694545" xlink:href="#m8f533dd1d7" y="307.584"/>
      </g>
     </g>
     <g id="text_3">
      <!-- 200 -->
      <defs>
       <path d="M 19.1875 8.296875 
L 53.609375 8.296875 
L 53.609375 0 
L 7.328125 0 
L 7.328125 8.296875 
Q 12.9375 14.109375 22.625 23.890625 
Q 32.328125 33.6875 34.8125 36.53125 
Q 39.546875 41.84375 41.421875 45.53125 
Q 43.3125 49.21875 43.3125 52.78125 
Q 43.3125 58.59375 39.234375 62.25 
Q 35.15625 65.921875 28.609375 65.921875 
Q 23.96875 65.921875 18.8125 64.3125 
Q 13.671875 62.703125 7.8125 59.421875 
L 7.8125 69.390625 
Q 13.765625 71.78125 18.9375 73 
Q 24.125 74.21875 28.421875 74.21875 
Q 39.75 74.21875 46.484375 68.546875 
Q 53.21875 62.890625 53.21875 53.421875 
Q 53.21875 48.921875 51.53125 44.890625 
Q 49.859375 40.875 45.40625 35.40625 
Q 44.1875 33.984375 37.640625 27.21875 
Q 31.109375 20.453125 19.1875 8.296875 
z
" id="DejaVuSans-50"/>
      </defs>
      <g transform="translate(186.124442 330.70819)rotate(-30)scale(0.1 -0.1)">
       <use xlink:href="#DejaVuSans-50"/>
       <use x="63.623047" xlink:href="#DejaVuSans-48"/>
       <use x="127.246094" xlink:href="#DejaVuSans-48"/>
      </g>
     </g>
    </g>
    <g id="xtick_4">
     <g id="line2d_4">
      <g>
       <use style="stroke:#000000;stroke-width:0.8;" x="268.625455" xlink:href="#m8f533dd1d7" y="307.584"/>
      </g>
     </g>
     <g id="text_4">
      <!-- 300 -->
      <defs>
       <path d="M 40.578125 39.3125 
Q 47.65625 37.796875 51.625 33 
Q 55.609375 28.21875 55.609375 21.1875 
Q 55.609375 10.40625 48.1875 4.484375 
Q 40.765625 -1.421875 27.09375 -1.421875 
Q 22.515625 -1.421875 17.65625 -0.515625 
Q 12.796875 0.390625 7.625 2.203125 
L 7.625 11.71875 
Q 11.71875 9.328125 16.59375 8.109375 
Q 21.484375 6.890625 26.8125 6.890625 
Q 36.078125 6.890625 40.9375 10.546875 
Q 45.796875 14.203125 45.796875 21.1875 
Q 45.796875 27.640625 41.28125 31.265625 
Q 36.765625 34.90625 28.71875 34.90625 
L 20.21875 34.90625 
L 20.21875 43.015625 
L 29.109375 43.015625 
Q 36.375 43.015625 40.234375 45.921875 
Q 44.09375 48.828125 44.09375 54.296875 
Q 44.09375 59.90625 40.109375 62.90625 
Q 36.140625 65.921875 28.71875 65.921875 
Q 24.65625 65.921875 20.015625 65.03125 
Q 15.375 64.15625 9.8125 62.3125 
L 9.8125 71.09375 
Q 15.4375 72.65625 20.34375 73.4375 
Q 25.25 74.21875 29.59375 74.21875 
Q 40.828125 74.21875 47.359375 69.109375 
Q 53.90625 64.015625 53.90625 55.328125 
Q 53.90625 49.265625 50.4375 45.09375 
Q 46.96875 40.921875 40.578125 39.3125 
z
" id="DejaVuSans-51"/>
      </defs>
      <g transform="translate(251.055351 330.70819)rotate(-30)scale(0.1 -0.1)">
       <use xlink:href="#DejaVuSans-51"/>
       <use x="63.623047" xlink:href="#DejaVuSans-48"/>
       <use x="127.246094" xlink:href="#DejaVuSans-48"/>
      </g>
     </g>
    </g>
    <g id="xtick_5">
     <g id="line2d_5">
      <g>
       <use style="stroke:#000000;stroke-width:0.8;" x="333.556364" xlink:href="#m8f533dd1d7" y="307.584"/>
      </g>
     </g>
     <g id="text_5">
      <!-- 400 -->
      <defs>
       <path d="M 37.796875 64.3125 
L 12.890625 25.390625 
L 37.796875 25.390625 
z
M 35.203125 72.90625 
L 47.609375 72.90625 
L 47.609375 25.390625 
L 58.015625 25.390625 
L 58.015625 17.1875 
L 47.609375 17.1875 
L 47.609375 0 
L 37.796875 0 
L 37.796875 17.1875 
L 4.890625 17.1875 
L 4.890625 26.703125 
z
" id="DejaVuSans-52"/>
      </defs>
      <g transform="translate(315.98626 330.70819)rotate(-30)scale(0.1 -0.1)">
       <use xlink:href="#DejaVuSans-52"/>
       <use x="63.623047" xlink:href="#DejaVuSans-48"/>
       <use x="127.246094" xlink:href="#DejaVuSans-48"/>
      </g>
     </g>
    </g>
    <g id="xtick_6">
     <g id="line2d_6">
      <g>
       <use style="stroke:#000000;stroke-width:0.8;" x="398.487273" xlink:href="#m8f533dd1d7" y="307.584"/>
      </g>
     </g>
     <g id="text_6">
      <!-- 500 -->
      <defs>
       <path d="M 10.796875 72.90625 
L 49.515625 72.90625 
L 49.515625 64.59375 
L 19.828125 64.59375 
L 19.828125 46.734375 
Q 21.96875 47.46875 24.109375 47.828125 
Q 26.265625 48.1875 28.421875 48.1875 
Q 40.625 48.1875 47.75 41.5 
Q 54.890625 34.8125 54.890625 23.390625 
Q 54.890625 11.625 47.5625 5.09375 
Q 40.234375 -1.421875 26.90625 -1.421875 
Q 22.3125 -1.421875 17.546875 -0.640625 
Q 12.796875 0.140625 7.71875 1.703125 
L 7.71875 11.625 
Q 12.109375 9.234375 16.796875 8.0625 
Q 21.484375 6.890625 26.703125 6.890625 
Q 35.15625 6.890625 40.078125 11.328125 
Q 45.015625 15.765625 45.015625 23.390625 
Q 45.015625 31 40.078125 35.4375 
Q 35.15625 39.890625 26.703125 39.890625 
Q 22.75 39.890625 18.8125 39.015625 
Q 14.890625 38.140625 10.796875 36.28125 
z
" id="DejaVuSans-53"/>
      </defs>
      <g transform="translate(380.917169 330.70819)rotate(-30)scale(0.1 -0.1)">
       <use xlink:href="#DejaVuSans-53"/>
       <use x="63.623047" xlink:href="#DejaVuSans-48"/>
       <use x="127.246094" xlink:href="#DejaVuSans-48"/>
      </g>
     </g>
    </g>
    <g id="text_7">
     <!-- Date -->
     <defs>
      <path d="M 19.671875 64.796875 
L 19.671875 8.109375 
L 31.59375 8.109375 
Q 46.6875 8.109375 53.6875 14.9375 
Q 60.6875 21.78125 60.6875 36.53125 
Q 60.6875 51.171875 53.6875 57.984375 
Q 46.6875 64.796875 31.59375 64.796875 
z
M 9.8125 72.90625 
L 30.078125 72.90625 
Q 51.265625 72.90625 61.171875 64.09375 
Q 71.09375 55.28125 71.09375 36.53125 
Q 71.09375 17.671875 61.125 8.828125 
Q 51.171875 0 30.078125 0 
L 9.8125 0 
z
" id="DejaVuSans-68"/>
      <path d="M 34.28125 27.484375 
Q 23.390625 27.484375 19.1875 25 
Q 14.984375 22.515625 14.984375 16.5 
Q 14.984375 11.71875 18.140625 8.90625 
Q 21.296875 6.109375 26.703125 6.109375 
Q 34.1875 6.109375 38.703125 11.40625 
Q 43.21875 16.703125 43.21875 25.484375 
L 43.21875 27.484375 
z
M 52.203125 31.203125 
L 52.203125 0 
L 43.21875 0 
L 43.21875 8.296875 
Q 40.140625 3.328125 35.546875 0.953125 
Q 30.953125 -1.421875 24.3125 -1.421875 
Q 15.921875 -1.421875 10.953125 3.296875 
Q 6 8.015625 6 15.921875 
Q 6 25.140625 12.171875 29.828125 
Q 18.359375 34.515625 30.609375 34.515625 
L 43.21875 34.515625 
L 43.21875 35.40625 
Q 43.21875 41.609375 39.140625 45 
Q 35.0625 48.390625 27.6875 48.390625 
Q 23 48.390625 18.546875 47.265625 
Q 14.109375 46.140625 10.015625 43.890625 
L 10.015625 52.203125 
Q 14.9375 54.109375 19.578125 55.046875 
Q 24.21875 56 28.609375 56 
Q 40.484375 56 46.34375 49.84375 
Q 52.203125 43.703125 52.203125 31.203125 
z
" id="DejaVuSans-97"/>
      <path d="M 18.3125 70.21875 
L 18.3125 54.6875 
L 36.8125 54.6875 
L 36.8125 47.703125 
L 18.3125 47.703125 
L 18.3125 18.015625 
Q 18.3125 11.328125 20.140625 9.421875 
Q 21.96875 7.515625 27.59375 7.515625 
L 36.8125 7.515625 
L 36.8125 0 
L 27.59375 0 
Q 17.1875 0 13.234375 3.875 
Q 9.28125 7.765625 9.28125 18.015625 
L 9.28125 47.703125 
L 2.6875 47.703125 
L 2.6875 54.6875 
L 9.28125 54.6875 
L 9.28125 70.21875 
z
" id="DejaVuSans-116"/>
      <path d="M 56.203125 29.59375 
L 56.203125 25.203125 
L 14.890625 25.203125 
Q 15.484375 15.921875 20.484375 11.0625 
Q 25.484375 6.203125 34.421875 6.203125 
Q 39.59375 6.203125 44.453125 7.46875 
Q 49.3125 8.734375 54.109375 11.28125 
L 54.109375 2.78125 
Q 49.265625 0.734375 44.1875 -0.34375 
Q 39.109375 -1.421875 33.890625 -1.421875 
Q 20.796875 -1.421875 13.15625 6.1875 
Q 5.515625 13.8125 5.515625 26.8125 
Q 5.515625 40.234375 12.765625 48.109375 
Q 20.015625 56 32.328125 56 
Q 43.359375 56 49.78125 48.890625 
Q 56.203125 41.796875 56.203125 29.59375 
z
M 47.21875 32.234375 
Q 47.125 39.59375 43.09375 43.984375 
Q 39.0625 48.390625 32.421875 48.390625 
Q 24.90625 48.390625 20.390625 44.140625 
Q 15.875 39.890625 15.1875 32.171875 
z
" id="DejaVuSans-101"/>
     </defs>
     <g transform="translate(224.209219 344.10769)scale(0.1 -0.1)">
      <use xlink:href="#DejaVuSans-68"/>
      <use x="77.001953" xlink:href="#DejaVuSans-97"/>
      <use x="138.28125" xlink:href="#DejaVuSans-116"/>
      <use x="177.490234" xlink:href="#DejaVuSans-101"/>
     </g>
    </g>
   </g>
   <g id="matplotlib.axis_2">
    <g id="ytick_1">
     <g id="line2d_7">
      <defs>
       <path d="M 0 0 
L -3.5 0 
" id="m74987834be" style="stroke:#000000;stroke-width:0.8;"/>
      </defs>
      <g>
       <use style="stroke:#000000;stroke-width:0.8;" x="57.6" xlink:href="#m74987834be" y="281.961768"/>
      </g>
     </g>
     <g id="text_8">
      <!-- 0.6500 -->
      <defs>
       <path d="M 10.6875 12.40625 
L 21 12.40625 
L 21 0 
L 10.6875 0 
z
" id="DejaVuSans-46"/>
       <path d="M 33.015625 40.375 
Q 26.375 40.375 22.484375 35.828125 
Q 18.609375 31.296875 18.609375 23.390625 
Q 18.609375 15.53125 22.484375 10.953125 
Q 26.375 6.390625 33.015625 6.390625 
Q 39.65625 6.390625 43.53125 10.953125 
Q 47.40625 15.53125 47.40625 23.390625 
Q 47.40625 31.296875 43.53125 35.828125 
Q 39.65625 40.375 33.015625 40.375 
z
M 52.59375 71.296875 
L 52.59375 62.3125 
Q 48.875 64.0625 45.09375 64.984375 
Q 41.3125 65.921875 37.59375 65.921875 
Q 27.828125 65.921875 22.671875 59.328125 
Q 17.53125 52.734375 16.796875 39.40625 
Q 19.671875 43.65625 24.015625 45.921875 
Q 28.375 48.1875 33.59375 48.1875 
Q 44.578125 48.1875 50.953125 41.515625 
Q 57.328125 34.859375 57.328125 23.390625 
Q 57.328125 12.15625 50.6875 5.359375 
Q 44.046875 -1.421875 33.015625 -1.421875 
Q 20.359375 -1.421875 13.671875 8.265625 
Q 6.984375 17.96875 6.984375 36.375 
Q 6.984375 53.65625 15.1875 63.9375 
Q 23.390625 74.21875 37.203125 74.21875 
Q 40.921875 74.21875 44.703125 73.484375 
Q 48.484375 72.75 52.59375 71.296875 
z
" id="DejaVuSans-54"/>
      </defs>
      <g transform="translate(15.609375 285.760987)scale(0.1 -0.1)">
       <use xlink:href="#DejaVuSans-48"/>
       <use x="63.623047" xlink:href="#DejaVuSans-46"/>
       <use x="95.410156" xlink:href="#DejaVuSans-54"/>
       <use x="159.033203" xlink:href="#DejaVuSans-53"/>
       <use x="222.65625" xlink:href="#DejaVuSans-48"/>
       <use x="286.279297" xlink:href="#DejaVuSans-48"/>
      </g>
     </g>
    </g>
    <g id="ytick_2">
     <g id="line2d_8">
      <g>
       <use style="stroke:#000000;stroke-width:0.8;" x="57.6" xlink:href="#m74987834be" y="250.664203"/>
      </g>
     </g>
     <g id="text_9">
      <!-- 0.6525 -->
      <g transform="translate(15.609375 254.463422)scale(0.1 -0.1)">
       <use xlink:href="#DejaVuSans-48"/>
       <use x="63.623047" xlink:href="#DejaVuSans-46"/>
       <use x="95.410156" xlink:href="#DejaVuSans-54"/>
       <use x="159.033203" xlink:href="#DejaVuSans-53"/>
       <use x="222.65625" xlink:href="#DejaVuSans-50"/>
       <use x="286.279297" xlink:href="#DejaVuSans-53"/>
      </g>
     </g>
    </g>
    <g id="ytick_3">
     <g id="line2d_9">
      <g>
       <use style="stroke:#000000;stroke-width:0.8;" x="57.6" xlink:href="#m74987834be" y="219.366638"/>
      </g>
     </g>
     <g id="text_10">
      <!-- 0.6550 -->
      <g transform="translate(15.609375 223.165857)scale(0.1 -0.1)">
       <use xlink:href="#DejaVuSans-48"/>
       <use x="63.623047" xlink:href="#DejaVuSans-46"/>
       <use x="95.410156" xlink:href="#DejaVuSans-54"/>
       <use x="159.033203" xlink:href="#DejaVuSans-53"/>
       <use x="222.65625" xlink:href="#DejaVuSans-53"/>
       <use x="286.279297" xlink:href="#DejaVuSans-48"/>
      </g>
     </g>
    </g>
    <g id="ytick_4">
     <g id="line2d_10">
      <g>
       <use style="stroke:#000000;stroke-width:0.8;" x="57.6" xlink:href="#m74987834be" y="188.069073"/>
      </g>
     </g>
     <g id="text_11">
      <!-- 0.6575 -->
      <defs>
       <path d="M 8.203125 72.90625 
L 55.078125 72.90625 
L 55.078125 68.703125 
L 28.609375 0 
L 18.3125 0 
L 43.21875 64.59375 
L 8.203125 64.59375 
z
" id="DejaVuSans-55"/>
      </defs>
      <g transform="translate(15.609375 191.868291)scale(0.1 -0.1)">
       <use xlink:href="#DejaVuSans-48"/>
       <use x="63.623047" xlink:href="#DejaVuSans-46"/>
       <use x="95.410156" xlink:href="#DejaVuSans-54"/>
       <use x="159.033203" xlink:href="#DejaVuSans-53"/>
       <use x="222.65625" xlink:href="#DejaVuSans-55"/>
       <use x="286.279297" xlink:href="#DejaVuSans-53"/>
      </g>
     </g>
    </g>
    <g id="ytick_5">
     <g id="line2d_11">
      <g>
       <use style="stroke:#000000;stroke-width:0.8;" x="57.6" xlink:href="#m74987834be" y="156.771507"/>
      </g>
     </g>
     <g id="text_12">
      <!-- 0.6600 -->
      <g transform="translate(15.609375 160.570726)scale(0.1 -0.1)">
       <use xlink:href="#DejaVuSans-48"/>
       <use x="63.623047" xlink:href="#DejaVuSans-46"/>
       <use x="95.410156" xlink:href="#DejaVuSans-54"/>
       <use x="159.033203" xlink:href="#DejaVuSans-54"/>
       <use x="222.65625" xlink:href="#DejaVuSans-48"/>
       <use x="286.279297" xlink:href="#DejaVuSans-48"/>
      </g>
     </g>
    </g>
    <g id="ytick_6">
     <g id="line2d_12">
      <g>
       <use style="stroke:#000000;stroke-width:0.8;" x="57.6" xlink:href="#m74987834be" y="125.473942"/>
      </g>
     </g>
     <g id="text_13">
      <!-- 0.6625 -->
      <g transform="translate(15.609375 129.273161)scale(0.1 -0.1)">
       <use xlink:href="#DejaVuSans-48"/>
       <use x="63.623047" xlink:href="#DejaVuSans-46"/>
       <use x="95.410156" xlink:href="#DejaVuSans-54"/>
       <use x="159.033203" xlink:href="#DejaVuSans-54"/>
       <use x="222.65625" xlink:href="#DejaVuSans-50"/>
       <use x="286.279297" xlink:href="#DejaVuSans-53"/>
      </g>
     </g>
    </g>
    <g id="ytick_7">
     <g id="line2d_13">
      <g>
       <use style="stroke:#000000;stroke-width:0.8;" x="57.6" xlink:href="#m74987834be" y="94.176377"/>
      </g>
     </g>
     <g id="text_14">
      <!-- 0.6650 -->
      <g transform="translate(15.609375 97.975596)scale(0.1 -0.1)">
       <use xlink:href="#DejaVuSans-48"/>
       <use x="63.623047" xlink:href="#DejaVuSans-46"/>
       <use x="95.410156" xlink:href="#DejaVuSans-54"/>
       <use x="159.033203" xlink:href="#DejaVuSans-54"/>
       <use x="222.65625" xlink:href="#DejaVuSans-53"/>
       <use x="286.279297" xlink:href="#DejaVuSans-48"/>
      </g>
     </g>
    </g>
    <g id="ytick_8">
     <g id="line2d_14">
      <g>
       <use style="stroke:#000000;stroke-width:0.8;" x="57.6" xlink:href="#m74987834be" y="62.878812"/>
      </g>
     </g>
     <g id="text_15">
      <!-- 0.6675 -->
      <g transform="translate(15.609375 66.678031)scale(0.1 -0.1)">
       <use xlink:href="#DejaVuSans-48"/>
       <use x="63.623047" xlink:href="#DejaVuSans-46"/>
       <use x="95.410156" xlink:href="#DejaVuSans-54"/>
       <use x="159.033203" xlink:href="#DejaVuSans-54"/>
       <use x="222.65625" xlink:href="#DejaVuSans-55"/>
       <use x="286.279297" xlink:href="#DejaVuSans-53"/>
      </g>
     </g>
    </g>
    <g id="text_16">
     <!-- Price -->
     <defs>
      <path d="M 19.671875 64.796875 
L 19.671875 37.40625 
L 32.078125 37.40625 
Q 38.96875 37.40625 42.71875 40.96875 
Q 46.484375 44.53125 46.484375 51.125 
Q 46.484375 57.671875 42.71875 61.234375 
Q 38.96875 64.796875 32.078125 64.796875 
z
M 9.8125 72.90625 
L 32.078125 72.90625 
Q 44.34375 72.90625 50.609375 67.359375 
Q 56.890625 61.8125 56.890625 51.125 
Q 56.890625 40.328125 50.609375 34.8125 
Q 44.34375 29.296875 32.078125 29.296875 
L 19.671875 29.296875 
L 19.671875 0 
L 9.8125 0 
z
" id="DejaVuSans-80"/>
      <path d="M 41.109375 46.296875 
Q 39.59375 47.171875 37.8125 47.578125 
Q 36.03125 48 33.890625 48 
Q 26.265625 48 22.1875 43.046875 
Q 18.109375 38.09375 18.109375 28.8125 
L 18.109375 0 
L 9.078125 0 
L 9.078125 54.6875 
L 18.109375 54.6875 
L 18.109375 46.1875 
Q 20.953125 51.171875 25.484375 53.578125 
Q 30.03125 56 36.53125 56 
Q 37.453125 56 38.578125 55.875 
Q 39.703125 55.765625 41.0625 55.515625 
z
" id="DejaVuSans-114"/>
      <path d="M 9.421875 54.6875 
L 18.40625 54.6875 
L 18.40625 0 
L 9.421875 0 
z
M 9.421875 75.984375 
L 18.40625 75.984375 
L 18.40625 64.59375 
L 9.421875 64.59375 
z
" id="DejaVuSans-105"/>
      <path d="M 48.78125 52.59375 
L 48.78125 44.1875 
Q 44.96875 46.296875 41.140625 47.34375 
Q 37.3125 48.390625 33.40625 48.390625 
Q 24.65625 48.390625 19.8125 42.84375 
Q 14.984375 37.3125 14.984375 27.296875 
Q 14.984375 17.28125 19.8125 11.734375 
Q 24.65625 6.203125 33.40625 6.203125 
Q 37.3125 6.203125 41.140625 7.25 
Q 44.96875 8.296875 48.78125 10.40625 
L 48.78125 2.09375 
Q 45.015625 0.34375 40.984375 -0.53125 
Q 36.96875 -1.421875 32.421875 -1.421875 
Q 20.0625 -1.421875 12.78125 6.34375 
Q 5.515625 14.109375 5.515625 27.296875 
Q 5.515625 40.671875 12.859375 48.328125 
Q 20.21875 56 33.015625 56 
Q 37.15625 56 41.109375 55.140625 
Q 45.0625 54.296875 48.78125 52.59375 
z
" id="DejaVuSans-99"/>
     </defs>
     <g transform="translate(9.529687 186.812375)rotate(-90)scale(0.1 -0.1)">
      <use xlink:href="#DejaVuSans-80"/>
      <use x="60.287109" xlink:href="#DejaVuSans-114"/>
      <use x="101.400391" xlink:href="#DejaVuSans-105"/>
      <use x="129.183594" xlink:href="#DejaVuSans-99"/>
      <use x="184.164062" xlink:href="#DejaVuSans-101"/>
     </g>
    </g>
   </g>
   <g id="line2d_15">
    <path clip-path="url(#p3815365d1d)" d="M 73.832727 240.148221 
L 74.482036 230.884142 
L 75.131345 234.63985 
L 75.780655 231.885664 
L 76.429964 242.276456 
L 77.079273 246.658115 
L 77.728582 245.656593 
L 78.377891 230.508571 
L 79.0272 233.387947 
L 79.676509 221.244492 
L 80.325818 223.497917 
L 80.975127 227.378815 
L 81.624436 227.128434 
L 82.273745 233.012376 
L 82.923055 234.139089 
L 83.572364 234.139089 
L 84.221673 242.652026 
L 84.870982 232.386425 
L 85.520291 231.384903 
L 86.1696 230.633761 
L 86.818909 230.633761 
L 87.468218 225.876531 
L 88.117527 229.381859 
L 88.766836 236.267323 
L 89.416145 235.140611 
L 90.065455 226.878054 
L 90.714764 221.870443 
L 91.364073 221.369682 
L 92.013382 215.861311 
L 92.662691 211.604842 
L 93.312 210.8537 
L 93.961309 208.349895 
L 94.610618 208.099514 
L 95.259927 199.836957 
L 95.909236 198.334674 
L 96.558545 191.949971 
L 97.207855 196.33163 
L 97.857164 204.218616 
L 98.506473 181.308799 
L 99.155782 193.327064 
L 99.805091 200.588099 
L 100.4544 198.459864 
L 101.103709 210.227749 
L 101.753018 234.264279 
L 102.402327 237.894797 
L 103.051636 236.267323 
L 103.700945 233.262757 
L 104.350255 240.899363 
L 104.999564 240.398602 
L 105.648873 234.139089 
L 106.298182 236.893274 
L 106.947491 235.140611 
L 107.5968 225.876531 
L 108.246109 232.136045 
L 108.895418 235.766562 
L 109.544727 257.174097 
L 110.194036 251.415345 
L 110.843345 242.151265 
L 112.141964 230.884142 
L 112.791273 245.656593 
L 113.440582 245.656593 
L 114.089891 230.133 
L 114.7392 230.383381 
L 115.388509 233.137567 
L 116.037818 225.37577 
L 116.687127 226.752863 
L 117.336436 211.604842 
L 117.985745 211.104081 
L 118.635055 212.105603 
L 119.284364 202.090382 
L 119.933673 200.588099 
L 121.232291 171.794339 
L 121.8816 177.928662 
L 122.530909 187.568312 
L 123.180218 181.80956 
L 123.829527 179.806515 
L 124.478836 194.578966 
L 125.128145 198.585055 
L 125.777455 192.200351 
L 126.426764 182.560701 
L 127.076073 155.269224 
L 127.725382 140.621964 
L 128.374691 131.483075 
L 129.024 135.739544 
L 129.673309 122.469376 
L 130.322618 144.502862 
L 130.971927 145.003623 
L 131.621236 141.999057 
L 132.270545 134.988402 
L 132.919855 133.736499 
L 133.569164 134.362451 
L 134.218473 130.606743 
L 134.867782 138.118159 
L 135.517091 136.866256 
L 136.1664 141.999057 
L 136.815709 142.750198 
L 137.465018 147.257048 
L 138.114327 142.249437 
L 138.763636 143.125769 
L 139.412945 140.621964 
L 140.062255 147.507428 
L 140.711564 150.511994 
L 141.360873 158.774552 
L 142.010182 162.78064 
L 142.659491 159.901264 
L 143.3088 151.263136 
L 143.958109 153.516561 
L 144.607418 147.257048 
L 145.256727 152.014278 
L 145.906036 143.50134 
L 146.555345 165.284445 
L 147.204655 178.053852 
L 147.853964 176.301188 
L 148.503273 166.035587 
L 149.152582 163.656972 
L 149.801891 171.043197 
L 151.100509 164.032543 
L 151.749818 157.021888 
L 152.399127 152.264658 
L 153.048436 152.765419 
L 153.697745 154.267702 
L 154.347055 156.521127 
L 154.996364 158.02341 
L 155.645673 155.018844 
L 156.294982 155.519605 
L 158.242909 185.815648 
L 158.892218 191.69959 
L 159.541527 200.838479 
L 160.190836 202.090382 
L 160.840145 202.841523 
L 161.489455 199.586577 
L 162.138764 197.082771 
L 163.437382 194.704156 
L 164.086691 195.330108 
L 164.736 200.087338 
L 165.385309 193.076683 
L 166.034618 196.45682 
L 166.683927 191.82478 
L 167.333236 194.328586 
L 167.982545 206.09647 
L 168.631855 208.725466 
L 169.281164 203.342284 
L 169.930473 207.473563 
L 171.229091 199.085816 
L 171.8784 199.211006 
L 172.527709 191.073639 
L 173.826327 199.586577 
L 174.475636 199.211006 
L 175.124945 196.832391 
L 175.774255 189.696546 
L 176.423564 173.296622 
L 177.072873 181.058418 
L 177.722182 178.053852 
L 178.371491 171.293578 
L 179.670109 174.172954 
L 180.319418 171.794339 
L 180.968727 166.536348 
L 181.618036 168.539392 
L 182.267345 165.660016 
L 182.916655 161.779118 
L 183.565964 167.287489 
L 184.215273 165.409635 
L 184.864582 165.785206 
L 185.513891 165.284445 
L 186.1632 142.124247 
L 186.812509 149.760853 
L 187.461818 141.999057 
L 188.111127 130.231172 
L 189.409745 112.954916 
L 190.059055 95.929041 
L 190.708364 87.666483 
L 191.357673 80.906209 
L 192.006982 91.422191 
L 192.656291 104.441978 
L 193.3056 106.445023 
L 193.954909 92.674094 
L 194.604218 74.646696 
L 195.253527 100.060319 
L 195.902836 91.422191 
L 196.552145 88.918386 
L 197.201455 87.165722 
L 197.850764 86.03901 
L 198.500073 99.309178 
L 199.149382 92.048143 
L 200.448 87.666483 
L 201.097309 88.668006 
L 201.746618 74.396316 
L 202.395927 73.394794 
L 203.045236 95.67866 
L 203.694545 84.411537 
L 204.343855 63.880334 
L 204.993164 63.629953 
L 205.642473 53.614732 
L 206.291782 64.881856 
L 206.941091 92.548904 
L 207.5904 110.325921 
L 208.239709 108.322876 
L 208.889018 107.446545 
L 209.538327 112.704536 
L 210.187636 108.948828 
L 210.836945 108.698447 
L 211.486255 108.948828 
L 212.135564 114.95796 
L 212.784873 112.203775 
L 213.434182 111.202252 
L 214.083491 114.332009 
L 214.7328 116.460243 
L 215.382109 115.834292 
L 216.031418 113.455677 
L 216.680727 109.699969 
L 217.330036 107.321354 
L 217.979345 106.570213 
L 218.628655 104.692359 
L 219.277964 112.454155 
L 219.927273 135.113592 
L 220.576582 144.502862 
L 221.225891 156.145556 
L 221.8752 176.301188 
L 222.524509 167.78825 
L 223.173818 163.03102 
L 223.823127 156.020366 
L 224.472436 168.789772 
L 225.121745 185.189697 
L 225.771055 185.314887 
L 226.420364 187.568312 
L 227.069673 196.58201 
L 227.718982 198.334674 
L 228.368291 183.437033 
L 229.0176 195.330108 
L 229.666909 180.557657 
L 230.316218 182.685891 
L 230.965527 186.316409 
L 231.614836 208.099514 
L 232.264145 216.862833 
L 232.913455 216.362072 
L 233.562764 214.359027 
L 234.212073 214.609408 
L 234.861382 213.858266 
L 235.510691 226.377293 
L 236.16 235.390991 
L 236.809309 220.868921 
L 237.458618 225.626151 
L 238.757236 216.737642 
L 239.406545 229.632239 
L 240.055855 230.633761 
L 240.705164 226.752863 
L 241.354473 225.876531 
L 242.003782 221.870443 
L 242.653091 230.633761 
L 243.3024 235.891752 
L 243.951709 236.267323 
L 244.601018 225.626151 
L 245.250327 219.867399 
L 245.899636 215.986501 
L 246.548945 223.623107 
L 247.198255 223.998678 
L 247.847564 227.378815 
L 248.496873 225.12539 
L 250.4448 204.594187 
L 251.743418 175.049286 
L 252.392727 189.571356 
L 253.042036 182.05994 
L 253.691345 193.577444 
L 254.340655 201.464431 
L 255.639273 196.081249 
L 256.288582 190.572878 
L 256.937891 186.191219 
L 257.5872 185.565267 
L 258.236509 185.565267 
L 258.885818 175.925617 
L 259.535127 177.803471 
L 260.184436 184.188175 
L 260.833745 160.777596 
L 261.483055 162.90583 
L 262.132364 182.560701 
L 262.781673 180.432467 
L 263.430982 180.808038 
L 264.080291 198.585055 
L 264.7296 188.444643 
L 265.378909 192.200351 
L 266.028218 202.340762 
L 266.677527 203.217094 
L 267.326836 213.232315 
L 267.976145 213.607886 
L 268.625455 225.12539 
L 269.274764 197.333152 
L 269.924073 198.835435 
L 270.573382 200.838479 
L 271.222691 192.075161 
L 271.872 193.827825 
L 272.521309 197.333152 
L 273.170618 193.827825 
L 273.819927 199.586577 
L 275.118545 192.951493 
L 275.767855 173.922573 
L 276.417164 184.313365 
L 277.066473 188.194263 
L 277.715782 187.568312 
L 278.365091 193.327064 
L 279.0144 194.078205 
L 279.663709 187.317931 
L 280.313018 188.069073 
L 280.962327 188.444643 
L 281.611636 188.069073 
L 282.260945 179.931706 
L 282.910255 178.429423 
L 283.559564 174.047763 
L 284.208873 180.557657 
L 284.858182 215.986501 
L 285.507491 216.862833 
L 286.1568 220.36816 
L 286.806109 207.849134 
L 287.455418 218.114735 
L 288.104727 209.351417 
L 288.754036 207.598753 
L 289.403345 204.594187 
L 290.052655 211.855222 
L 290.701964 226.126912 
L 291.351273 211.604842 
L 292.000582 215.110169 
L 293.2992 217.613974 
L 293.948509 223.873487 
L 294.597818 233.137567 
L 295.247127 246.407734 
L 295.896436 238.019987 
L 296.545745 249.28711 
L 297.195055 234.389469 
L 297.844364 237.143655 
L 298.493673 237.143655 
L 300.4416 276.453397 
L 301.090909 269.067171 
L 301.740218 257.424477 
L 303.038836 243.903929 
L 303.688145 246.658115 
L 304.337455 232.386425 
L 304.986764 234.514659 
L 305.636073 227.879576 
L 306.285382 226.627673 
L 306.934691 228.630717 
L 307.584 221.620063 
L 308.233309 240.774173 
L 308.882618 237.894797 
L 309.531927 223.122346 
L 310.181236 228.255146 
L 310.830545 231.134522 
L 311.479855 232.761996 
L 312.129164 247.910017 
L 312.778473 245.906973 
L 313.427782 241.650504 
L 314.077091 243.653549 
L 314.7264 238.645938 
L 315.375709 224.624629 
L 316.025018 251.665725 
L 316.674327 252.416867 
L 317.323636 250.914584 
L 317.972945 246.532925 
L 318.622255 244.2795 
L 319.271564 237.894797 
L 319.920873 251.665725 
L 320.570182 260.303853 
L 321.219491 247.409256 
L 321.8688 247.534447 
L 322.518109 247.534447 
L 323.167418 245.656593 
L 323.816727 250.288632 
L 324.466036 247.409256 
L 325.115345 239.64746 
L 325.764655 227.629195 
L 326.413964 247.659637 
L 327.063273 241.525314 
L 327.712582 238.145177 
L 328.361891 253.668769 
L 329.0112 251.665725 
L 329.660509 236.142133 
L 330.309818 235.140611 
L 330.959127 243.653549 
L 331.608436 228.255146 
L 332.257745 238.896319 
L 332.907055 232.136045 
L 333.556364 233.387947 
L 334.205673 237.894797 
L 334.854982 234.139089 
L 335.504291 234.63985 
L 336.1536 236.392513 
L 336.802909 244.905451 
L 337.452218 243.903929 
L 338.101527 236.642894 
L 338.750836 234.76504 
L 339.400145 229.75743 
L 340.049455 229.381859 
L 340.698764 224.875009 
L 341.348073 223.873487 
L 341.997382 216.111691 
L 342.646691 237.394035 
L 343.296 229.632239 
L 343.945309 239.64746 
L 344.594618 238.395558 
L 345.243927 245.406212 
L 345.893236 254.16953 
L 346.542545 228.881098 
L 347.191855 221.870443 
L 347.841164 225.876531 
L 348.490473 224.875009 
L 349.139782 228.380337 
L 350.4384 227.378815 
L 351.087709 231.635283 
L 351.737018 233.137567 
L 352.386327 229.88262 
L 353.035636 220.24297 
L 353.684945 221.620063 
L 354.334255 217.113213 
L 354.983564 206.346851 
L 355.632873 206.847612 
L 356.282182 210.478129 
L 356.931491 212.481174 
L 357.5808 212.856744 
L 358.230109 208.349895 
L 358.879418 215.36055 
L 359.528727 207.348373 
L 360.178036 202.090382 
L 360.827345 201.08886 
L 361.476655 213.107125 
L 362.125964 212.856744 
L 363.424582 241.775695 
L 364.073891 239.64746 
L 364.7232 243.403168 
L 365.372509 239.64746 
L 366.021818 237.644416 
L 366.671127 240.899363 
L 367.320436 239.39708 
L 367.969745 234.89023 
L 368.619055 236.142133 
L 369.268364 224.123868 
L 369.917673 237.143655 
L 370.566982 243.528358 
L 371.216291 233.888708 
L 371.8656 230.133 
L 372.514909 228.881098 
L 373.164218 238.645938 
L 373.813527 235.140611 
L 374.462836 250.163442 
L 375.112145 246.157354 
L 376.410764 257.174097 
L 377.060073 221.870443 
L 377.709382 195.830869 
L 378.358691 187.443121 
L 379.008 185.064506 
L 379.657309 173.421812 
L 380.306618 179.681325 
L 380.955927 175.049286 
L 381.605236 172.2951 
L 382.254545 178.304232 
L 382.903855 182.811082 
L 383.553164 181.559179 
L 384.202473 180.808038 
L 384.851782 173.922573 
L 385.501091 178.053852 
L 386.1504 181.058418 
L 386.799709 189.320975 
L 387.449018 189.821736 
L 388.098327 197.833913 
L 388.747636 187.443121 
L 389.396945 171.043197 
L 390.046255 173.421812 
L 390.695564 172.044719 
L 391.344873 184.563745 
L 391.994182 171.168387 
L 393.2928 199.336196 
L 393.942109 214.359027 
L 394.591418 223.623107 
L 395.240727 228.881098 
L 395.890036 240.148221 
L 396.539345 244.905451 
L 397.188655 239.77265 
L 397.837964 243.403168 
L 397.837964 243.403168 
" style="fill:none;stroke:#000000;stroke-dasharray:5.55,2.4;stroke-dashoffset:0;stroke-width:1.5;"/>
   </g>
   <g id="line2d_16">
    <defs>
     <path d="M 0 3 
C 0.795609 3 1.55874 2.683901 2.12132 2.12132 
C 2.683901 1.55874 3 0.795609 3 0 
C 3 -0.795609 2.683901 -1.55874 2.12132 -2.12132 
C 1.55874 -2.683901 0.795609 -3 0 -3 
C -0.795609 -3 -1.55874 -2.683901 -2.12132 -2.12132 
C -2.683901 -1.55874 -3 -0.795609 -3 0 
C -3 0.795609 -2.683901 1.55874 -2.12132 2.12132 
C -1.55874 2.683901 -0.795609 3 0 3 
z
" id="ma6df8abdeb" style="stroke:#bfbf00;"/>
    </defs>
    <g clip-path="url(#p3815365d1d)">
     <use style="fill:#bfbf00;stroke:#bfbf00;" x="77.079273" xlink:href="#ma6df8abdeb" y="246.658115"/>
     <use style="fill:#bfbf00;stroke:#bfbf00;" x="84.221673" xlink:href="#ma6df8abdeb" y="242.652026"/>
     <use style="fill:#bfbf00;stroke:#bfbf00;" x="88.766836" xlink:href="#ma6df8abdeb" y="236.267323"/>
     <use style="fill:#bfbf00;stroke:#bfbf00;" x="97.857164" xlink:href="#ma6df8abdeb" y="204.218616"/>
     <use style="fill:#bfbf00;stroke:#bfbf00;" x="102.402327" xlink:href="#ma6df8abdeb" y="237.894797"/>
     <use style="fill:#bfbf00;stroke:#bfbf00;" x="104.350255" xlink:href="#ma6df8abdeb" y="240.899363"/>
     <use style="fill:#bfbf00;stroke:#bfbf00;" x="106.298182" xlink:href="#ma6df8abdeb" y="236.893274"/>
     <use style="fill:#bfbf00;stroke:#bfbf00;" x="109.544727" xlink:href="#ma6df8abdeb" y="257.174097"/>
     <use style="fill:#bfbf00;stroke:#bfbf00;" x="112.791273" xlink:href="#ma6df8abdeb" y="245.656593"/>
     <use style="fill:#bfbf00;stroke:#bfbf00;" x="115.388509" xlink:href="#ma6df8abdeb" y="233.137567"/>
     <use style="fill:#bfbf00;stroke:#bfbf00;" x="118.635055" xlink:href="#ma6df8abdeb" y="212.105603"/>
     <use style="fill:#bfbf00;stroke:#bfbf00;" x="122.530909" xlink:href="#ma6df8abdeb" y="187.568312"/>
     <use style="fill:#bfbf00;stroke:#bfbf00;" x="125.128145" xlink:href="#ma6df8abdeb" y="198.585055"/>
     <use style="fill:#bfbf00;stroke:#bfbf00;" x="130.971927" xlink:href="#ma6df8abdeb" y="145.003623"/>
     <use style="fill:#bfbf00;stroke:#bfbf00;" x="137.465018" xlink:href="#ma6df8abdeb" y="147.257048"/>
     <use style="fill:#bfbf00;stroke:#bfbf00;" x="142.010182" xlink:href="#ma6df8abdeb" y="162.78064"/>
     <use style="fill:#bfbf00;stroke:#bfbf00;" x="147.204655" xlink:href="#ma6df8abdeb" y="178.053852"/>
     <use style="fill:#bfbf00;stroke:#bfbf00;" x="149.801891" xlink:href="#ma6df8abdeb" y="171.043197"/>
     <use style="fill:#bfbf00;stroke:#bfbf00;" x="154.996364" xlink:href="#ma6df8abdeb" y="158.02341"/>
     <use style="fill:#bfbf00;stroke:#bfbf00;" x="160.840145" xlink:href="#ma6df8abdeb" y="202.841523"/>
     <use style="fill:#bfbf00;stroke:#bfbf00;" x="164.736" xlink:href="#ma6df8abdeb" y="200.087338"/>
     <use style="fill:#bfbf00;stroke:#bfbf00;" x="168.631855" xlink:href="#ma6df8abdeb" y="208.725466"/>
     <use style="fill:#bfbf00;stroke:#bfbf00;" x="173.826327" xlink:href="#ma6df8abdeb" y="199.586577"/>
     <use style="fill:#bfbf00;stroke:#bfbf00;" x="177.072873" xlink:href="#ma6df8abdeb" y="181.058418"/>
     <use style="fill:#bfbf00;stroke:#bfbf00;" x="179.670109" xlink:href="#ma6df8abdeb" y="174.172954"/>
     <use style="fill:#bfbf00;stroke:#bfbf00;" x="183.565964" xlink:href="#ma6df8abdeb" y="167.287489"/>
     <use style="fill:#bfbf00;stroke:#bfbf00;" x="193.3056" xlink:href="#ma6df8abdeb" y="106.445023"/>
     <use style="fill:#bfbf00;stroke:#bfbf00;" x="195.253527" xlink:href="#ma6df8abdeb" y="100.060319"/>
     <use style="fill:#bfbf00;stroke:#bfbf00;" x="198.500073" xlink:href="#ma6df8abdeb" y="99.309178"/>
     <use style="fill:#bfbf00;stroke:#bfbf00;" x="203.045236" xlink:href="#ma6df8abdeb" y="95.67866"/>
     <use style="fill:#bfbf00;stroke:#bfbf00;" x="207.5904" xlink:href="#ma6df8abdeb" y="110.325921"/>
     <use style="fill:#bfbf00;stroke:#bfbf00;" x="209.538327" xlink:href="#ma6df8abdeb" y="112.704536"/>
     <use style="fill:#bfbf00;stroke:#bfbf00;" x="212.135564" xlink:href="#ma6df8abdeb" y="114.95796"/>
     <use style="fill:#bfbf00;stroke:#bfbf00;" x="214.7328" xlink:href="#ma6df8abdeb" y="116.460243"/>
     <use style="fill:#bfbf00;stroke:#bfbf00;" x="221.8752" xlink:href="#ma6df8abdeb" y="176.301188"/>
     <use style="fill:#bfbf00;stroke:#bfbf00;" x="227.718982" xlink:href="#ma6df8abdeb" y="198.334674"/>
     <use style="fill:#bfbf00;stroke:#bfbf00;" x="232.264145" xlink:href="#ma6df8abdeb" y="216.862833"/>
     <use style="fill:#bfbf00;stroke:#bfbf00;" x="236.16" xlink:href="#ma6df8abdeb" y="235.390991"/>
     <use style="fill:#bfbf00;stroke:#bfbf00;" x="237.458618" xlink:href="#ma6df8abdeb" y="225.626151"/>
     <use style="fill:#bfbf00;stroke:#bfbf00;" x="240.055855" xlink:href="#ma6df8abdeb" y="230.633761"/>
     <use style="fill:#bfbf00;stroke:#bfbf00;" x="243.951709" xlink:href="#ma6df8abdeb" y="236.267323"/>
     <use style="fill:#bfbf00;stroke:#bfbf00;" x="247.847564" xlink:href="#ma6df8abdeb" y="227.378815"/>
     <use style="fill:#bfbf00;stroke:#bfbf00;" x="254.340655" xlink:href="#ma6df8abdeb" y="201.464431"/>
     <use style="fill:#bfbf00;stroke:#bfbf00;" x="260.184436" xlink:href="#ma6df8abdeb" y="184.188175"/>
     <use style="fill:#bfbf00;stroke:#bfbf00;" x="262.132364" xlink:href="#ma6df8abdeb" y="182.560701"/>
     <use style="fill:#bfbf00;stroke:#bfbf00;" x="264.080291" xlink:href="#ma6df8abdeb" y="198.585055"/>
     <use style="fill:#bfbf00;stroke:#bfbf00;" x="268.625455" xlink:href="#ma6df8abdeb" y="225.12539"/>
     <use style="fill:#bfbf00;stroke:#bfbf00;" x="270.573382" xlink:href="#ma6df8abdeb" y="200.838479"/>
     <use style="fill:#bfbf00;stroke:#bfbf00;" x="272.521309" xlink:href="#ma6df8abdeb" y="197.333152"/>
     <use style="fill:#bfbf00;stroke:#bfbf00;" x="273.819927" xlink:href="#ma6df8abdeb" y="199.586577"/>
     <use style="fill:#bfbf00;stroke:#bfbf00;" x="279.0144" xlink:href="#ma6df8abdeb" y="194.078205"/>
     <use style="fill:#bfbf00;stroke:#bfbf00;" x="280.962327" xlink:href="#ma6df8abdeb" y="188.444643"/>
     <use style="fill:#bfbf00;stroke:#bfbf00;" x="286.1568" xlink:href="#ma6df8abdeb" y="220.36816"/>
     <use style="fill:#bfbf00;stroke:#bfbf00;" x="287.455418" xlink:href="#ma6df8abdeb" y="218.114735"/>
     <use style="fill:#bfbf00;stroke:#bfbf00;" x="290.701964" xlink:href="#ma6df8abdeb" y="226.126912"/>
     <use style="fill:#bfbf00;stroke:#bfbf00;" x="296.545745" xlink:href="#ma6df8abdeb" y="249.28711"/>
     <use style="fill:#bfbf00;stroke:#bfbf00;" x="300.4416" xlink:href="#ma6df8abdeb" y="276.453397"/>
     <use style="fill:#bfbf00;stroke:#bfbf00;" x="306.934691" xlink:href="#ma6df8abdeb" y="228.630717"/>
     <use style="fill:#bfbf00;stroke:#bfbf00;" x="308.233309" xlink:href="#ma6df8abdeb" y="240.774173"/>
     <use style="fill:#bfbf00;stroke:#bfbf00;" x="312.129164" xlink:href="#ma6df8abdeb" y="247.910017"/>
     <use style="fill:#bfbf00;stroke:#bfbf00;" x="316.674327" xlink:href="#ma6df8abdeb" y="252.416867"/>
     <use style="fill:#bfbf00;stroke:#bfbf00;" x="320.570182" xlink:href="#ma6df8abdeb" y="260.303853"/>
     <use style="fill:#bfbf00;stroke:#bfbf00;" x="321.8688" xlink:href="#ma6df8abdeb" y="247.534447"/>
     <use style="fill:#bfbf00;stroke:#bfbf00;" x="323.816727" xlink:href="#ma6df8abdeb" y="250.288632"/>
     <use style="fill:#bfbf00;stroke:#bfbf00;" x="326.413964" xlink:href="#ma6df8abdeb" y="247.659637"/>
     <use style="fill:#bfbf00;stroke:#bfbf00;" x="328.361891" xlink:href="#ma6df8abdeb" y="253.668769"/>
     <use style="fill:#bfbf00;stroke:#bfbf00;" x="330.959127" xlink:href="#ma6df8abdeb" y="243.653549"/>
     <use style="fill:#bfbf00;stroke:#bfbf00;" x="332.257745" xlink:href="#ma6df8abdeb" y="238.896319"/>
     <use style="fill:#bfbf00;stroke:#bfbf00;" x="334.205673" xlink:href="#ma6df8abdeb" y="237.894797"/>
     <use style="fill:#bfbf00;stroke:#bfbf00;" x="336.802909" xlink:href="#ma6df8abdeb" y="244.905451"/>
     <use style="fill:#bfbf00;stroke:#bfbf00;" x="345.893236" xlink:href="#ma6df8abdeb" y="254.16953"/>
     <use style="fill:#bfbf00;stroke:#bfbf00;" x="349.139782" xlink:href="#ma6df8abdeb" y="228.380337"/>
     <use style="fill:#bfbf00;stroke:#bfbf00;" x="351.737018" xlink:href="#ma6df8abdeb" y="233.137567"/>
     <use style="fill:#bfbf00;stroke:#bfbf00;" x="357.5808" xlink:href="#ma6df8abdeb" y="212.856744"/>
     <use style="fill:#bfbf00;stroke:#bfbf00;" x="358.879418" xlink:href="#ma6df8abdeb" y="215.36055"/>
     <use style="fill:#bfbf00;stroke:#bfbf00;" x="364.7232" xlink:href="#ma6df8abdeb" y="243.403168"/>
     <use style="fill:#bfbf00;stroke:#bfbf00;" x="366.671127" xlink:href="#ma6df8abdeb" y="240.899363"/>
     <use style="fill:#bfbf00;stroke:#bfbf00;" x="370.566982" xlink:href="#ma6df8abdeb" y="243.528358"/>
     <use style="fill:#bfbf00;stroke:#bfbf00;" x="376.410764" xlink:href="#ma6df8abdeb" y="257.174097"/>
     <use style="fill:#bfbf00;stroke:#bfbf00;" x="380.306618" xlink:href="#ma6df8abdeb" y="179.681325"/>
     <use style="fill:#bfbf00;stroke:#bfbf00;" x="382.903855" xlink:href="#ma6df8abdeb" y="182.811082"/>
     <use style="fill:#bfbf00;stroke:#bfbf00;" x="388.098327" xlink:href="#ma6df8abdeb" y="197.833913"/>
     <use style="fill:#bfbf00;stroke:#bfbf00;" x="391.344873" xlink:href="#ma6df8abdeb" y="184.563745"/>
     <use style="fill:#bfbf00;stroke:#bfbf00;" x="396.539345" xlink:href="#ma6df8abdeb" y="244.905451"/>
    </g>
   </g>
   <g id="line2d_17">
    <path clip-path="url(#p3815365d1d)" d="M 73.832727 182.676278 
L 397.837964 228.258433 
" style="fill:none;stroke:#bfbf00;stroke-dasharray:5.55,2.4;stroke-dashoffset:0;stroke-width:1.5;"/>
   </g>
   <g id="line2d_18">
    <defs>
     <path d="M 0 3 
C 0.795609 3 1.55874 2.683901 2.12132 2.12132 
C 2.683901 1.55874 3 0.795609 3 0 
C 3 -0.795609 2.683901 -1.55874 2.12132 -2.12132 
C 1.55874 -2.683901 0.795609 -3 0 -3 
C -0.795609 -3 -1.55874 -2.683901 -2.12132 -2.12132 
C -2.683901 -1.55874 -3 -0.795609 -3 0 
C -3 0.795609 -2.683901 1.55874 -2.12132 2.12132 
C -1.55874 2.683901 -0.795609 3 0 3 
z
" id="m1ff60b077d" style="stroke:#0000ff;"/>
    </defs>
    <g clip-path="url(#p3815365d1d)">
     <use style="fill:#0000ff;stroke:#0000ff;" x="74.482036" xlink:href="#m1ff60b077d" y="230.884142"/>
     <use style="fill:#0000ff;stroke:#0000ff;" x="79.676509" xlink:href="#m1ff60b077d" y="221.244492"/>
     <use style="fill:#0000ff;stroke:#0000ff;" x="87.468218" xlink:href="#m1ff60b077d" y="225.876531"/>
     <use style="fill:#0000ff;stroke:#0000ff;" x="96.558545" xlink:href="#m1ff60b077d" y="191.949971"/>
     <use style="fill:#0000ff;stroke:#0000ff;" x="98.506473" xlink:href="#m1ff60b077d" y="181.308799"/>
     <use style="fill:#0000ff;stroke:#0000ff;" x="103.700945" xlink:href="#m1ff60b077d" y="233.262757"/>
     <use style="fill:#0000ff;stroke:#0000ff;" x="105.648873" xlink:href="#m1ff60b077d" y="234.139089"/>
     <use style="fill:#0000ff;stroke:#0000ff;" x="107.5968" xlink:href="#m1ff60b077d" y="225.876531"/>
     <use style="fill:#0000ff;stroke:#0000ff;" x="112.141964" xlink:href="#m1ff60b077d" y="230.884142"/>
     <use style="fill:#0000ff;stroke:#0000ff;" x="114.089891" xlink:href="#m1ff60b077d" y="230.133"/>
     <use style="fill:#0000ff;stroke:#0000ff;" x="117.985745" xlink:href="#m1ff60b077d" y="211.104081"/>
     <use style="fill:#0000ff;stroke:#0000ff;" x="121.232291" xlink:href="#m1ff60b077d" y="171.794339"/>
     <use style="fill:#0000ff;stroke:#0000ff;" x="123.829527" xlink:href="#m1ff60b077d" y="179.806515"/>
     <use style="fill:#0000ff;stroke:#0000ff;" x="129.673309" xlink:href="#m1ff60b077d" y="122.469376"/>
     <use style="fill:#0000ff;stroke:#0000ff;" x="134.218473" xlink:href="#m1ff60b077d" y="130.606743"/>
     <use style="fill:#0000ff;stroke:#0000ff;" x="139.412945" xlink:href="#m1ff60b077d" y="140.621964"/>
     <use style="fill:#0000ff;stroke:#0000ff;" x="145.906036" xlink:href="#m1ff60b077d" y="143.50134"/>
     <use style="fill:#0000ff;stroke:#0000ff;" x="149.152582" xlink:href="#m1ff60b077d" y="163.656972"/>
     <use style="fill:#0000ff;stroke:#0000ff;" x="152.399127" xlink:href="#m1ff60b077d" y="152.264658"/>
     <use style="fill:#0000ff;stroke:#0000ff;" x="155.645673" xlink:href="#m1ff60b077d" y="155.018844"/>
     <use style="fill:#0000ff;stroke:#0000ff;" x="163.437382" xlink:href="#m1ff60b077d" y="194.704156"/>
     <use style="fill:#0000ff;stroke:#0000ff;" x="166.683927" xlink:href="#m1ff60b077d" y="191.82478"/>
     <use style="fill:#0000ff;stroke:#0000ff;" x="172.527709" xlink:href="#m1ff60b077d" y="191.073639"/>
     <use style="fill:#0000ff;stroke:#0000ff;" x="176.423564" xlink:href="#m1ff60b077d" y="173.296622"/>
     <use style="fill:#0000ff;stroke:#0000ff;" x="178.371491" xlink:href="#m1ff60b077d" y="171.293578"/>
     <use style="fill:#0000ff;stroke:#0000ff;" x="182.916655" xlink:href="#m1ff60b077d" y="161.779118"/>
     <use style="fill:#0000ff;stroke:#0000ff;" x="191.357673" xlink:href="#m1ff60b077d" y="80.906209"/>
     <use style="fill:#0000ff;stroke:#0000ff;" x="194.604218" xlink:href="#m1ff60b077d" y="74.646696"/>
     <use style="fill:#0000ff;stroke:#0000ff;" x="197.850764" xlink:href="#m1ff60b077d" y="86.03901"/>
     <use style="fill:#0000ff;stroke:#0000ff;" x="202.395927" xlink:href="#m1ff60b077d" y="73.394794"/>
     <use style="fill:#0000ff;stroke:#0000ff;" x="205.642473" xlink:href="#m1ff60b077d" y="53.614732"/>
     <use style="fill:#0000ff;stroke:#0000ff;" x="208.889018" xlink:href="#m1ff60b077d" y="107.446545"/>
     <use style="fill:#0000ff;stroke:#0000ff;" x="210.836945" xlink:href="#m1ff60b077d" y="108.698447"/>
     <use style="fill:#0000ff;stroke:#0000ff;" x="213.434182" xlink:href="#m1ff60b077d" y="111.202252"/>
     <use style="fill:#0000ff;stroke:#0000ff;" x="218.628655" xlink:href="#m1ff60b077d" y="104.692359"/>
     <use style="fill:#0000ff;stroke:#0000ff;" x="223.823127" xlink:href="#m1ff60b077d" y="156.020366"/>
     <use style="fill:#0000ff;stroke:#0000ff;" x="229.666909" xlink:href="#m1ff60b077d" y="180.557657"/>
     <use style="fill:#0000ff;stroke:#0000ff;" x="234.861382" xlink:href="#m1ff60b077d" y="213.858266"/>
     <use style="fill:#0000ff;stroke:#0000ff;" x="236.809309" xlink:href="#m1ff60b077d" y="220.868921"/>
     <use style="fill:#0000ff;stroke:#0000ff;" x="238.757236" xlink:href="#m1ff60b077d" y="216.737642"/>
     <use style="fill:#0000ff;stroke:#0000ff;" x="242.003782" xlink:href="#m1ff60b077d" y="221.870443"/>
     <use style="fill:#0000ff;stroke:#0000ff;" x="245.899636" xlink:href="#m1ff60b077d" y="215.986501"/>
     <use style="fill:#0000ff;stroke:#0000ff;" x="251.743418" xlink:href="#m1ff60b077d" y="175.049286"/>
     <use style="fill:#0000ff;stroke:#0000ff;" x="258.885818" xlink:href="#m1ff60b077d" y="175.925617"/>
     <use style="fill:#0000ff;stroke:#0000ff;" x="260.833745" xlink:href="#m1ff60b077d" y="160.777596"/>
     <use style="fill:#0000ff;stroke:#0000ff;" x="262.781673" xlink:href="#m1ff60b077d" y="180.432467"/>
     <use style="fill:#0000ff;stroke:#0000ff;" x="264.7296" xlink:href="#m1ff60b077d" y="188.444643"/>
     <use style="fill:#0000ff;stroke:#0000ff;" x="269.274764" xlink:href="#m1ff60b077d" y="197.333152"/>
     <use style="fill:#0000ff;stroke:#0000ff;" x="271.222691" xlink:href="#m1ff60b077d" y="192.075161"/>
     <use style="fill:#0000ff;stroke:#0000ff;" x="275.767855" xlink:href="#m1ff60b077d" y="173.922573"/>
     <use style="fill:#0000ff;stroke:#0000ff;" x="279.663709" xlink:href="#m1ff60b077d" y="187.317931"/>
     <use style="fill:#0000ff;stroke:#0000ff;" x="283.559564" xlink:href="#m1ff60b077d" y="174.047763"/>
     <use style="fill:#0000ff;stroke:#0000ff;" x="286.806109" xlink:href="#m1ff60b077d" y="207.849134"/>
     <use style="fill:#0000ff;stroke:#0000ff;" x="289.403345" xlink:href="#m1ff60b077d" y="204.594187"/>
     <use style="fill:#0000ff;stroke:#0000ff;" x="291.351273" xlink:href="#m1ff60b077d" y="211.604842"/>
     <use style="fill:#0000ff;stroke:#0000ff;" x="297.195055" xlink:href="#m1ff60b077d" y="234.389469"/>
     <use style="fill:#0000ff;stroke:#0000ff;" x="306.285382" xlink:href="#m1ff60b077d" y="226.627673"/>
     <use style="fill:#0000ff;stroke:#0000ff;" x="307.584" xlink:href="#m1ff60b077d" y="221.620063"/>
     <use style="fill:#0000ff;stroke:#0000ff;" x="309.531927" xlink:href="#m1ff60b077d" y="223.122346"/>
     <use style="fill:#0000ff;stroke:#0000ff;" x="315.375709" xlink:href="#m1ff60b077d" y="224.624629"/>
     <use style="fill:#0000ff;stroke:#0000ff;" x="319.271564" xlink:href="#m1ff60b077d" y="237.894797"/>
     <use style="fill:#0000ff;stroke:#0000ff;" x="321.219491" xlink:href="#m1ff60b077d" y="247.409256"/>
     <use style="fill:#0000ff;stroke:#0000ff;" x="323.167418" xlink:href="#m1ff60b077d" y="245.656593"/>
     <use style="fill:#0000ff;stroke:#0000ff;" x="325.764655" xlink:href="#m1ff60b077d" y="227.629195"/>
     <use style="fill:#0000ff;stroke:#0000ff;" x="327.712582" xlink:href="#m1ff60b077d" y="238.145177"/>
     <use style="fill:#0000ff;stroke:#0000ff;" x="330.309818" xlink:href="#m1ff60b077d" y="235.140611"/>
     <use style="fill:#0000ff;stroke:#0000ff;" x="331.608436" xlink:href="#m1ff60b077d" y="228.255146"/>
     <use style="fill:#0000ff;stroke:#0000ff;" x="332.907055" xlink:href="#m1ff60b077d" y="232.136045"/>
     <use style="fill:#0000ff;stroke:#0000ff;" x="334.854982" xlink:href="#m1ff60b077d" y="234.139089"/>
     <use style="fill:#0000ff;stroke:#0000ff;" x="341.997382" xlink:href="#m1ff60b077d" y="216.111691"/>
     <use style="fill:#0000ff;stroke:#0000ff;" x="347.191855" xlink:href="#m1ff60b077d" y="221.870443"/>
     <use style="fill:#0000ff;stroke:#0000ff;" x="350.4384" xlink:href="#m1ff60b077d" y="227.378815"/>
     <use style="fill:#0000ff;stroke:#0000ff;" x="354.983564" xlink:href="#m1ff60b077d" y="206.346851"/>
     <use style="fill:#0000ff;stroke:#0000ff;" x="358.230109" xlink:href="#m1ff60b077d" y="208.349895"/>
     <use style="fill:#0000ff;stroke:#0000ff;" x="360.827345" xlink:href="#m1ff60b077d" y="201.08886"/>
     <use style="fill:#0000ff;stroke:#0000ff;" x="366.021818" xlink:href="#m1ff60b077d" y="237.644416"/>
     <use style="fill:#0000ff;stroke:#0000ff;" x="369.268364" xlink:href="#m1ff60b077d" y="224.123868"/>
     <use style="fill:#0000ff;stroke:#0000ff;" x="372.514909" xlink:href="#m1ff60b077d" y="228.881098"/>
     <use style="fill:#0000ff;stroke:#0000ff;" x="379.657309" xlink:href="#m1ff60b077d" y="173.421812"/>
     <use style="fill:#0000ff;stroke:#0000ff;" x="381.605236" xlink:href="#m1ff60b077d" y="172.2951"/>
     <use style="fill:#0000ff;stroke:#0000ff;" x="384.851782" xlink:href="#m1ff60b077d" y="173.922573"/>
     <use style="fill:#0000ff;stroke:#0000ff;" x="389.396945" xlink:href="#m1ff60b077d" y="171.043197"/>
     <use style="fill:#0000ff;stroke:#0000ff;" x="391.994182" xlink:href="#m1ff60b077d" y="171.168387"/>
     <use style="fill:#0000ff;stroke:#0000ff;" x="397.188655" xlink:href="#m1ff60b077d" y="239.77265"/>
    </g>
   </g>
   <g id="line2d_19">
    <path clip-path="url(#p3815365d1d)" d="M 73.832727 164.599065 
L 397.837964 210.505966 
" style="fill:none;stroke:#0000ff;stroke-dasharray:5.55,2.4;stroke-dashoffset:0;stroke-width:1.5;"/>
   </g>
   <g id="line2d_20">
    <path clip-path="url(#p3815365d1d)" d="M 84.221673 242.650506 
L 106.947491 236.71664 
" style="fill:none;stroke:#008000;stroke-dasharray:5.55,2.4;stroke-dashoffset:0;stroke-width:1.5;"/>
   </g>
   <g id="line2d_21">
    <path clip-path="url(#p3815365d1d)" d="M 104.350255 240.87999 
L 125.777455 197.261271 
" style="fill:none;stroke:#008000;stroke-dasharray:5.55,2.4;stroke-dashoffset:0;stroke-width:1.5;"/>
   </g>
   <g id="line2d_22">
    <path clip-path="url(#p3815365d1d)" d="M 198.500073 99.307657 
L 219.927273 125.299588 
" style="fill:none;stroke:#008000;stroke-dasharray:5.55,2.4;stroke-dashoffset:0;stroke-width:1.5;"/>
   </g>
   <g id="line2d_23">
    <path clip-path="url(#p3815365d1d)" d="M 195.253527 100.063726 
L 219.927273 121.859606 
" style="fill:none;stroke:#008000;stroke-dasharray:5.55,2.4;stroke-dashoffset:0;stroke-width:1.5;"/>
   </g>
   <g id="line2d_24">
    <path clip-path="url(#p3815365d1d)" d="M 270.573382 200.831849 
L 294.597818 230.995598 
" style="fill:none;stroke:#008000;stroke-dasharray:5.55,2.4;stroke-dashoffset:0;stroke-width:1.5;"/>
   </g>
   <g id="line2d_25">
    <path clip-path="url(#p3815365d1d)" d="M 173.826327 199.67286 
L 299.142982 250.432034 
" style="fill:none;stroke:#008000;stroke-dasharray:5.55,2.4;stroke-dashoffset:0;stroke-width:1.5;"/>
   </g>
   <g id="line2d_26">
    <path clip-path="url(#p3815365d1d)" d="M 312.129164 247.984289 
L 397.188655 244.903353 
" style="fill:none;stroke:#008000;stroke-dasharray:5.55,2.4;stroke-dashoffset:0;stroke-width:1.5;"/>
   </g>
   <g id="line2d_27">
    <path clip-path="url(#p3815365d1d)" d="M 247.847564 227.34918 
L 398.487273 295.488 
" style="fill:none;stroke:#008000;stroke-dasharray:5.55,2.4;stroke-dashoffset:0;stroke-width:1.5;"/>
   </g>
   <g id="line2d_28">
    <path clip-path="url(#p3815365d1d)" d="M 79.676509 221.248149 
L 106.298182 234.507597 
" style="fill:none;stroke:#ff0000;stroke-dasharray:5.55,2.4;stroke-dashoffset:0;stroke-width:1.5;"/>
   </g>
   <g id="line2d_29">
    <path clip-path="url(#p3815365d1d)" d="M 129.673309 122.474828 
L 204.343855 72.111436 
" style="fill:none;stroke:#ff0000;stroke-dasharray:5.55,2.4;stroke-dashoffset:0;stroke-width:1.5;"/>
   </g>
   <g id="line2d_30">
    <path clip-path="url(#p3815365d1d)" d="M 139.412945 140.646501 
L 177.072873 173.888937 
" style="fill:none;stroke:#ff0000;stroke-dasharray:5.55,2.4;stroke-dashoffset:0;stroke-width:1.5;"/>
   </g>
   <g id="line2d_31">
    <path clip-path="url(#p3815365d1d)" d="M 205.642473 53.568 
L 306.934691 227.636109 
" style="fill:none;stroke:#ff0000;stroke-dasharray:5.55,2.4;stroke-dashoffset:0;stroke-width:1.5;"/>
   </g>
   <g id="line2d_32">
    <path clip-path="url(#p3815365d1d)" d="M 210.836945 108.645955 
L 276.417164 174.57313 
" style="fill:none;stroke:#ff0000;stroke-dasharray:5.55,2.4;stroke-dashoffset:0;stroke-width:1.5;"/>
   </g>
   <g id="line2d_33">
    <path clip-path="url(#p3815365d1d)" d="M 260.833745 160.778409 
L 392.643491 171.26029 
" style="fill:none;stroke:#ff0000;stroke-dasharray:5.55,2.4;stroke-dashoffset:0;stroke-width:1.5;"/>
   </g>
   <g id="line2d_34">
    <path clip-path="url(#p3815365d1d)" d="M 275.767855 173.92044 
L 398.487273 170.916108 
" style="fill:none;stroke:#ff0000;stroke-dasharray:5.55,2.4;stroke-dashoffset:0;stroke-width:1.5;"/>
   </g>
   <g id="patch_3">
    <path d="M 57.6 307.584 
L 57.6 41.472 
" style="fill:none;stroke:#000000;stroke-linecap:square;stroke-linejoin:miter;stroke-width:0.8;"/>
   </g>
   <g id="patch_4">
    <path d="M 414.72 307.584 
L 414.72 41.472 
" style="fill:none;stroke:#000000;stroke-linecap:square;stroke-linejoin:miter;stroke-width:0.8;"/>
   </g>
   <g id="patch_5">
    <path d="M 57.6 307.584 
L 414.72 307.584 
" style="fill:none;stroke:#000000;stroke-linecap:square;stroke-linejoin:miter;stroke-width:0.8;"/>
   </g>
   <g id="patch_6">
    <path d="M 57.6 41.472 
L 414.72 41.472 
" style="fill:none;stroke:#000000;stroke-linecap:square;stroke-linejoin:miter;stroke-width:0.8;"/>
   </g>
   <g id="text_17">
    <!-- Prices with Support/Resistance Trend Lines -->
    <defs>
     <path d="M 44.28125 53.078125 
L 44.28125 44.578125 
Q 40.484375 46.53125 36.375 47.5 
Q 32.28125 48.484375 27.875 48.484375 
Q 21.1875 48.484375 17.84375 46.4375 
Q 14.5 44.390625 14.5 40.28125 
Q 14.5 37.15625 16.890625 35.375 
Q 19.28125 33.59375 26.515625 31.984375 
L 29.59375 31.296875 
Q 39.15625 29.25 43.1875 25.515625 
Q 47.21875 21.78125 47.21875 15.09375 
Q 47.21875 7.46875 41.1875 3.015625 
Q 35.15625 -1.421875 24.609375 -1.421875 
Q 20.21875 -1.421875 15.453125 -0.5625 
Q 10.6875 0.296875 5.421875 2 
L 5.421875 11.28125 
Q 10.40625 8.6875 15.234375 7.390625 
Q 20.0625 6.109375 24.8125 6.109375 
Q 31.15625 6.109375 34.5625 8.28125 
Q 37.984375 10.453125 37.984375 14.40625 
Q 37.984375 18.0625 35.515625 20.015625 
Q 33.0625 21.96875 24.703125 23.78125 
L 21.578125 24.515625 
Q 13.234375 26.265625 9.515625 29.90625 
Q 5.8125 33.546875 5.8125 39.890625 
Q 5.8125 47.609375 11.28125 51.796875 
Q 16.75 56 26.8125 56 
Q 31.78125 56 36.171875 55.265625 
Q 40.578125 54.546875 44.28125 53.078125 
z
" id="DejaVuSans-115"/>
     <path id="DejaVuSans-32"/>
     <path d="M 4.203125 54.6875 
L 13.1875 54.6875 
L 24.421875 12.015625 
L 35.59375 54.6875 
L 46.1875 54.6875 
L 57.421875 12.015625 
L 68.609375 54.6875 
L 77.59375 54.6875 
L 63.28125 0 
L 52.6875 0 
L 40.921875 44.828125 
L 29.109375 0 
L 18.5 0 
z
" id="DejaVuSans-119"/>
     <path d="M 54.890625 33.015625 
L 54.890625 0 
L 45.90625 0 
L 45.90625 32.71875 
Q 45.90625 40.484375 42.875 44.328125 
Q 39.84375 48.1875 33.796875 48.1875 
Q 26.515625 48.1875 22.3125 43.546875 
Q 18.109375 38.921875 18.109375 30.90625 
L 18.109375 0 
L 9.078125 0 
L 9.078125 75.984375 
L 18.109375 75.984375 
L 18.109375 46.1875 
Q 21.34375 51.125 25.703125 53.5625 
Q 30.078125 56 35.796875 56 
Q 45.21875 56 50.046875 50.171875 
Q 54.890625 44.34375 54.890625 33.015625 
z
" id="DejaVuSans-104"/>
     <path d="M 53.515625 70.515625 
L 53.515625 60.890625 
Q 47.90625 63.578125 42.921875 64.890625 
Q 37.9375 66.21875 33.296875 66.21875 
Q 25.25 66.21875 20.875 63.09375 
Q 16.5 59.96875 16.5 54.203125 
Q 16.5 49.359375 19.40625 46.890625 
Q 22.3125 44.4375 30.421875 42.921875 
L 36.375 41.703125 
Q 47.40625 39.59375 52.65625 34.296875 
Q 57.90625 29 57.90625 20.125 
Q 57.90625 9.515625 50.796875 4.046875 
Q 43.703125 -1.421875 29.984375 -1.421875 
Q 24.8125 -1.421875 18.96875 -0.25 
Q 13.140625 0.921875 6.890625 3.21875 
L 6.890625 13.375 
Q 12.890625 10.015625 18.65625 8.296875 
Q 24.421875 6.59375 29.984375 6.59375 
Q 38.421875 6.59375 43.015625 9.90625 
Q 47.609375 13.234375 47.609375 19.390625 
Q 47.609375 24.75 44.3125 27.78125 
Q 41.015625 30.8125 33.5 32.328125 
L 27.484375 33.5 
Q 16.453125 35.6875 11.515625 40.375 
Q 6.59375 45.0625 6.59375 53.421875 
Q 6.59375 63.09375 13.40625 68.65625 
Q 20.21875 74.21875 32.171875 74.21875 
Q 37.3125 74.21875 42.625 73.28125 
Q 47.953125 72.359375 53.515625 70.515625 
z
" id="DejaVuSans-83"/>
     <path d="M 8.5 21.578125 
L 8.5 54.6875 
L 17.484375 54.6875 
L 17.484375 21.921875 
Q 17.484375 14.15625 20.5 10.265625 
Q 23.53125 6.390625 29.59375 6.390625 
Q 36.859375 6.390625 41.078125 11.03125 
Q 45.3125 15.671875 45.3125 23.6875 
L 45.3125 54.6875 
L 54.296875 54.6875 
L 54.296875 0 
L 45.3125 0 
L 45.3125 8.40625 
Q 42.046875 3.421875 37.71875 1 
Q 33.40625 -1.421875 27.6875 -1.421875 
Q 18.265625 -1.421875 13.375 4.4375 
Q 8.5 10.296875 8.5 21.578125 
z
M 31.109375 56 
z
" id="DejaVuSans-117"/>
     <path d="M 18.109375 8.203125 
L 18.109375 -20.796875 
L 9.078125 -20.796875 
L 9.078125 54.6875 
L 18.109375 54.6875 
L 18.109375 46.390625 
Q 20.953125 51.265625 25.265625 53.625 
Q 29.59375 56 35.59375 56 
Q 45.5625 56 51.78125 48.09375 
Q 58.015625 40.1875 58.015625 27.296875 
Q 58.015625 14.40625 51.78125 6.484375 
Q 45.5625 -1.421875 35.59375 -1.421875 
Q 29.59375 -1.421875 25.265625 0.953125 
Q 20.953125 3.328125 18.109375 8.203125 
z
M 48.6875 27.296875 
Q 48.6875 37.203125 44.609375 42.84375 
Q 40.53125 48.484375 33.40625 48.484375 
Q 26.265625 48.484375 22.1875 42.84375 
Q 18.109375 37.203125 18.109375 27.296875 
Q 18.109375 17.390625 22.1875 11.75 
Q 26.265625 6.109375 33.40625 6.109375 
Q 40.53125 6.109375 44.609375 11.75 
Q 48.6875 17.390625 48.6875 27.296875 
z
" id="DejaVuSans-112"/>
     <path d="M 30.609375 48.390625 
Q 23.390625 48.390625 19.1875 42.75 
Q 14.984375 37.109375 14.984375 27.296875 
Q 14.984375 17.484375 19.15625 11.84375 
Q 23.34375 6.203125 30.609375 6.203125 
Q 37.796875 6.203125 41.984375 11.859375 
Q 46.1875 17.53125 46.1875 27.296875 
Q 46.1875 37.015625 41.984375 42.703125 
Q 37.796875 48.390625 30.609375 48.390625 
z
M 30.609375 56 
Q 42.328125 56 49.015625 48.375 
Q 55.71875 40.765625 55.71875 27.296875 
Q 55.71875 13.875 49.015625 6.21875 
Q 42.328125 -1.421875 30.609375 -1.421875 
Q 18.84375 -1.421875 12.171875 6.21875 
Q 5.515625 13.875 5.515625 27.296875 
Q 5.515625 40.765625 12.171875 48.375 
Q 18.84375 56 30.609375 56 
z
" id="DejaVuSans-111"/>
     <path d="M 25.390625 72.90625 
L 33.6875 72.90625 
L 8.296875 -9.28125 
L 0 -9.28125 
z
" id="DejaVuSans-47"/>
     <path d="M 44.390625 34.1875 
Q 47.5625 33.109375 50.5625 29.59375 
Q 53.5625 26.078125 56.59375 19.921875 
L 66.609375 0 
L 56 0 
L 46.6875 18.703125 
Q 43.0625 26.03125 39.671875 28.421875 
Q 36.28125 30.8125 30.421875 30.8125 
L 19.671875 30.8125 
L 19.671875 0 
L 9.8125 0 
L 9.8125 72.90625 
L 32.078125 72.90625 
Q 44.578125 72.90625 50.734375 67.671875 
Q 56.890625 62.453125 56.890625 51.90625 
Q 56.890625 45.015625 53.6875 40.46875 
Q 50.484375 35.9375 44.390625 34.1875 
z
M 19.671875 64.796875 
L 19.671875 38.921875 
L 32.078125 38.921875 
Q 39.203125 38.921875 42.84375 42.21875 
Q 46.484375 45.515625 46.484375 51.90625 
Q 46.484375 58.296875 42.84375 61.546875 
Q 39.203125 64.796875 32.078125 64.796875 
z
" id="DejaVuSans-82"/>
     <path d="M 54.890625 33.015625 
L 54.890625 0 
L 45.90625 0 
L 45.90625 32.71875 
Q 45.90625 40.484375 42.875 44.328125 
Q 39.84375 48.1875 33.796875 48.1875 
Q 26.515625 48.1875 22.3125 43.546875 
Q 18.109375 38.921875 18.109375 30.90625 
L 18.109375 0 
L 9.078125 0 
L 9.078125 54.6875 
L 18.109375 54.6875 
L 18.109375 46.1875 
Q 21.34375 51.125 25.703125 53.5625 
Q 30.078125 56 35.796875 56 
Q 45.21875 56 50.046875 50.171875 
Q 54.890625 44.34375 54.890625 33.015625 
z
" id="DejaVuSans-110"/>
     <path d="M -0.296875 72.90625 
L 61.375 72.90625 
L 61.375 64.59375 
L 35.5 64.59375 
L 35.5 0 
L 25.59375 0 
L 25.59375 64.59375 
L -0.296875 64.59375 
z
" id="DejaVuSans-84"/>
     <path d="M 45.40625 46.390625 
L 45.40625 75.984375 
L 54.390625 75.984375 
L 54.390625 0 
L 45.40625 0 
L 45.40625 8.203125 
Q 42.578125 3.328125 38.25 0.953125 
Q 33.9375 -1.421875 27.875 -1.421875 
Q 17.96875 -1.421875 11.734375 6.484375 
Q 5.515625 14.40625 5.515625 27.296875 
Q 5.515625 40.1875 11.734375 48.09375 
Q 17.96875 56 27.875 56 
Q 33.9375 56 38.25 53.625 
Q 42.578125 51.265625 45.40625 46.390625 
z
M 14.796875 27.296875 
Q 14.796875 17.390625 18.875 11.75 
Q 22.953125 6.109375 30.078125 6.109375 
Q 37.203125 6.109375 41.296875 11.75 
Q 45.40625 17.390625 45.40625 27.296875 
Q 45.40625 37.203125 41.296875 42.84375 
Q 37.203125 48.484375 30.078125 48.484375 
Q 22.953125 48.484375 18.875 42.84375 
Q 14.796875 37.203125 14.796875 27.296875 
z
" id="DejaVuSans-100"/>
     <path d="M 9.8125 72.90625 
L 19.671875 72.90625 
L 19.671875 8.296875 
L 55.171875 8.296875 
L 55.171875 0 
L 9.8125 0 
z
" id="DejaVuSans-76"/>
    </defs>
    <g transform="translate(106.54875 35.472)scale(0.12 -0.12)">
     <use xlink:href="#DejaVuSans-80"/>
     <use x="60.287109" xlink:href="#DejaVuSans-114"/>
     <use x="101.400391" xlink:href="#DejaVuSans-105"/>
     <use x="129.183594" xlink:href="#DejaVuSans-99"/>
     <use x="184.164062" xlink:href="#DejaVuSans-101"/>
     <use x="245.6875" xlink:href="#DejaVuSans-115"/>
     <use x="297.787109" xlink:href="#DejaVuSans-32"/>
     <use x="329.574219" xlink:href="#DejaVuSans-119"/>
     <use x="411.361328" xlink:href="#DejaVuSans-105"/>
     <use x="439.144531" xlink:href="#DejaVuSans-116"/>
     <use x="478.353516" xlink:href="#DejaVuSans-104"/>
     <use x="541.732422" xlink:href="#DejaVuSans-32"/>
     <use x="573.519531" xlink:href="#DejaVuSans-83"/>
     <use x="636.996094" xlink:href="#DejaVuSans-117"/>
     <use x="700.375" xlink:href="#DejaVuSans-112"/>
     <use x="763.851562" xlink:href="#DejaVuSans-112"/>
     <use x="827.328125" xlink:href="#DejaVuSans-111"/>
     <use x="888.509766" xlink:href="#DejaVuSans-114"/>
     <use x="929.623047" xlink:href="#DejaVuSans-116"/>
     <use x="968.832031" xlink:href="#DejaVuSans-47"/>
     <use x="1002.523438" xlink:href="#DejaVuSans-82"/>
     <use x="1071.943359" xlink:href="#DejaVuSans-101"/>
     <use x="1133.466797" xlink:href="#DejaVuSans-115"/>
     <use x="1185.566406" xlink:href="#DejaVuSans-105"/>
     <use x="1213.349609" xlink:href="#DejaVuSans-115"/>
     <use x="1265.449219" xlink:href="#DejaVuSans-116"/>
     <use x="1304.658203" xlink:href="#DejaVuSans-97"/>
     <use x="1365.9375" xlink:href="#DejaVuSans-110"/>
     <use x="1429.316406" xlink:href="#DejaVuSans-99"/>
     <use x="1484.296875" xlink:href="#DejaVuSans-101"/>
     <use x="1545.820312" xlink:href="#DejaVuSans-32"/>
     <use x="1577.607422" xlink:href="#DejaVuSans-84"/>
     <use x="1638.472656" xlink:href="#DejaVuSans-114"/>
     <use x="1679.554688" xlink:href="#DejaVuSans-101"/>
     <use x="1741.078125" xlink:href="#DejaVuSans-110"/>
     <use x="1804.457031" xlink:href="#DejaVuSans-100"/>
     <use x="1867.933594" xlink:href="#DejaVuSans-32"/>
     <use x="1899.720703" xlink:href="#DejaVuSans-76"/>
     <use x="1955.433594" xlink:href="#DejaVuSans-105"/>
     <use x="1983.216797" xlink:href="#DejaVuSans-110"/>
     <use x="2046.595703" xlink:href="#DejaVuSans-101"/>
     <use x="2108.119141" xlink:href="#DejaVuSans-115"/>
    </g>
   </g>
   <g id="legend_1">
    <g id="patch_7">
     <path d="M 295.934063 122.862625 
L 407.72 122.862625 
Q 409.72 122.862625 409.72 120.862625 
L 409.72 48.472 
Q 409.72 46.472 407.72 46.472 
L 295.934063 46.472 
Q 293.934063 46.472 293.934063 48.472 
L 293.934063 120.862625 
Q 293.934063 122.862625 295.934063 122.862625 
z
" style="fill:#ffffff;opacity:0.8;stroke:#cccccc;stroke-linejoin:miter;"/>
    </g>
    <g id="line2d_35">
     <path d="M 297.934063 54.570438 
L 317.934063 54.570438 
" style="fill:none;stroke:#000000;stroke-dasharray:5.55,2.4;stroke-dashoffset:0;stroke-width:1.5;"/>
    </g>
    <g id="line2d_36"/>
    <g id="text_18">
     <!-- Close Price -->
     <defs>
      <path d="M 64.40625 67.28125 
L 64.40625 56.890625 
Q 59.421875 61.53125 53.78125 63.8125 
Q 48.140625 66.109375 41.796875 66.109375 
Q 29.296875 66.109375 22.65625 58.46875 
Q 16.015625 50.828125 16.015625 36.375 
Q 16.015625 21.96875 22.65625 14.328125 
Q 29.296875 6.6875 41.796875 6.6875 
Q 48.140625 6.6875 53.78125 8.984375 
Q 59.421875 11.28125 64.40625 15.921875 
L 64.40625 5.609375 
Q 59.234375 2.09375 53.4375 0.328125 
Q 47.65625 -1.421875 41.21875 -1.421875 
Q 24.65625 -1.421875 15.125 8.703125 
Q 5.609375 18.84375 5.609375 36.375 
Q 5.609375 53.953125 15.125 64.078125 
Q 24.65625 74.21875 41.21875 74.21875 
Q 47.75 74.21875 53.53125 72.484375 
Q 59.328125 70.75 64.40625 67.28125 
z
" id="DejaVuSans-67"/>
      <path d="M 9.421875 75.984375 
L 18.40625 75.984375 
L 18.40625 0 
L 9.421875 0 
z
" id="DejaVuSans-108"/>
     </defs>
     <g transform="translate(325.934063 58.070438)scale(0.1 -0.1)">
      <use xlink:href="#DejaVuSans-67"/>
      <use x="69.824219" xlink:href="#DejaVuSans-108"/>
      <use x="97.607422" xlink:href="#DejaVuSans-111"/>
      <use x="158.789062" xlink:href="#DejaVuSans-115"/>
      <use x="210.888672" xlink:href="#DejaVuSans-101"/>
      <use x="272.412109" xlink:href="#DejaVuSans-32"/>
      <use x="304.199219" xlink:href="#DejaVuSans-80"/>
      <use x="364.486328" xlink:href="#DejaVuSans-114"/>
      <use x="405.599609" xlink:href="#DejaVuSans-105"/>
      <use x="433.382812" xlink:href="#DejaVuSans-99"/>
      <use x="488.363281" xlink:href="#DejaVuSans-101"/>
     </g>
    </g>
    <g id="line2d_37">
     <path d="M 297.934063 69.248563 
L 317.934063 69.248563 
" style="fill:none;stroke:#bfbf00;stroke-dasharray:5.55,2.4;stroke-dashoffset:0;stroke-width:1.5;"/>
    </g>
    <g id="line2d_38"/>
    <g id="text_19">
     <!-- Avg. Support -->
     <defs>
      <path d="M 34.1875 63.1875 
L 20.796875 26.90625 
L 47.609375 26.90625 
z
M 28.609375 72.90625 
L 39.796875 72.90625 
L 67.578125 0 
L 57.328125 0 
L 50.6875 18.703125 
L 17.828125 18.703125 
L 11.1875 0 
L 0.78125 0 
z
" id="DejaVuSans-65"/>
      <path d="M 2.984375 54.6875 
L 12.5 54.6875 
L 29.59375 8.796875 
L 46.6875 54.6875 
L 56.203125 54.6875 
L 35.6875 0 
L 23.484375 0 
z
" id="DejaVuSans-118"/>
      <path d="M 45.40625 27.984375 
Q 45.40625 37.75 41.375 43.109375 
Q 37.359375 48.484375 30.078125 48.484375 
Q 22.859375 48.484375 18.828125 43.109375 
Q 14.796875 37.75 14.796875 27.984375 
Q 14.796875 18.265625 18.828125 12.890625 
Q 22.859375 7.515625 30.078125 7.515625 
Q 37.359375 7.515625 41.375 12.890625 
Q 45.40625 18.265625 45.40625 27.984375 
z
M 54.390625 6.78125 
Q 54.390625 -7.171875 48.1875 -13.984375 
Q 42 -20.796875 29.203125 -20.796875 
Q 24.46875 -20.796875 20.265625 -20.09375 
Q 16.0625 -19.390625 12.109375 -17.921875 
L 12.109375 -9.1875 
Q 16.0625 -11.328125 19.921875 -12.34375 
Q 23.78125 -13.375 27.78125 -13.375 
Q 36.625 -13.375 41.015625 -8.765625 
Q 45.40625 -4.15625 45.40625 5.171875 
L 45.40625 9.625 
Q 42.625 4.78125 38.28125 2.390625 
Q 33.9375 0 27.875 0 
Q 17.828125 0 11.671875 7.65625 
Q 5.515625 15.328125 5.515625 27.984375 
Q 5.515625 40.671875 11.671875 48.328125 
Q 17.828125 56 27.875 56 
Q 33.9375 56 38.28125 53.609375 
Q 42.625 51.21875 45.40625 46.390625 
L 45.40625 54.6875 
L 54.390625 54.6875 
z
" id="DejaVuSans-103"/>
     </defs>
     <g transform="translate(325.934063 72.748563)scale(0.1 -0.1)">
      <use xlink:href="#DejaVuSans-65"/>
      <use x="68.330078" xlink:href="#DejaVuSans-118"/>
      <use x="127.509766" xlink:href="#DejaVuSans-103"/>
      <use x="190.986328" xlink:href="#DejaVuSans-46"/>
      <use x="222.773438" xlink:href="#DejaVuSans-32"/>
      <use x="254.560547" xlink:href="#DejaVuSans-83"/>
      <use x="318.037109" xlink:href="#DejaVuSans-117"/>
      <use x="381.416016" xlink:href="#DejaVuSans-112"/>
      <use x="444.892578" xlink:href="#DejaVuSans-112"/>
      <use x="508.369141" xlink:href="#DejaVuSans-111"/>
      <use x="569.550781" xlink:href="#DejaVuSans-114"/>
      <use x="610.664062" xlink:href="#DejaVuSans-116"/>
     </g>
    </g>
    <g id="line2d_39">
     <path d="M 297.934063 83.926688 
L 317.934063 83.926688 
" style="fill:none;stroke:#0000ff;stroke-dasharray:5.55,2.4;stroke-dashoffset:0;stroke-width:1.5;"/>
    </g>
    <g id="line2d_40"/>
    <g id="text_20">
     <!-- Avg. Resistance -->
     <g transform="translate(325.934063 87.426688)scale(0.1 -0.1)">
      <use xlink:href="#DejaVuSans-65"/>
      <use x="68.330078" xlink:href="#DejaVuSans-118"/>
      <use x="127.509766" xlink:href="#DejaVuSans-103"/>
      <use x="190.986328" xlink:href="#DejaVuSans-46"/>
      <use x="222.773438" xlink:href="#DejaVuSans-32"/>
      <use x="254.560547" xlink:href="#DejaVuSans-82"/>
      <use x="323.980469" xlink:href="#DejaVuSans-101"/>
      <use x="385.503906" xlink:href="#DejaVuSans-115"/>
      <use x="437.603516" xlink:href="#DejaVuSans-105"/>
      <use x="465.386719" xlink:href="#DejaVuSans-115"/>
      <use x="517.486328" xlink:href="#DejaVuSans-116"/>
      <use x="556.695312" xlink:href="#DejaVuSans-97"/>
      <use x="617.974609" xlink:href="#DejaVuSans-110"/>
      <use x="681.353516" xlink:href="#DejaVuSans-99"/>
      <use x="736.333984" xlink:href="#DejaVuSans-101"/>
     </g>
    </g>
    <g id="line2d_41">
     <path d="M 297.934063 98.604813 
L 317.934063 98.604813 
" style="fill:none;stroke:#008000;stroke-dasharray:5.55,2.4;stroke-dashoffset:0;stroke-width:1.5;"/>
    </g>
    <g id="line2d_42"/>
    <g id="text_21">
     <!-- Support -->
     <g transform="translate(325.934063 102.104813)scale(0.1 -0.1)">
      <use xlink:href="#DejaVuSans-83"/>
      <use x="63.476562" xlink:href="#DejaVuSans-117"/>
      <use x="126.855469" xlink:href="#DejaVuSans-112"/>
      <use x="190.332031" xlink:href="#DejaVuSans-112"/>
      <use x="253.808594" xlink:href="#DejaVuSans-111"/>
      <use x="314.990234" xlink:href="#DejaVuSans-114"/>
      <use x="356.103516" xlink:href="#DejaVuSans-116"/>
     </g>
    </g>
    <g id="line2d_43">
     <path d="M 297.934063 113.282938 
L 317.934063 113.282938 
" style="fill:none;stroke:#ff0000;stroke-dasharray:5.55,2.4;stroke-dashoffset:0;stroke-width:1.5;"/>
    </g>
    <g id="line2d_44"/>
    <g id="text_22">
     <!-- Resistance -->
     <g transform="translate(325.934063 116.782938)scale(0.1 -0.1)">
      <use xlink:href="#DejaVuSans-82"/>
      <use x="69.419922" xlink:href="#DejaVuSans-101"/>
      <use x="130.943359" xlink:href="#DejaVuSans-115"/>
      <use x="183.042969" xlink:href="#DejaVuSans-105"/>
      <use x="210.826172" xlink:href="#DejaVuSans-115"/>
      <use x="262.925781" xlink:href="#DejaVuSans-116"/>
      <use x="302.134766" xlink:href="#DejaVuSans-97"/>
      <use x="363.414062" xlink:href="#DejaVuSans-110"/>
      <use x="426.792969" xlink:href="#DejaVuSans-99"/>
      <use x="481.773438" xlink:href="#DejaVuSans-101"/>
     </g>
    </g>
   </g>
  </g>
 </g>
 <defs>
  <clipPath id="p3815365d1d">
   <rect height="266.112" width="357.12" x="57.6" y="41.472"/>
  </clipPath>
 </defs>
</svg>
