<?xml version="1.0" encoding="utf-8" standalone="no"?>
<!DOCTYPE svg PUBLIC "-//W3C//DTD SVG 1.1//EN"
  "http://www.w3.org/Graphics/SVG/1.1/DTD/svg11.dtd">
<!-- Created with matplotlib (https://matplotlib.org/) -->
<svg height="345.6pt" version="1.1" viewBox="0 0 460.8 345.6" width="460.8pt" xmlns="http://www.w3.org/2000/svg" xmlns:xlink="http://www.w3.org/1999/xlink">
 <defs>
  <style type="text/css">
*{stroke-linecap:butt;stroke-linejoin:round;}
  </style>
 </defs>
 <g id="figure_1">
  <g id="patch_1">
   <path d="M 0 345.6 
L 460.8 345.6 
L 460.8 0 
L 0 0 
z
" style="fill:#ffffff;"/>
  </g>
  <g id="axes_1">
   <g id="patch_2">
    <path d="M 57.6 307.584 
L 414.72 307.584 
L 414.72 41.472 
L 57.6 41.472 
z
" style="fill:#ffffff;"/>
   </g>
   <g id="matplotlib.axis_1">
    <g id="xtick_1">
     <g id="line2d_1">
      <defs>
       <path d="M 0 0 
L 0 3.5 
" id="m35bafa7902" style="stroke:#000000;stroke-width:0.8;"/>
      </defs>
      <g>
       <use style="stroke:#000000;stroke-width:0.8;" x="73.832727" xlink:href="#m35bafa7902" y="307.584"/>
      </g>
     </g>
     <g id="text_1">
      <!-- 0 -->
      <defs>
       <path d="M 31.78125 66.40625 
Q 24.171875 66.40625 20.328125 58.90625 
Q 16.5 51.421875 16.5 36.375 
Q 16.5 21.390625 20.328125 13.890625 
Q 24.171875 6.390625 31.78125 6.390625 
Q 39.453125 6.390625 43.28125 13.890625 
Q 47.125 21.390625 47.125 36.375 
Q 47.125 51.421875 43.28125 58.90625 
Q 39.453125 66.40625 31.78125 66.40625 
z
M 31.78125 74.21875 
Q 44.046875 74.21875 50.515625 64.515625 
Q 56.984375 54.828125 56.984375 36.375 
Q 56.984375 17.96875 50.515625 8.265625 
Q 44.046875 -1.421875 31.78125 -1.421875 
Q 19.53125 -1.421875 13.0625 8.265625 
Q 6.59375 17.96875 6.59375 36.375 
Q 6.59375 54.828125 13.0625 64.515625 
Q 19.53125 74.21875 31.78125 74.21875 
z
" id="DejaVuSans-48"/>
      </defs>
      <g transform="translate(67.282797 324.34569)rotate(-30)scale(0.1 -0.1)">
       <use xlink:href="#DejaVuSans-48"/>
      </g>
     </g>
    </g>
    <g id="xtick_2">
     <g id="line2d_2">
      <g>
       <use style="stroke:#000000;stroke-width:0.8;" x="138.763636" xlink:href="#m35bafa7902" y="307.584"/>
      </g>
     </g>
     <g id="text_2">
      <!-- 100 -->
      <defs>
       <path d="M 12.40625 8.296875 
L 28.515625 8.296875 
L 28.515625 63.921875 
L 10.984375 60.40625 
L 10.984375 69.390625 
L 28.421875 72.90625 
L 38.28125 72.90625 
L 38.28125 8.296875 
L 54.390625 8.296875 
L 54.390625 0 
L 12.40625 0 
z
" id="DejaVuSans-49"/>
      </defs>
      <g transform="translate(121.193533 330.70819)rotate(-30)scale(0.1 -0.1)">
       <use xlink:href="#DejaVuSans-49"/>
       <use x="63.623047" xlink:href="#DejaVuSans-48"/>
       <use x="127.246094" xlink:href="#DejaVuSans-48"/>
      </g>
     </g>
    </g>
    <g id="xtick_3">
     <g id="line2d_3">
      <g>
       <use style="stroke:#000000;stroke-width:0.8;" x="203.694545" xlink:href="#m35bafa7902" y="307.584"/>
      </g>
     </g>
     <g id="text_3">
      <!-- 200 -->
      <defs>
       <path d="M 19.1875 8.296875 
L 53.609375 8.296875 
L 53.609375 0 
L 7.328125 0 
L 7.328125 8.296875 
Q 12.9375 14.109375 22.625 23.890625 
Q 32.328125 33.6875 34.8125 36.53125 
Q 39.546875 41.84375 41.421875 45.53125 
Q 43.3125 49.21875 43.3125 52.78125 
Q 43.3125 58.59375 39.234375 62.25 
Q 35.15625 65.921875 28.609375 65.921875 
Q 23.96875 65.921875 18.8125 64.3125 
Q 13.671875 62.703125 7.8125 59.421875 
L 7.8125 69.390625 
Q 13.765625 71.78125 18.9375 73 
Q 24.125 74.21875 28.421875 74.21875 
Q 39.75 74.21875 46.484375 68.546875 
Q 53.21875 62.890625 53.21875 53.421875 
Q 53.21875 48.921875 51.53125 44.890625 
Q 49.859375 40.875 45.40625 35.40625 
Q 44.1875 33.984375 37.640625 27.21875 
Q 31.109375 20.453125 19.1875 8.296875 
z
" id="DejaVuSans-50"/>
      </defs>
      <g transform="translate(186.124442 330.70819)rotate(-30)scale(0.1 -0.1)">
       <use xlink:href="#DejaVuSans-50"/>
       <use x="63.623047" xlink:href="#DejaVuSans-48"/>
       <use x="127.246094" xlink:href="#DejaVuSans-48"/>
      </g>
     </g>
    </g>
    <g id="xtick_4">
     <g id="line2d_4">
      <g>
       <use style="stroke:#000000;stroke-width:0.8;" x="268.625455" xlink:href="#m35bafa7902" y="307.584"/>
      </g>
     </g>
     <g id="text_4">
      <!-- 300 -->
      <defs>
       <path d="M 40.578125 39.3125 
Q 47.65625 37.796875 51.625 33 
Q 55.609375 28.21875 55.609375 21.1875 
Q 55.609375 10.40625 48.1875 4.484375 
Q 40.765625 -1.421875 27.09375 -1.421875 
Q 22.515625 -1.421875 17.65625 -0.515625 
Q 12.796875 0.390625 7.625 2.203125 
L 7.625 11.71875 
Q 11.71875 9.328125 16.59375 8.109375 
Q 21.484375 6.890625 26.8125 6.890625 
Q 36.078125 6.890625 40.9375 10.546875 
Q 45.796875 14.203125 45.796875 21.1875 
Q 45.796875 27.640625 41.28125 31.265625 
Q 36.765625 34.90625 28.71875 34.90625 
L 20.21875 34.90625 
L 20.21875 43.015625 
L 29.109375 43.015625 
Q 36.375 43.015625 40.234375 45.921875 
Q 44.09375 48.828125 44.09375 54.296875 
Q 44.09375 59.90625 40.109375 62.90625 
Q 36.140625 65.921875 28.71875 65.921875 
Q 24.65625 65.921875 20.015625 65.03125 
Q 15.375 64.15625 9.8125 62.3125 
L 9.8125 71.09375 
Q 15.4375 72.65625 20.34375 73.4375 
Q 25.25 74.21875 29.59375 74.21875 
Q 40.828125 74.21875 47.359375 69.109375 
Q 53.90625 64.015625 53.90625 55.328125 
Q 53.90625 49.265625 50.4375 45.09375 
Q 46.96875 40.921875 40.578125 39.3125 
z
" id="DejaVuSans-51"/>
      </defs>
      <g transform="translate(251.055351 330.70819)rotate(-30)scale(0.1 -0.1)">
       <use xlink:href="#DejaVuSans-51"/>
       <use x="63.623047" xlink:href="#DejaVuSans-48"/>
       <use x="127.246094" xlink:href="#DejaVuSans-48"/>
      </g>
     </g>
    </g>
    <g id="xtick_5">
     <g id="line2d_5">
      <g>
       <use style="stroke:#000000;stroke-width:0.8;" x="333.556364" xlink:href="#m35bafa7902" y="307.584"/>
      </g>
     </g>
     <g id="text_5">
      <!-- 400 -->
      <defs>
       <path d="M 37.796875 64.3125 
L 12.890625 25.390625 
L 37.796875 25.390625 
z
M 35.203125 72.90625 
L 47.609375 72.90625 
L 47.609375 25.390625 
L 58.015625 25.390625 
L 58.015625 17.1875 
L 47.609375 17.1875 
L 47.609375 0 
L 37.796875 0 
L 37.796875 17.1875 
L 4.890625 17.1875 
L 4.890625 26.703125 
z
" id="DejaVuSans-52"/>
      </defs>
      <g transform="translate(315.98626 330.70819)rotate(-30)scale(0.1 -0.1)">
       <use xlink:href="#DejaVuSans-52"/>
       <use x="63.623047" xlink:href="#DejaVuSans-48"/>
       <use x="127.246094" xlink:href="#DejaVuSans-48"/>
      </g>
     </g>
    </g>
    <g id="xtick_6">
     <g id="line2d_6">
      <g>
       <use style="stroke:#000000;stroke-width:0.8;" x="398.487273" xlink:href="#m35bafa7902" y="307.584"/>
      </g>
     </g>
     <g id="text_6">
      <!-- 500 -->
      <defs>
       <path d="M 10.796875 72.90625 
L 49.515625 72.90625 
L 49.515625 64.59375 
L 19.828125 64.59375 
L 19.828125 46.734375 
Q 21.96875 47.46875 24.109375 47.828125 
Q 26.265625 48.1875 28.421875 48.1875 
Q 40.625 48.1875 47.75 41.5 
Q 54.890625 34.8125 54.890625 23.390625 
Q 54.890625 11.625 47.5625 5.09375 
Q 40.234375 -1.421875 26.90625 -1.421875 
Q 22.3125 -1.421875 17.546875 -0.640625 
Q 12.796875 0.140625 7.71875 1.703125 
L 7.71875 11.625 
Q 12.109375 9.234375 16.796875 8.0625 
Q 21.484375 6.890625 26.703125 6.890625 
Q 35.15625 6.890625 40.078125 11.328125 
Q 45.015625 15.765625 45.015625 23.390625 
Q 45.015625 31 40.078125 35.4375 
Q 35.15625 39.890625 26.703125 39.890625 
Q 22.75 39.890625 18.8125 39.015625 
Q 14.890625 38.140625 10.796875 36.28125 
z
" id="DejaVuSans-53"/>
      </defs>
      <g transform="translate(380.917169 330.70819)rotate(-30)scale(0.1 -0.1)">
       <use xlink:href="#DejaVuSans-53"/>
       <use x="63.623047" xlink:href="#DejaVuSans-48"/>
       <use x="127.246094" xlink:href="#DejaVuSans-48"/>
      </g>
     </g>
    </g>
    <g id="text_7">
     <!-- Date -->
     <defs>
      <path d="M 19.671875 64.796875 
L 19.671875 8.109375 
L 31.59375 8.109375 
Q 46.6875 8.109375 53.6875 14.9375 
Q 60.6875 21.78125 60.6875 36.53125 
Q 60.6875 51.171875 53.6875 57.984375 
Q 46.6875 64.796875 31.59375 64.796875 
z
M 9.8125 72.90625 
L 30.078125 72.90625 
Q 51.265625 72.90625 61.171875 64.09375 
Q 71.09375 55.28125 71.09375 36.53125 
Q 71.09375 17.671875 61.125 8.828125 
Q 51.171875 0 30.078125 0 
L 9.8125 0 
z
" id="DejaVuSans-68"/>
      <path d="M 34.28125 27.484375 
Q 23.390625 27.484375 19.1875 25 
Q 14.984375 22.515625 14.984375 16.5 
Q 14.984375 11.71875 18.140625 8.90625 
Q 21.296875 6.109375 26.703125 6.109375 
Q 34.1875 6.109375 38.703125 11.40625 
Q 43.21875 16.703125 43.21875 25.484375 
L 43.21875 27.484375 
z
M 52.203125 31.203125 
L 52.203125 0 
L 43.21875 0 
L 43.21875 8.296875 
Q 40.140625 3.328125 35.546875 0.953125 
Q 30.953125 -1.421875 24.3125 -1.421875 
Q 15.921875 -1.421875 10.953125 3.296875 
Q 6 8.015625 6 15.921875 
Q 6 25.140625 12.171875 29.828125 
Q 18.359375 34.515625 30.609375 34.515625 
L 43.21875 34.515625 
L 43.21875 35.40625 
Q 43.21875 41.609375 39.140625 45 
Q 35.0625 48.390625 27.6875 48.390625 
Q 23 48.390625 18.546875 47.265625 
Q 14.109375 46.140625 10.015625 43.890625 
L 10.015625 52.203125 
Q 14.9375 54.109375 19.578125 55.046875 
Q 24.21875 56 28.609375 56 
Q 40.484375 56 46.34375 49.84375 
Q 52.203125 43.703125 52.203125 31.203125 
z
" id="DejaVuSans-97"/>
      <path d="M 18.3125 70.21875 
L 18.3125 54.6875 
L 36.8125 54.6875 
L 36.8125 47.703125 
L 18.3125 47.703125 
L 18.3125 18.015625 
Q 18.3125 11.328125 20.140625 9.421875 
Q 21.96875 7.515625 27.59375 7.515625 
L 36.8125 7.515625 
L 36.8125 0 
L 27.59375 0 
Q 17.1875 0 13.234375 3.875 
Q 9.28125 7.765625 9.28125 18.015625 
L 9.28125 47.703125 
L 2.6875 47.703125 
L 2.6875 54.6875 
L 9.28125 54.6875 
L 9.28125 70.21875 
z
" id="DejaVuSans-116"/>
      <path d="M 56.203125 29.59375 
L 56.203125 25.203125 
L 14.890625 25.203125 
Q 15.484375 15.921875 20.484375 11.0625 
Q 25.484375 6.203125 34.421875 6.203125 
Q 39.59375 6.203125 44.453125 7.46875 
Q 49.3125 8.734375 54.109375 11.28125 
L 54.109375 2.78125 
Q 49.265625 0.734375 44.1875 -0.34375 
Q 39.109375 -1.421875 33.890625 -1.421875 
Q 20.796875 -1.421875 13.15625 6.1875 
Q 5.515625 13.8125 5.515625 26.8125 
Q 5.515625 40.234375 12.765625 48.109375 
Q 20.015625 56 32.328125 56 
Q 43.359375 56 49.78125 48.890625 
Q 56.203125 41.796875 56.203125 29.59375 
z
M 47.21875 32.234375 
Q 47.125 39.59375 43.09375 43.984375 
Q 39.0625 48.390625 32.421875 48.390625 
Q 24.90625 48.390625 20.390625 44.140625 
Q 15.875 39.890625 15.1875 32.171875 
z
" id="DejaVuSans-101"/>
     </defs>
     <g transform="translate(224.209219 344.10769)scale(0.1 -0.1)">
      <use xlink:href="#DejaVuSans-68"/>
      <use x="77.001953" xlink:href="#DejaVuSans-97"/>
      <use x="138.28125" xlink:href="#DejaVuSans-116"/>
      <use x="177.490234" xlink:href="#DejaVuSans-101"/>
     </g>
    </g>
   </g>
   <g id="matplotlib.axis_2">
    <g id="ytick_1">
     <g id="line2d_7">
      <defs>
       <path d="M 0 0 
L -3.5 0 
" id="mf68d871094" style="stroke:#000000;stroke-width:0.8;"/>
      </defs>
      <g>
       <use style="stroke:#000000;stroke-width:0.8;" x="57.6" xlink:href="#mf68d871094" y="281.959155"/>
      </g>
     </g>
     <g id="text_8">
      <!-- 0.6500 -->
      <defs>
       <path d="M 10.6875 12.40625 
L 21 12.40625 
L 21 0 
L 10.6875 0 
z
" id="DejaVuSans-46"/>
       <path d="M 33.015625 40.375 
Q 26.375 40.375 22.484375 35.828125 
Q 18.609375 31.296875 18.609375 23.390625 
Q 18.609375 15.53125 22.484375 10.953125 
Q 26.375 6.390625 33.015625 6.390625 
Q 39.65625 6.390625 43.53125 10.953125 
Q 47.40625 15.53125 47.40625 23.390625 
Q 47.40625 31.296875 43.53125 35.828125 
Q 39.65625 40.375 33.015625 40.375 
z
M 52.59375 71.296875 
L 52.59375 62.3125 
Q 48.875 64.0625 45.09375 64.984375 
Q 41.3125 65.921875 37.59375 65.921875 
Q 27.828125 65.921875 22.671875 59.328125 
Q 17.53125 52.734375 16.796875 39.40625 
Q 19.671875 43.65625 24.015625 45.921875 
Q 28.375 48.1875 33.59375 48.1875 
Q 44.578125 48.1875 50.953125 41.515625 
Q 57.328125 34.859375 57.328125 23.390625 
Q 57.328125 12.15625 50.6875 5.359375 
Q 44.046875 -1.421875 33.015625 -1.421875 
Q 20.359375 -1.421875 13.671875 8.265625 
Q 6.984375 17.96875 6.984375 36.375 
Q 6.984375 53.65625 15.1875 63.9375 
Q 23.390625 74.21875 37.203125 74.21875 
Q 40.921875 74.21875 44.703125 73.484375 
Q 48.484375 72.75 52.59375 71.296875 
z
" id="DejaVuSans-54"/>
      </defs>
      <g transform="translate(15.609375 285.758374)scale(0.1 -0.1)">
       <use xlink:href="#DejaVuSans-48"/>
       <use x="63.623047" xlink:href="#DejaVuSans-46"/>
       <use x="95.410156" xlink:href="#DejaVuSans-54"/>
       <use x="159.033203" xlink:href="#DejaVuSans-53"/>
       <use x="222.65625" xlink:href="#DejaVuSans-48"/>
       <use x="286.279297" xlink:href="#DejaVuSans-48"/>
      </g>
     </g>
    </g>
    <g id="ytick_2">
     <g id="line2d_8">
      <g>
       <use style="stroke:#000000;stroke-width:0.8;" x="57.6" xlink:href="#mf68d871094" y="250.655543"/>
      </g>
     </g>
     <g id="text_9">
      <!-- 0.6525 -->
      <g transform="translate(15.609375 254.454761)scale(0.1 -0.1)">
       <use xlink:href="#DejaVuSans-48"/>
       <use x="63.623047" xlink:href="#DejaVuSans-46"/>
       <use x="95.410156" xlink:href="#DejaVuSans-54"/>
       <use x="159.033203" xlink:href="#DejaVuSans-53"/>
       <use x="222.65625" xlink:href="#DejaVuSans-50"/>
       <use x="286.279297" xlink:href="#DejaVuSans-53"/>
      </g>
     </g>
    </g>
    <g id="ytick_3">
     <g id="line2d_9">
      <g>
       <use style="stroke:#000000;stroke-width:0.8;" x="57.6" xlink:href="#mf68d871094" y="219.35193"/>
      </g>
     </g>
     <g id="text_10">
      <!-- 0.6550 -->
      <g transform="translate(15.609375 223.151149)scale(0.1 -0.1)">
       <use xlink:href="#DejaVuSans-48"/>
       <use x="63.623047" xlink:href="#DejaVuSans-46"/>
       <use x="95.410156" xlink:href="#DejaVuSans-54"/>
       <use x="159.033203" xlink:href="#DejaVuSans-53"/>
       <use x="222.65625" xlink:href="#DejaVuSans-53"/>
       <use x="286.279297" xlink:href="#DejaVuSans-48"/>
      </g>
     </g>
    </g>
    <g id="ytick_4">
     <g id="line2d_10">
      <g>
       <use style="stroke:#000000;stroke-width:0.8;" x="57.6" xlink:href="#mf68d871094" y="188.048318"/>
      </g>
     </g>
     <g id="text_11">
      <!-- 0.6575 -->
      <defs>
       <path d="M 8.203125 72.90625 
L 55.078125 72.90625 
L 55.078125 68.703125 
L 28.609375 0 
L 18.3125 0 
L 43.21875 64.59375 
L 8.203125 64.59375 
z
" id="DejaVuSans-55"/>
      </defs>
      <g transform="translate(15.609375 191.847537)scale(0.1 -0.1)">
       <use xlink:href="#DejaVuSans-48"/>
       <use x="63.623047" xlink:href="#DejaVuSans-46"/>
       <use x="95.410156" xlink:href="#DejaVuSans-54"/>
       <use x="159.033203" xlink:href="#DejaVuSans-53"/>
       <use x="222.65625" xlink:href="#DejaVuSans-55"/>
       <use x="286.279297" xlink:href="#DejaVuSans-53"/>
      </g>
     </g>
    </g>
    <g id="ytick_5">
     <g id="line2d_11">
      <g>
       <use style="stroke:#000000;stroke-width:0.8;" x="57.6" xlink:href="#mf68d871094" y="156.744706"/>
      </g>
     </g>
     <g id="text_12">
      <!-- 0.6600 -->
      <g transform="translate(15.609375 160.543925)scale(0.1 -0.1)">
       <use xlink:href="#DejaVuSans-48"/>
       <use x="63.623047" xlink:href="#DejaVuSans-46"/>
       <use x="95.410156" xlink:href="#DejaVuSans-54"/>
       <use x="159.033203" xlink:href="#DejaVuSans-54"/>
       <use x="222.65625" xlink:href="#DejaVuSans-48"/>
       <use x="286.279297" xlink:href="#DejaVuSans-48"/>
      </g>
     </g>
    </g>
    <g id="ytick_6">
     <g id="line2d_12">
      <g>
       <use style="stroke:#000000;stroke-width:0.8;" x="57.6" xlink:href="#mf68d871094" y="125.441094"/>
      </g>
     </g>
     <g id="text_13">
      <!-- 0.6625 -->
      <g transform="translate(15.609375 129.240312)scale(0.1 -0.1)">
       <use xlink:href="#DejaVuSans-48"/>
       <use x="63.623047" xlink:href="#DejaVuSans-46"/>
       <use x="95.410156" xlink:href="#DejaVuSans-54"/>
       <use x="159.033203" xlink:href="#DejaVuSans-54"/>
       <use x="222.65625" xlink:href="#DejaVuSans-50"/>
       <use x="286.279297" xlink:href="#DejaVuSans-53"/>
      </g>
     </g>
    </g>
    <g id="ytick_7">
     <g id="line2d_13">
      <g>
       <use style="stroke:#000000;stroke-width:0.8;" x="57.6" xlink:href="#mf68d871094" y="94.137481"/>
      </g>
     </g>
     <g id="text_14">
      <!-- 0.6650 -->
      <g transform="translate(15.609375 97.9367)scale(0.1 -0.1)">
       <use xlink:href="#DejaVuSans-48"/>
       <use x="63.623047" xlink:href="#DejaVuSans-46"/>
       <use x="95.410156" xlink:href="#DejaVuSans-54"/>
       <use x="159.033203" xlink:href="#DejaVuSans-54"/>
       <use x="222.65625" xlink:href="#DejaVuSans-53"/>
       <use x="286.279297" xlink:href="#DejaVuSans-48"/>
      </g>
     </g>
    </g>
    <g id="ytick_8">
     <g id="line2d_14">
      <g>
       <use style="stroke:#000000;stroke-width:0.8;" x="57.6" xlink:href="#mf68d871094" y="62.833869"/>
      </g>
     </g>
     <g id="text_15">
      <!-- 0.6675 -->
      <g transform="translate(15.609375 66.633088)scale(0.1 -0.1)">
       <use xlink:href="#DejaVuSans-48"/>
       <use x="63.623047" xlink:href="#DejaVuSans-46"/>
       <use x="95.410156" xlink:href="#DejaVuSans-54"/>
       <use x="159.033203" xlink:href="#DejaVuSans-54"/>
       <use x="222.65625" xlink:href="#DejaVuSans-55"/>
       <use x="286.279297" xlink:href="#DejaVuSans-53"/>
      </g>
     </g>
    </g>
    <g id="text_16">
     <!-- Price -->
     <defs>
      <path d="M 19.671875 64.796875 
L 19.671875 37.40625 
L 32.078125 37.40625 
Q 38.96875 37.40625 42.71875 40.96875 
Q 46.484375 44.53125 46.484375 51.125 
Q 46.484375 57.671875 42.71875 61.234375 
Q 38.96875 64.796875 32.078125 64.796875 
z
M 9.8125 72.90625 
L 32.078125 72.90625 
Q 44.34375 72.90625 50.609375 67.359375 
Q 56.890625 61.8125 56.890625 51.125 
Q 56.890625 40.328125 50.609375 34.8125 
Q 44.34375 29.296875 32.078125 29.296875 
L 19.671875 29.296875 
L 19.671875 0 
L 9.8125 0 
z
" id="DejaVuSans-80"/>
      <path d="M 41.109375 46.296875 
Q 39.59375 47.171875 37.8125 47.578125 
Q 36.03125 48 33.890625 48 
Q 26.265625 48 22.1875 43.046875 
Q 18.109375 38.09375 18.109375 28.8125 
L 18.109375 0 
L 9.078125 0 
L 9.078125 54.6875 
L 18.109375 54.6875 
L 18.109375 46.1875 
Q 20.953125 51.171875 25.484375 53.578125 
Q 30.03125 56 36.53125 56 
Q 37.453125 56 38.578125 55.875 
Q 39.703125 55.765625 41.0625 55.515625 
z
" id="DejaVuSans-114"/>
      <path d="M 9.421875 54.6875 
L 18.40625 54.6875 
L 18.40625 0 
L 9.421875 0 
z
M 9.421875 75.984375 
L 18.40625 75.984375 
L 18.40625 64.59375 
L 9.421875 64.59375 
z
" id="DejaVuSans-105"/>
      <path d="M 48.78125 52.59375 
L 48.78125 44.1875 
Q 44.96875 46.296875 41.140625 47.34375 
Q 37.3125 48.390625 33.40625 48.390625 
Q 24.65625 48.390625 19.8125 42.84375 
Q 14.984375 37.3125 14.984375 27.296875 
Q 14.984375 17.28125 19.8125 11.734375 
Q 24.65625 6.203125 33.40625 6.203125 
Q 37.3125 6.203125 41.140625 7.25 
Q 44.96875 8.296875 48.78125 10.40625 
L 48.78125 2.09375 
Q 45.015625 0.34375 40.984375 -0.53125 
Q 36.96875 -1.421875 32.421875 -1.421875 
Q 20.0625 -1.421875 12.78125 6.34375 
Q 5.515625 14.109375 5.515625 27.296875 
Q 5.515625 40.671875 12.859375 48.328125 
Q 20.21875 56 33.015625 56 
Q 37.15625 56 41.109375 55.140625 
Q 45.0625 54.296875 48.78125 52.59375 
z
" id="DejaVuSans-99"/>
     </defs>
     <g transform="translate(9.529687 186.812375)rotate(-90)scale(0.1 -0.1)">
      <use xlink:href="#DejaVuSans-80"/>
      <use x="60.287109" xlink:href="#DejaVuSans-114"/>
      <use x="101.400391" xlink:href="#DejaVuSans-105"/>
      <use x="129.183594" xlink:href="#DejaVuSans-99"/>
      <use x="184.164062" xlink:href="#DejaVuSans-101"/>
     </g>
    </g>
   </g>
   <g id="line2d_15">
    <path clip-path="url(#p137885cadf)" d="M 73.832727 230.87166 
L 74.482036 234.628093 
L 75.131345 231.873375 
L 75.780655 242.266175 
L 76.429964 246.64868 
L 77.079273 245.646965 
L 77.728582 230.496016 
L 78.377891 233.375949 
L 79.0272 221.230147 
L 79.676509 223.484007 
L 80.325818 227.365655 
L 80.975127 227.115226 
L 81.624436 233.000305 
L 82.273745 234.127235 
L 82.923055 234.127235 
L 83.572364 242.641818 
L 84.221673 232.374233 
L 84.870982 231.372518 
L 85.520291 230.621231 
L 86.1696 230.621231 
L 86.818909 225.863082 
L 87.468218 229.369086 
L 88.117527 236.255881 
L 88.766836 235.128951 
L 89.416145 226.864797 
L 90.065455 221.856219 
L 90.714764 221.355362 
L 91.364073 215.845926 
L 92.013382 211.588635 
L 92.662691 210.837348 
L 93.312 208.333059 
L 93.961309 208.08263 
L 94.610618 199.818476 
L 95.259927 198.315903 
L 95.909236 191.929966 
L 96.558545 196.312472 
L 97.207855 204.200982 
L 97.857164 181.286738 
L 98.506473 193.307325 
L 99.155782 200.569763 
L 99.805091 198.441117 
L 100.4544 210.211276 
L 101.103709 234.25245 
L 101.753018 237.883669 
L 102.402327 236.255881 
L 103.051636 233.250734 
L 103.700945 240.888816 
L 104.350255 240.387958 
L 104.999564 234.127235 
L 105.648873 236.881953 
L 106.298182 235.128951 
L 106.947491 225.863082 
L 107.5968 232.123804 
L 108.246109 235.755023 
L 108.895418 257.166694 
L 109.544727 251.406829 
L 110.194036 242.14096 
L 111.492655 230.87166 
L 112.141964 245.646965 
L 112.791273 245.646965 
L 113.440582 230.120373 
L 114.089891 230.370802 
L 114.7392 233.12552 
L 115.388509 225.362224 
L 116.037818 226.739583 
L 116.687127 211.588635 
L 117.336436 211.087777 
L 117.985745 212.089492 
L 118.635055 202.072336 
L 119.284364 200.569763 
L 120.582982 171.77044 
L 121.232291 177.905948 
L 121.8816 187.54746 
L 122.530909 181.787596 
L 123.180218 179.784165 
L 123.829527 194.55947 
L 124.478836 198.566332 
L 125.128145 192.180395 
L 125.777455 182.538882 
L 126.426764 155.242133 
L 127.076073 140.592042 
L 127.725382 131.451387 
L 128.374691 135.708679 
L 129.024 122.435947 
L 129.673309 144.47369 
L 130.322618 144.974548 
L 130.971927 141.969401 
L 131.621236 134.957392 
L 132.270545 133.705247 
L 132.919855 134.33132 
L 133.569164 130.574886 
L 134.218473 138.087753 
L 134.867782 136.835609 
L 135.517091 141.969401 
L 136.1664 142.720688 
L 136.815709 147.228408 
L 137.465018 142.21983 
L 138.114327 143.096331 
L 138.763636 140.592042 
L 139.412945 147.478837 
L 140.062255 150.483984 
L 140.711564 158.748137 
L 141.360873 162.755 
L 142.010182 159.875067 
L 142.659491 151.23527 
L 143.3088 153.48913 
L 143.958109 147.228408 
L 144.607418 151.986557 
L 145.256727 143.471974 
L 145.906036 165.259288 
L 146.555345 178.031162 
L 147.204655 176.27816 
L 147.853964 166.010575 
L 148.503273 163.631501 
L 149.152582 171.019153 
L 150.4512 164.007144 
L 151.100509 156.995135 
L 151.749818 152.236986 
L 152.399127 152.737844 
L 153.048436 154.240417 
L 153.697745 156.494277 
L 154.347055 157.99685 
L 154.996364 154.991704 
L 155.645673 155.492561 
L 157.5936 185.794458 
L 158.242909 191.679537 
L 158.892218 200.820192 
L 159.541527 202.072336 
L 160.190836 202.823623 
L 160.840145 199.568048 
L 161.489455 197.063759 
L 162.788073 194.684684 
L 163.437382 195.310756 
L 164.086691 200.068905 
L 164.736 193.056896 
L 165.385309 196.437686 
L 166.034618 191.804752 
L 166.683927 194.309041 
L 167.333236 206.079199 
L 167.982545 208.708702 
L 168.631855 203.324481 
L 169.281164 207.456558 
L 170.579782 199.06719 
L 171.229091 199.192404 
L 171.8784 191.053465 
L 173.177018 199.568048 
L 173.826327 199.192404 
L 174.475636 196.81333 
L 175.124945 189.676106 
L 175.774255 173.273013 
L 176.423564 181.036309 
L 177.072873 178.031162 
L 177.722182 171.269582 
L 179.0208 174.149514 
L 179.670109 171.77044 
L 180.319418 166.511433 
L 180.968727 168.514864 
L 181.618036 165.634932 
L 182.267345 161.753284 
L 182.916655 167.26272 
L 183.565964 165.384503 
L 184.215273 165.760146 
L 184.864582 165.259288 
L 185.513891 142.094615 
L 186.1632 149.732697 
L 186.812509 141.969401 
L 187.461818 130.199243 
L 188.760436 112.919649 
L 189.409745 95.890484 
L 190.059055 87.62633 
L 190.708364 80.86475 
L 191.357673 91.382764 
L 192.006982 104.405066 
L 192.656291 106.408497 
L 193.3056 92.634908 
L 193.954909 74.604027 
L 194.604218 100.022561 
L 195.253527 91.382764 
L 195.902836 88.878475 
L 196.552145 87.125472 
L 197.201455 85.998542 
L 197.850764 99.271274 
L 198.500073 92.008836 
L 199.798691 87.62633 
L 200.448 88.628046 
L 201.097309 74.353599 
L 201.746618 73.351883 
L 202.395927 95.640055 
L 203.045236 84.370754 
L 203.694545 63.835585 
L 204.343855 63.585156 
L 204.993164 53.568 
L 205.642473 64.8373 
L 206.291782 92.509694 
L 206.941091 110.290145 
L 207.5904 108.286714 
L 208.239709 107.410213 
L 208.889018 112.66922 
L 209.538327 108.912786 
L 210.187636 108.662358 
L 210.836945 108.912786 
L 211.486255 114.92308 
L 212.135564 112.168362 
L 212.784873 111.166647 
L 213.434182 114.297008 
L 214.083491 116.425653 
L 214.7328 115.799581 
L 215.382109 113.420507 
L 216.031418 109.664073 
L 216.680727 107.284999 
L 217.330036 106.533712 
L 217.979345 104.655495 
L 218.628655 112.418791 
L 219.277964 135.082606 
L 219.927273 144.47369 
L 220.576582 156.118634 
L 221.225891 176.27816 
L 221.8752 167.763577 
L 222.524509 163.005428 
L 223.173818 155.993419 
L 223.823127 168.765293 
L 224.472436 185.168386 
L 225.121745 185.2936 
L 225.771055 187.54746 
L 226.420364 196.562901 
L 227.069673 198.315903 
L 227.718982 183.415384 
L 228.368291 195.310756 
L 229.0176 180.535451 
L 229.666909 182.664097 
L 230.316218 186.295316 
L 230.965527 208.08263 
L 231.614836 216.847641 
L 232.264145 216.346784 
L 232.913455 214.343352 
L 233.562764 214.593781 
L 234.212073 213.842495 
L 234.861382 226.36394 
L 235.510691 235.37938 
L 236.16 220.854504 
L 236.809309 225.612653 
L 238.107927 216.722427 
L 238.757236 229.619515 
L 239.406545 230.621231 
L 240.055855 226.739583 
L 240.705164 225.863082 
L 241.354473 221.856219 
L 242.003782 230.621231 
L 242.653091 232.875091 
L 243.3024 235.880238 
L 243.951709 236.255881 
L 244.601018 225.612653 
L 245.250327 219.852788 
L 245.899636 215.97114 
L 246.548945 223.609222 
L 247.198255 223.984865 
L 247.847564 227.365655 
L 248.496873 225.111795 
L 250.4448 204.576625 
L 251.743418 175.026016 
L 252.392727 189.550892 
L 253.042036 182.038025 
L 253.691345 193.557754 
L 254.340655 201.446264 
L 255.639273 196.062043 
L 256.288582 190.552607 
L 256.937891 186.170101 
L 257.5872 185.544029 
L 258.236509 185.544029 
L 258.885818 175.902517 
L 259.535127 177.780733 
L 260.184436 184.16667 
L 260.833745 160.751568 
L 261.483055 162.880214 
L 262.132364 182.538882 
L 262.781673 180.410237 
L 263.430982 180.78588 
L 264.080291 198.566332 
L 264.7296 188.423962 
L 265.378909 192.180395 
L 266.028218 202.322765 
L 266.677527 203.199267 
L 267.326836 213.216422 
L 267.976145 213.592066 
L 268.625455 225.111795 
L 269.274764 197.314187 
L 269.924073 198.816761 
L 270.573382 200.820192 
L 271.222691 192.055181 
L 271.872 193.808183 
L 272.521309 197.314187 
L 273.170618 193.808183 
L 273.819927 199.568048 
L 275.118545 192.931682 
L 275.767855 173.899085 
L 276.417164 184.291885 
L 277.066473 188.173533 
L 277.715782 187.54746 
L 278.365091 193.307325 
L 279.0144 194.058612 
L 279.663709 187.297032 
L 280.313018 188.048318 
L 280.962327 188.423962 
L 281.611636 188.048318 
L 282.260945 179.909379 
L 282.910255 178.406806 
L 283.559564 174.0243 
L 284.208873 180.535451 
L 284.858182 215.97114 
L 285.507491 216.847641 
L 286.1568 220.353646 
L 286.806109 207.832201 
L 287.455418 218.099786 
L 288.104727 209.334775 
L 288.754036 207.581772 
L 289.403345 204.576625 
L 290.052655 211.839064 
L 290.701964 226.113511 
L 291.351273 211.588635 
L 292.000582 215.094639 
L 293.2992 217.598928 
L 293.948509 223.859651 
L 294.597818 233.12552 
L 295.247127 246.398251 
L 295.896436 238.008883 
L 296.545745 249.278184 
L 297.195055 234.377664 
L 297.844364 237.132382 
L 298.493673 237.132382 
L 300.4416 276.449719 
L 301.090909 269.062067 
L 301.740218 257.417123 
L 303.038836 243.893962 
L 303.688145 246.64868 
L 304.337455 232.374233 
L 304.986764 234.502879 
L 305.636073 227.866513 
L 306.285382 226.614368 
L 306.934691 228.6178 
L 307.584 221.605791 
L 308.233309 240.763601 
L 308.882618 237.883669 
L 309.531927 223.108364 
L 310.181236 228.242156 
L 310.830545 231.122089 
L 311.479855 232.749876 
L 312.129164 247.900825 
L 312.778473 245.897394 
L 313.427782 241.640102 
L 314.077091 243.643534 
L 314.7264 238.634956 
L 315.375709 224.610937 
L 316.025018 251.657258 
L 316.674327 252.408545 
L 317.323636 250.905972 
L 317.972945 246.523466 
L 318.622255 244.269606 
L 319.271564 237.883669 
L 319.920873 251.657258 
L 320.570182 260.297055 
L 321.219491 247.399967 
L 321.8688 247.525181 
L 322.518109 247.525181 
L 323.167418 245.646965 
L 323.816727 250.279899 
L 324.466036 247.399967 
L 325.115345 239.636671 
L 325.764655 227.616084 
L 326.413964 247.650396 
L 327.063273 241.514888 
L 327.712582 238.134098 
L 328.361891 253.660689 
L 329.0112 251.657258 
L 329.660509 236.130667 
L 330.309818 235.128951 
L 330.959127 243.643534 
L 331.608436 228.242156 
L 332.257745 238.885384 
L 332.907055 232.123804 
L 333.556364 233.375949 
L 334.205673 237.883669 
L 334.854982 234.127235 
L 335.504291 234.628093 
L 336.1536 236.381096 
L 336.802909 244.895678 
L 337.452218 243.893962 
L 338.101527 236.631524 
L 338.750836 234.753308 
L 339.400145 229.74473 
L 340.049455 229.369086 
L 340.698764 224.861366 
L 341.348073 223.859651 
L 341.997382 216.096355 
L 342.646691 237.382811 
L 343.296 229.619515 
L 343.945309 239.636671 
L 344.594618 238.384527 
L 345.243927 245.396536 
L 345.893236 254.161547 
L 346.542545 228.868229 
L 347.191855 221.856219 
L 347.841164 225.863082 
L 348.490473 224.861366 
L 349.139782 228.367371 
L 350.4384 227.365655 
L 351.087709 231.622946 
L 351.737018 233.12552 
L 352.386327 229.869944 
L 353.035636 220.228432 
L 353.684945 221.605791 
L 354.334255 217.09807 
L 354.983564 206.329628 
L 355.632873 206.830486 
L 356.282182 210.461705 
L 356.931491 212.465136 
L 357.5808 212.840779 
L 358.230109 208.333059 
L 358.879418 215.345068 
L 359.528727 207.331343 
L 360.178036 202.072336 
L 360.827345 201.070621 
L 361.476655 213.091208 
L 362.125964 212.840779 
L 363.424582 241.765317 
L 364.073891 239.636671 
L 364.7232 243.393105 
L 365.372509 239.636671 
L 366.021818 237.63324 
L 366.671127 240.888816 
L 367.320436 239.386242 
L 367.969745 234.878522 
L 368.619055 236.130667 
L 369.268364 224.11008 
L 369.917673 237.132382 
L 370.566982 243.518319 
L 371.216291 233.876807 
L 371.8656 230.120373 
L 372.514909 228.868229 
L 373.164218 238.634956 
L 373.813527 235.128951 
L 374.462836 250.154685 
L 375.112145 246.147823 
L 376.410764 257.166694 
L 377.060073 221.856219 
L 377.709382 195.811614 
L 378.358691 187.422246 
L 379.008 185.043171 
L 379.657309 173.398228 
L 380.306618 179.65895 
L 380.955927 175.026016 
L 381.605236 172.271298 
L 382.254545 178.281591 
L 382.903855 182.789311 
L 383.553164 181.537167 
L 384.202473 180.78588 
L 384.851782 173.899085 
L 385.501091 178.031162 
L 386.1504 181.036309 
L 386.799709 189.300463 
L 387.449018 189.80132 
L 388.098327 197.815045 
L 388.747636 187.422246 
L 389.396945 171.019153 
L 390.046255 173.398228 
L 390.695564 172.020869 
L 391.344873 184.542314 
L 391.994182 171.144368 
L 393.2928 199.317619 
L 393.942109 214.343352 
L 394.591418 223.609222 
L 395.240727 228.868229 
L 395.890036 240.137529 
L 396.539345 244.895678 
L 397.188655 239.761886 
L 397.837964 243.393105 
L 397.837964 243.393105 
" style="fill:none;stroke:#000000;stroke-dasharray:5.55,2.4;stroke-dashoffset:0;stroke-width:1.5;"/>
   </g>
   <g id="line2d_16">
    <defs>
     <path d="M 0 3 
C 0.795609 3 1.55874 2.683901 2.12132 2.12132 
C 2.683901 1.55874 3 0.795609 3 0 
C 3 -0.795609 2.683901 -1.55874 2.12132 -2.12132 
C 1.55874 -2.683901 0.795609 -3 0 -3 
C -0.795609 -3 -1.55874 -2.683901 -2.12132 -2.12132 
C -2.683901 -1.55874 -3 -0.795609 -3 0 
C -3 0.795609 -2.683901 1.55874 -2.12132 2.12132 
C -1.55874 2.683901 -0.795609 3 0 3 
z
" id="m6d0f7de1ce" style="stroke:#bfbf00;"/>
    </defs>
    <g clip-path="url(#p137885cadf)">
     <use style="fill:#bfbf00;stroke:#bfbf00;" x="76.429964" xlink:href="#m6d0f7de1ce" y="246.64868"/>
     <use style="fill:#bfbf00;stroke:#bfbf00;" x="83.572364" xlink:href="#m6d0f7de1ce" y="242.641818"/>
     <use style="fill:#bfbf00;stroke:#bfbf00;" x="88.117527" xlink:href="#m6d0f7de1ce" y="236.255881"/>
     <use style="fill:#bfbf00;stroke:#bfbf00;" x="97.207855" xlink:href="#m6d0f7de1ce" y="204.200982"/>
     <use style="fill:#bfbf00;stroke:#bfbf00;" x="101.753018" xlink:href="#m6d0f7de1ce" y="237.883669"/>
     <use style="fill:#bfbf00;stroke:#bfbf00;" x="103.700945" xlink:href="#m6d0f7de1ce" y="240.888816"/>
     <use style="fill:#bfbf00;stroke:#bfbf00;" x="105.648873" xlink:href="#m6d0f7de1ce" y="236.881953"/>
     <use style="fill:#bfbf00;stroke:#bfbf00;" x="108.895418" xlink:href="#m6d0f7de1ce" y="257.166694"/>
     <use style="fill:#bfbf00;stroke:#bfbf00;" x="112.141964" xlink:href="#m6d0f7de1ce" y="245.646965"/>
     <use style="fill:#bfbf00;stroke:#bfbf00;" x="114.7392" xlink:href="#m6d0f7de1ce" y="233.12552"/>
     <use style="fill:#bfbf00;stroke:#bfbf00;" x="117.985745" xlink:href="#m6d0f7de1ce" y="212.089492"/>
     <use style="fill:#bfbf00;stroke:#bfbf00;" x="121.8816" xlink:href="#m6d0f7de1ce" y="187.54746"/>
     <use style="fill:#bfbf00;stroke:#bfbf00;" x="124.478836" xlink:href="#m6d0f7de1ce" y="198.566332"/>
     <use style="fill:#bfbf00;stroke:#bfbf00;" x="130.322618" xlink:href="#m6d0f7de1ce" y="144.974548"/>
     <use style="fill:#bfbf00;stroke:#bfbf00;" x="136.815709" xlink:href="#m6d0f7de1ce" y="147.228408"/>
     <use style="fill:#bfbf00;stroke:#bfbf00;" x="141.360873" xlink:href="#m6d0f7de1ce" y="162.755"/>
     <use style="fill:#bfbf00;stroke:#bfbf00;" x="146.555345" xlink:href="#m6d0f7de1ce" y="178.031162"/>
     <use style="fill:#bfbf00;stroke:#bfbf00;" x="149.152582" xlink:href="#m6d0f7de1ce" y="171.019153"/>
     <use style="fill:#bfbf00;stroke:#bfbf00;" x="154.347055" xlink:href="#m6d0f7de1ce" y="157.99685"/>
     <use style="fill:#bfbf00;stroke:#bfbf00;" x="160.190836" xlink:href="#m6d0f7de1ce" y="202.823623"/>
     <use style="fill:#bfbf00;stroke:#bfbf00;" x="164.086691" xlink:href="#m6d0f7de1ce" y="200.068905"/>
     <use style="fill:#bfbf00;stroke:#bfbf00;" x="167.982545" xlink:href="#m6d0f7de1ce" y="208.708702"/>
     <use style="fill:#bfbf00;stroke:#bfbf00;" x="173.177018" xlink:href="#m6d0f7de1ce" y="199.568048"/>
     <use style="fill:#bfbf00;stroke:#bfbf00;" x="176.423564" xlink:href="#m6d0f7de1ce" y="181.036309"/>
     <use style="fill:#bfbf00;stroke:#bfbf00;" x="179.0208" xlink:href="#m6d0f7de1ce" y="174.149514"/>
     <use style="fill:#bfbf00;stroke:#bfbf00;" x="182.916655" xlink:href="#m6d0f7de1ce" y="167.26272"/>
     <use style="fill:#bfbf00;stroke:#bfbf00;" x="192.656291" xlink:href="#m6d0f7de1ce" y="106.408497"/>
     <use style="fill:#bfbf00;stroke:#bfbf00;" x="194.604218" xlink:href="#m6d0f7de1ce" y="100.022561"/>
     <use style="fill:#bfbf00;stroke:#bfbf00;" x="197.850764" xlink:href="#m6d0f7de1ce" y="99.271274"/>
     <use style="fill:#bfbf00;stroke:#bfbf00;" x="202.395927" xlink:href="#m6d0f7de1ce" y="95.640055"/>
     <use style="fill:#bfbf00;stroke:#bfbf00;" x="206.941091" xlink:href="#m6d0f7de1ce" y="110.290145"/>
     <use style="fill:#bfbf00;stroke:#bfbf00;" x="208.889018" xlink:href="#m6d0f7de1ce" y="112.66922"/>
     <use style="fill:#bfbf00;stroke:#bfbf00;" x="211.486255" xlink:href="#m6d0f7de1ce" y="114.92308"/>
     <use style="fill:#bfbf00;stroke:#bfbf00;" x="214.083491" xlink:href="#m6d0f7de1ce" y="116.425653"/>
     <use style="fill:#bfbf00;stroke:#bfbf00;" x="221.225891" xlink:href="#m6d0f7de1ce" y="176.27816"/>
     <use style="fill:#bfbf00;stroke:#bfbf00;" x="227.069673" xlink:href="#m6d0f7de1ce" y="198.315903"/>
     <use style="fill:#bfbf00;stroke:#bfbf00;" x="231.614836" xlink:href="#m6d0f7de1ce" y="216.847641"/>
     <use style="fill:#bfbf00;stroke:#bfbf00;" x="235.510691" xlink:href="#m6d0f7de1ce" y="235.37938"/>
     <use style="fill:#bfbf00;stroke:#bfbf00;" x="236.809309" xlink:href="#m6d0f7de1ce" y="225.612653"/>
     <use style="fill:#bfbf00;stroke:#bfbf00;" x="239.406545" xlink:href="#m6d0f7de1ce" y="230.621231"/>
     <use style="fill:#bfbf00;stroke:#bfbf00;" x="243.951709" xlink:href="#m6d0f7de1ce" y="236.255881"/>
     <use style="fill:#bfbf00;stroke:#bfbf00;" x="247.847564" xlink:href="#m6d0f7de1ce" y="227.365655"/>
     <use style="fill:#bfbf00;stroke:#bfbf00;" x="254.340655" xlink:href="#m6d0f7de1ce" y="201.446264"/>
     <use style="fill:#bfbf00;stroke:#bfbf00;" x="260.184436" xlink:href="#m6d0f7de1ce" y="184.16667"/>
     <use style="fill:#bfbf00;stroke:#bfbf00;" x="262.132364" xlink:href="#m6d0f7de1ce" y="182.538882"/>
     <use style="fill:#bfbf00;stroke:#bfbf00;" x="264.080291" xlink:href="#m6d0f7de1ce" y="198.566332"/>
     <use style="fill:#bfbf00;stroke:#bfbf00;" x="268.625455" xlink:href="#m6d0f7de1ce" y="225.111795"/>
     <use style="fill:#bfbf00;stroke:#bfbf00;" x="270.573382" xlink:href="#m6d0f7de1ce" y="200.820192"/>
     <use style="fill:#bfbf00;stroke:#bfbf00;" x="272.521309" xlink:href="#m6d0f7de1ce" y="197.314187"/>
     <use style="fill:#bfbf00;stroke:#bfbf00;" x="273.819927" xlink:href="#m6d0f7de1ce" y="199.568048"/>
     <use style="fill:#bfbf00;stroke:#bfbf00;" x="279.0144" xlink:href="#m6d0f7de1ce" y="194.058612"/>
     <use style="fill:#bfbf00;stroke:#bfbf00;" x="280.962327" xlink:href="#m6d0f7de1ce" y="188.423962"/>
     <use style="fill:#bfbf00;stroke:#bfbf00;" x="286.1568" xlink:href="#m6d0f7de1ce" y="220.353646"/>
     <use style="fill:#bfbf00;stroke:#bfbf00;" x="287.455418" xlink:href="#m6d0f7de1ce" y="218.099786"/>
     <use style="fill:#bfbf00;stroke:#bfbf00;" x="290.701964" xlink:href="#m6d0f7de1ce" y="226.113511"/>
     <use style="fill:#bfbf00;stroke:#bfbf00;" x="296.545745" xlink:href="#m6d0f7de1ce" y="249.278184"/>
     <use style="fill:#bfbf00;stroke:#bfbf00;" x="300.4416" xlink:href="#m6d0f7de1ce" y="276.449719"/>
     <use style="fill:#bfbf00;stroke:#bfbf00;" x="306.934691" xlink:href="#m6d0f7de1ce" y="228.6178"/>
     <use style="fill:#bfbf00;stroke:#bfbf00;" x="308.233309" xlink:href="#m6d0f7de1ce" y="240.763601"/>
     <use style="fill:#bfbf00;stroke:#bfbf00;" x="312.129164" xlink:href="#m6d0f7de1ce" y="247.900825"/>
     <use style="fill:#bfbf00;stroke:#bfbf00;" x="316.674327" xlink:href="#m6d0f7de1ce" y="252.408545"/>
     <use style="fill:#bfbf00;stroke:#bfbf00;" x="320.570182" xlink:href="#m6d0f7de1ce" y="260.297055"/>
     <use style="fill:#bfbf00;stroke:#bfbf00;" x="321.8688" xlink:href="#m6d0f7de1ce" y="247.525181"/>
     <use style="fill:#bfbf00;stroke:#bfbf00;" x="323.816727" xlink:href="#m6d0f7de1ce" y="250.279899"/>
     <use style="fill:#bfbf00;stroke:#bfbf00;" x="326.413964" xlink:href="#m6d0f7de1ce" y="247.650396"/>
     <use style="fill:#bfbf00;stroke:#bfbf00;" x="328.361891" xlink:href="#m6d0f7de1ce" y="253.660689"/>
     <use style="fill:#bfbf00;stroke:#bfbf00;" x="330.959127" xlink:href="#m6d0f7de1ce" y="243.643534"/>
     <use style="fill:#bfbf00;stroke:#bfbf00;" x="332.257745" xlink:href="#m6d0f7de1ce" y="238.885384"/>
     <use style="fill:#bfbf00;stroke:#bfbf00;" x="334.205673" xlink:href="#m6d0f7de1ce" y="237.883669"/>
     <use style="fill:#bfbf00;stroke:#bfbf00;" x="336.802909" xlink:href="#m6d0f7de1ce" y="244.895678"/>
     <use style="fill:#bfbf00;stroke:#bfbf00;" x="345.893236" xlink:href="#m6d0f7de1ce" y="254.161547"/>
     <use style="fill:#bfbf00;stroke:#bfbf00;" x="349.139782" xlink:href="#m6d0f7de1ce" y="228.367371"/>
     <use style="fill:#bfbf00;stroke:#bfbf00;" x="351.737018" xlink:href="#m6d0f7de1ce" y="233.12552"/>
     <use style="fill:#bfbf00;stroke:#bfbf00;" x="357.5808" xlink:href="#m6d0f7de1ce" y="212.840779"/>
     <use style="fill:#bfbf00;stroke:#bfbf00;" x="358.879418" xlink:href="#m6d0f7de1ce" y="215.345068"/>
     <use style="fill:#bfbf00;stroke:#bfbf00;" x="364.7232" xlink:href="#m6d0f7de1ce" y="243.393105"/>
     <use style="fill:#bfbf00;stroke:#bfbf00;" x="366.671127" xlink:href="#m6d0f7de1ce" y="240.888816"/>
     <use style="fill:#bfbf00;stroke:#bfbf00;" x="370.566982" xlink:href="#m6d0f7de1ce" y="243.518319"/>
     <use style="fill:#bfbf00;stroke:#bfbf00;" x="376.410764" xlink:href="#m6d0f7de1ce" y="257.166694"/>
     <use style="fill:#bfbf00;stroke:#bfbf00;" x="380.306618" xlink:href="#m6d0f7de1ce" y="179.65895"/>
     <use style="fill:#bfbf00;stroke:#bfbf00;" x="382.903855" xlink:href="#m6d0f7de1ce" y="182.789311"/>
     <use style="fill:#bfbf00;stroke:#bfbf00;" x="388.098327" xlink:href="#m6d0f7de1ce" y="197.815045"/>
     <use style="fill:#bfbf00;stroke:#bfbf00;" x="391.344873" xlink:href="#m6d0f7de1ce" y="184.542314"/>
     <use style="fill:#bfbf00;stroke:#bfbf00;" x="396.539345" xlink:href="#m6d0f7de1ce" y="244.895678"/>
    </g>
   </g>
   <g id="line2d_17">
    <path clip-path="url(#p137885cadf)" d="M 73.832727 182.710384 
L 397.837964 228.277684 
" style="fill:none;stroke:#bfbf00;stroke-dasharray:5.55,2.4;stroke-dashoffset:0;stroke-width:1.5;"/>
   </g>
   <g id="line2d_18">
    <defs>
     <path d="M 0 3 
C 0.795609 3 1.55874 2.683901 2.12132 2.12132 
C 2.683901 1.55874 3 0.795609 3 0 
C 3 -0.795609 2.683901 -1.55874 2.12132 -2.12132 
C 1.55874 -2.683901 0.795609 -3 0 -3 
C -0.795609 -3 -1.55874 -2.683901 -2.12132 -2.12132 
C -2.683901 -1.55874 -3 -0.795609 -3 0 
C -3 0.795609 -2.683901 1.55874 -2.12132 2.12132 
C -1.55874 2.683901 -0.795609 3 0 3 
z
" id="mce68e353c1" style="stroke:#0000ff;"/>
    </defs>
    <g clip-path="url(#p137885cadf)">
     <use style="fill:#0000ff;stroke:#0000ff;" x="79.0272" xlink:href="#mce68e353c1" y="221.230147"/>
     <use style="fill:#0000ff;stroke:#0000ff;" x="86.818909" xlink:href="#mce68e353c1" y="225.863082"/>
     <use style="fill:#0000ff;stroke:#0000ff;" x="95.909236" xlink:href="#mce68e353c1" y="191.929966"/>
     <use style="fill:#0000ff;stroke:#0000ff;" x="97.857164" xlink:href="#mce68e353c1" y="181.286738"/>
     <use style="fill:#0000ff;stroke:#0000ff;" x="103.051636" xlink:href="#mce68e353c1" y="233.250734"/>
     <use style="fill:#0000ff;stroke:#0000ff;" x="104.999564" xlink:href="#mce68e353c1" y="234.127235"/>
     <use style="fill:#0000ff;stroke:#0000ff;" x="106.947491" xlink:href="#mce68e353c1" y="225.863082"/>
     <use style="fill:#0000ff;stroke:#0000ff;" x="111.492655" xlink:href="#mce68e353c1" y="230.87166"/>
     <use style="fill:#0000ff;stroke:#0000ff;" x="113.440582" xlink:href="#mce68e353c1" y="230.120373"/>
     <use style="fill:#0000ff;stroke:#0000ff;" x="117.336436" xlink:href="#mce68e353c1" y="211.087777"/>
     <use style="fill:#0000ff;stroke:#0000ff;" x="120.582982" xlink:href="#mce68e353c1" y="171.77044"/>
     <use style="fill:#0000ff;stroke:#0000ff;" x="123.180218" xlink:href="#mce68e353c1" y="179.784165"/>
     <use style="fill:#0000ff;stroke:#0000ff;" x="129.024" xlink:href="#mce68e353c1" y="122.435947"/>
     <use style="fill:#0000ff;stroke:#0000ff;" x="133.569164" xlink:href="#mce68e353c1" y="130.574886"/>
     <use style="fill:#0000ff;stroke:#0000ff;" x="138.763636" xlink:href="#mce68e353c1" y="140.592042"/>
     <use style="fill:#0000ff;stroke:#0000ff;" x="145.256727" xlink:href="#mce68e353c1" y="143.471974"/>
     <use style="fill:#0000ff;stroke:#0000ff;" x="148.503273" xlink:href="#mce68e353c1" y="163.631501"/>
     <use style="fill:#0000ff;stroke:#0000ff;" x="151.749818" xlink:href="#mce68e353c1" y="152.236986"/>
     <use style="fill:#0000ff;stroke:#0000ff;" x="154.996364" xlink:href="#mce68e353c1" y="154.991704"/>
     <use style="fill:#0000ff;stroke:#0000ff;" x="162.788073" xlink:href="#mce68e353c1" y="194.684684"/>
     <use style="fill:#0000ff;stroke:#0000ff;" x="166.034618" xlink:href="#mce68e353c1" y="191.804752"/>
     <use style="fill:#0000ff;stroke:#0000ff;" x="171.8784" xlink:href="#mce68e353c1" y="191.053465"/>
     <use style="fill:#0000ff;stroke:#0000ff;" x="175.774255" xlink:href="#mce68e353c1" y="173.273013"/>
     <use style="fill:#0000ff;stroke:#0000ff;" x="177.722182" xlink:href="#mce68e353c1" y="171.269582"/>
     <use style="fill:#0000ff;stroke:#0000ff;" x="182.267345" xlink:href="#mce68e353c1" y="161.753284"/>
     <use style="fill:#0000ff;stroke:#0000ff;" x="190.708364" xlink:href="#mce68e353c1" y="80.86475"/>
     <use style="fill:#0000ff;stroke:#0000ff;" x="193.954909" xlink:href="#mce68e353c1" y="74.604027"/>
     <use style="fill:#0000ff;stroke:#0000ff;" x="197.201455" xlink:href="#mce68e353c1" y="85.998542"/>
     <use style="fill:#0000ff;stroke:#0000ff;" x="201.746618" xlink:href="#mce68e353c1" y="73.351883"/>
     <use style="fill:#0000ff;stroke:#0000ff;" x="204.993164" xlink:href="#mce68e353c1" y="53.568"/>
     <use style="fill:#0000ff;stroke:#0000ff;" x="208.239709" xlink:href="#mce68e353c1" y="107.410213"/>
     <use style="fill:#0000ff;stroke:#0000ff;" x="210.187636" xlink:href="#mce68e353c1" y="108.662358"/>
     <use style="fill:#0000ff;stroke:#0000ff;" x="212.784873" xlink:href="#mce68e353c1" y="111.166647"/>
     <use style="fill:#0000ff;stroke:#0000ff;" x="217.979345" xlink:href="#mce68e353c1" y="104.655495"/>
     <use style="fill:#0000ff;stroke:#0000ff;" x="223.173818" xlink:href="#mce68e353c1" y="155.993419"/>
     <use style="fill:#0000ff;stroke:#0000ff;" x="229.0176" xlink:href="#mce68e353c1" y="180.535451"/>
     <use style="fill:#0000ff;stroke:#0000ff;" x="234.212073" xlink:href="#mce68e353c1" y="213.842495"/>
     <use style="fill:#0000ff;stroke:#0000ff;" x="236.16" xlink:href="#mce68e353c1" y="220.854504"/>
     <use style="fill:#0000ff;stroke:#0000ff;" x="238.107927" xlink:href="#mce68e353c1" y="216.722427"/>
     <use style="fill:#0000ff;stroke:#0000ff;" x="241.354473" xlink:href="#mce68e353c1" y="221.856219"/>
     <use style="fill:#0000ff;stroke:#0000ff;" x="245.899636" xlink:href="#mce68e353c1" y="215.97114"/>
     <use style="fill:#0000ff;stroke:#0000ff;" x="251.743418" xlink:href="#mce68e353c1" y="175.026016"/>
     <use style="fill:#0000ff;stroke:#0000ff;" x="258.885818" xlink:href="#mce68e353c1" y="175.902517"/>
     <use style="fill:#0000ff;stroke:#0000ff;" x="260.833745" xlink:href="#mce68e353c1" y="160.751568"/>
     <use style="fill:#0000ff;stroke:#0000ff;" x="262.781673" xlink:href="#mce68e353c1" y="180.410237"/>
     <use style="fill:#0000ff;stroke:#0000ff;" x="264.7296" xlink:href="#mce68e353c1" y="188.423962"/>
     <use style="fill:#0000ff;stroke:#0000ff;" x="269.274764" xlink:href="#mce68e353c1" y="197.314187"/>
     <use style="fill:#0000ff;stroke:#0000ff;" x="271.222691" xlink:href="#mce68e353c1" y="192.055181"/>
     <use style="fill:#0000ff;stroke:#0000ff;" x="275.767855" xlink:href="#mce68e353c1" y="173.899085"/>
     <use style="fill:#0000ff;stroke:#0000ff;" x="279.663709" xlink:href="#mce68e353c1" y="187.297032"/>
     <use style="fill:#0000ff;stroke:#0000ff;" x="283.559564" xlink:href="#mce68e353c1" y="174.0243"/>
     <use style="fill:#0000ff;stroke:#0000ff;" x="286.806109" xlink:href="#mce68e353c1" y="207.832201"/>
     <use style="fill:#0000ff;stroke:#0000ff;" x="289.403345" xlink:href="#mce68e353c1" y="204.576625"/>
     <use style="fill:#0000ff;stroke:#0000ff;" x="291.351273" xlink:href="#mce68e353c1" y="211.588635"/>
     <use style="fill:#0000ff;stroke:#0000ff;" x="297.195055" xlink:href="#mce68e353c1" y="234.377664"/>
     <use style="fill:#0000ff;stroke:#0000ff;" x="306.285382" xlink:href="#mce68e353c1" y="226.614368"/>
     <use style="fill:#0000ff;stroke:#0000ff;" x="307.584" xlink:href="#mce68e353c1" y="221.605791"/>
     <use style="fill:#0000ff;stroke:#0000ff;" x="309.531927" xlink:href="#mce68e353c1" y="223.108364"/>
     <use style="fill:#0000ff;stroke:#0000ff;" x="315.375709" xlink:href="#mce68e353c1" y="224.610937"/>
     <use style="fill:#0000ff;stroke:#0000ff;" x="319.271564" xlink:href="#mce68e353c1" y="237.883669"/>
     <use style="fill:#0000ff;stroke:#0000ff;" x="321.219491" xlink:href="#mce68e353c1" y="247.399967"/>
     <use style="fill:#0000ff;stroke:#0000ff;" x="323.167418" xlink:href="#mce68e353c1" y="245.646965"/>
     <use style="fill:#0000ff;stroke:#0000ff;" x="325.764655" xlink:href="#mce68e353c1" y="227.616084"/>
     <use style="fill:#0000ff;stroke:#0000ff;" x="327.712582" xlink:href="#mce68e353c1" y="238.134098"/>
     <use style="fill:#0000ff;stroke:#0000ff;" x="330.309818" xlink:href="#mce68e353c1" y="235.128951"/>
     <use style="fill:#0000ff;stroke:#0000ff;" x="331.608436" xlink:href="#mce68e353c1" y="228.242156"/>
     <use style="fill:#0000ff;stroke:#0000ff;" x="332.907055" xlink:href="#mce68e353c1" y="232.123804"/>
     <use style="fill:#0000ff;stroke:#0000ff;" x="334.854982" xlink:href="#mce68e353c1" y="234.127235"/>
     <use style="fill:#0000ff;stroke:#0000ff;" x="341.997382" xlink:href="#mce68e353c1" y="216.096355"/>
     <use style="fill:#0000ff;stroke:#0000ff;" x="347.191855" xlink:href="#mce68e353c1" y="221.856219"/>
     <use style="fill:#0000ff;stroke:#0000ff;" x="350.4384" xlink:href="#mce68e353c1" y="227.365655"/>
     <use style="fill:#0000ff;stroke:#0000ff;" x="354.983564" xlink:href="#mce68e353c1" y="206.329628"/>
     <use style="fill:#0000ff;stroke:#0000ff;" x="358.230109" xlink:href="#mce68e353c1" y="208.333059"/>
     <use style="fill:#0000ff;stroke:#0000ff;" x="360.827345" xlink:href="#mce68e353c1" y="201.070621"/>
     <use style="fill:#0000ff;stroke:#0000ff;" x="366.021818" xlink:href="#mce68e353c1" y="237.63324"/>
     <use style="fill:#0000ff;stroke:#0000ff;" x="369.268364" xlink:href="#mce68e353c1" y="224.11008"/>
     <use style="fill:#0000ff;stroke:#0000ff;" x="372.514909" xlink:href="#mce68e353c1" y="228.868229"/>
     <use style="fill:#0000ff;stroke:#0000ff;" x="379.657309" xlink:href="#mce68e353c1" y="173.398228"/>
     <use style="fill:#0000ff;stroke:#0000ff;" x="381.605236" xlink:href="#mce68e353c1" y="172.271298"/>
     <use style="fill:#0000ff;stroke:#0000ff;" x="384.851782" xlink:href="#mce68e353c1" y="173.899085"/>
     <use style="fill:#0000ff;stroke:#0000ff;" x="389.396945" xlink:href="#mce68e353c1" y="171.019153"/>
     <use style="fill:#0000ff;stroke:#0000ff;" x="391.994182" xlink:href="#mce68e353c1" y="171.144368"/>
     <use style="fill:#0000ff;stroke:#0000ff;" x="397.188655" xlink:href="#mce68e353c1" y="239.761886"/>
    </g>
   </g>
   <g id="line2d_19">
    <path clip-path="url(#p137885cadf)" d="M 73.832727 161.007109 
L 397.837964 212.239084 
" style="fill:none;stroke:#0000ff;stroke-dasharray:5.55,2.4;stroke-dashoffset:0;stroke-width:1.5;"/>
   </g>
   <g id="line2d_20">
    <path clip-path="url(#p137885cadf)" d="M 83.572364 242.640297 
L 106.298182 236.705284 
" style="fill:none;stroke:#008000;stroke-dasharray:5.55,2.4;stroke-dashoffset:0;stroke-width:1.5;"/>
   </g>
   <g id="line2d_21">
    <path clip-path="url(#p137885cadf)" d="M 103.700945 240.869439 
L 125.128145 197.242293 
" style="fill:none;stroke:#008000;stroke-dasharray:5.55,2.4;stroke-dashoffset:0;stroke-width:1.5;"/>
   </g>
   <g id="line2d_22">
    <path clip-path="url(#p137885cadf)" d="M 197.850764 99.269753 
L 219.277964 125.266706 
" style="fill:none;stroke:#008000;stroke-dasharray:5.55,2.4;stroke-dashoffset:0;stroke-width:1.5;"/>
   </g>
   <g id="line2d_23">
    <path clip-path="url(#p137885cadf)" d="M 194.604218 100.025968 
L 219.277964 121.826059 
" style="fill:none;stroke:#008000;stroke-dasharray:5.55,2.4;stroke-dashoffset:0;stroke-width:1.5;"/>
   </g>
   <g id="line2d_24">
    <path clip-path="url(#p137885cadf)" d="M 270.573382 200.81356 
L 294.597818 230.983137 
" style="fill:none;stroke:#008000;stroke-dasharray:5.55,2.4;stroke-dashoffset:0;stroke-width:1.5;"/>
   </g>
   <g id="line2d_25">
    <path clip-path="url(#p137885cadf)" d="M 270.573382 200.81356 
L 294.597818 230.983137 
" style="fill:none;stroke:#008000;stroke-dasharray:5.55,2.4;stroke-dashoffset:0;stroke-width:1.5;"/>
   </g>
   <g id="line2d_26">
    <path clip-path="url(#p137885cadf)" d="M 312.129164 247.975111 
L 397.188655 244.89358 
" style="fill:none;stroke:#008000;stroke-dasharray:5.55,2.4;stroke-dashoffset:0;stroke-width:1.5;"/>
   </g>
   <g id="line2d_27">
    <path clip-path="url(#p137885cadf)" d="M 247.847564 227.336015 
L 398.487273 295.488 
" style="fill:none;stroke:#008000;stroke-dasharray:5.55,2.4;stroke-dashoffset:0;stroke-width:1.5;"/>
   </g>
   <g id="line2d_28">
    <path clip-path="url(#p137885cadf)" d="M 79.0272 221.233805 
L 105.648873 234.495815 
" style="fill:none;stroke:#ff0000;stroke-dasharray:5.55,2.4;stroke-dashoffset:0;stroke-width:1.5;"/>
   </g>
   <g id="line2d_29">
    <path clip-path="url(#p137885cadf)" d="M 86.818909 225.863612 
L 105.648873 234.426938 
" style="fill:none;stroke:#ff0000;stroke-dasharray:5.55,2.4;stroke-dashoffset:0;stroke-width:1.5;"/>
   </g>
   <g id="line2d_30">
    <path clip-path="url(#p137885cadf)" d="M 129.024 122.441401 
L 203.694545 72.068277 
" style="fill:none;stroke:#ff0000;stroke-dasharray:5.55,2.4;stroke-dashoffset:0;stroke-width:1.5;"/>
   </g>
   <g id="line2d_31">
    <path clip-path="url(#p137885cadf)" d="M 138.763636 140.616584 
L 176.423564 173.865443 
" style="fill:none;stroke:#ff0000;stroke-dasharray:5.55,2.4;stroke-dashoffset:0;stroke-width:1.5;"/>
   </g>
   <g id="line2d_32">
    <path clip-path="url(#p137885cadf)" d="M 208.239709 107.27903 
L 284.208873 174.591193 
" style="fill:none;stroke:#ff0000;stroke-dasharray:5.55,2.4;stroke-dashoffset:0;stroke-width:1.5;"/>
   </g>
   <g id="line2d_33">
    <path clip-path="url(#p137885cadf)" d="M 210.187636 108.62275 
L 276.417164 174.543736 
" style="fill:none;stroke:#ff0000;stroke-dasharray:5.55,2.4;stroke-dashoffset:0;stroke-width:1.5;"/>
   </g>
   <g id="line2d_34">
    <path clip-path="url(#p137885cadf)" d="M 260.833745 160.752382 
L 392.643491 171.236288 
" style="fill:none;stroke:#ff0000;stroke-dasharray:5.55,2.4;stroke-dashoffset:0;stroke-width:1.5;"/>
   </g>
   <g id="line2d_35">
    <path clip-path="url(#p137885cadf)" d="M 275.767855 173.896952 
L 398.487273 170.892039 
" style="fill:none;stroke:#ff0000;stroke-dasharray:5.55,2.4;stroke-dashoffset:0;stroke-width:1.5;"/>
   </g>
   <g id="patch_3">
    <path d="M 57.6 307.584 
L 57.6 41.472 
" style="fill:none;stroke:#000000;stroke-linecap:square;stroke-linejoin:miter;stroke-width:0.8;"/>
   </g>
   <g id="patch_4">
    <path d="M 414.72 307.584 
L 414.72 41.472 
" style="fill:none;stroke:#000000;stroke-linecap:square;stroke-linejoin:miter;stroke-width:0.8;"/>
   </g>
   <g id="patch_5">
    <path d="M 57.6 307.584 
L 414.72 307.584 
" style="fill:none;stroke:#000000;stroke-linecap:square;stroke-linejoin:miter;stroke-width:0.8;"/>
   </g>
   <g id="patch_6">
    <path d="M 57.6 41.472 
L 414.72 41.472 
" style="fill:none;stroke:#000000;stroke-linecap:square;stroke-linejoin:miter;stroke-width:0.8;"/>
   </g>
   <g id="text_17">
    <!-- Prices with Support/Resistance Trend Lines -->
    <defs>
     <path d="M 44.28125 53.078125 
L 44.28125 44.578125 
Q 40.484375 46.53125 36.375 47.5 
Q 32.28125 48.484375 27.875 48.484375 
Q 21.1875 48.484375 17.84375 46.4375 
Q 14.5 44.390625 14.5 40.28125 
Q 14.5 37.15625 16.890625 35.375 
Q 19.28125 33.59375 26.515625 31.984375 
L 29.59375 31.296875 
Q 39.15625 29.25 43.1875 25.515625 
Q 47.21875 21.78125 47.21875 15.09375 
Q 47.21875 7.46875 41.1875 3.015625 
Q 35.15625 -1.421875 24.609375 -1.421875 
Q 20.21875 -1.421875 15.453125 -0.5625 
Q 10.6875 0.296875 5.421875 2 
L 5.421875 11.28125 
Q 10.40625 8.6875 15.234375 7.390625 
Q 20.0625 6.109375 24.8125 6.109375 
Q 31.15625 6.109375 34.5625 8.28125 
Q 37.984375 10.453125 37.984375 14.40625 
Q 37.984375 18.0625 35.515625 20.015625 
Q 33.0625 21.96875 24.703125 23.78125 
L 21.578125 24.515625 
Q 13.234375 26.265625 9.515625 29.90625 
Q 5.8125 33.546875 5.8125 39.890625 
Q 5.8125 47.609375 11.28125 51.796875 
Q 16.75 56 26.8125 56 
Q 31.78125 56 36.171875 55.265625 
Q 40.578125 54.546875 44.28125 53.078125 
z
" id="DejaVuSans-115"/>
     <path id="DejaVuSans-32"/>
     <path d="M 4.203125 54.6875 
L 13.1875 54.6875 
L 24.421875 12.015625 
L 35.59375 54.6875 
L 46.1875 54.6875 
L 57.421875 12.015625 
L 68.609375 54.6875 
L 77.59375 54.6875 
L 63.28125 0 
L 52.6875 0 
L 40.921875 44.828125 
L 29.109375 0 
L 18.5 0 
z
" id="DejaVuSans-119"/>
     <path d="M 54.890625 33.015625 
L 54.890625 0 
L 45.90625 0 
L 45.90625 32.71875 
Q 45.90625 40.484375 42.875 44.328125 
Q 39.84375 48.1875 33.796875 48.1875 
Q 26.515625 48.1875 22.3125 43.546875 
Q 18.109375 38.921875 18.109375 30.90625 
L 18.109375 0 
L 9.078125 0 
L 9.078125 75.984375 
L 18.109375 75.984375 
L 18.109375 46.1875 
Q 21.34375 51.125 25.703125 53.5625 
Q 30.078125 56 35.796875 56 
Q 45.21875 56 50.046875 50.171875 
Q 54.890625 44.34375 54.890625 33.015625 
z
" id="DejaVuSans-104"/>
     <path d="M 53.515625 70.515625 
L 53.515625 60.890625 
Q 47.90625 63.578125 42.921875 64.890625 
Q 37.9375 66.21875 33.296875 66.21875 
Q 25.25 66.21875 20.875 63.09375 
Q 16.5 59.96875 16.5 54.203125 
Q 16.5 49.359375 19.40625 46.890625 
Q 22.3125 44.4375 30.421875 42.921875 
L 36.375 41.703125 
Q 47.40625 39.59375 52.65625 34.296875 
Q 57.90625 29 57.90625 20.125 
Q 57.90625 9.515625 50.796875 4.046875 
Q 43.703125 -1.421875 29.984375 -1.421875 
Q 24.8125 -1.421875 18.96875 -0.25 
Q 13.140625 0.921875 6.890625 3.21875 
L 6.890625 13.375 
Q 12.890625 10.015625 18.65625 8.296875 
Q 24.421875 6.59375 29.984375 6.59375 
Q 38.421875 6.59375 43.015625 9.90625 
Q 47.609375 13.234375 47.609375 19.390625 
Q 47.609375 24.75 44.3125 27.78125 
Q 41.015625 30.8125 33.5 32.328125 
L 27.484375 33.5 
Q 16.453125 35.6875 11.515625 40.375 
Q 6.59375 45.0625 6.59375 53.421875 
Q 6.59375 63.09375 13.40625 68.65625 
Q 20.21875 74.21875 32.171875 74.21875 
Q 37.3125 74.21875 42.625 73.28125 
Q 47.953125 72.359375 53.515625 70.515625 
z
" id="DejaVuSans-83"/>
     <path d="M 8.5 21.578125 
L 8.5 54.6875 
L 17.484375 54.6875 
L 17.484375 21.921875 
Q 17.484375 14.15625 20.5 10.265625 
Q 23.53125 6.390625 29.59375 6.390625 
Q 36.859375 6.390625 41.078125 11.03125 
Q 45.3125 15.671875 45.3125 23.6875 
L 45.3125 54.6875 
L 54.296875 54.6875 
L 54.296875 0 
L 45.3125 0 
L 45.3125 8.40625 
Q 42.046875 3.421875 37.71875 1 
Q 33.40625 -1.421875 27.6875 -1.421875 
Q 18.265625 -1.421875 13.375 4.4375 
Q 8.5 10.296875 8.5 21.578125 
z
M 31.109375 56 
z
" id="DejaVuSans-117"/>
     <path d="M 18.109375 8.203125 
L 18.109375 -20.796875 
L 9.078125 -20.796875 
L 9.078125 54.6875 
L 18.109375 54.6875 
L 18.109375 46.390625 
Q 20.953125 51.265625 25.265625 53.625 
Q 29.59375 56 35.59375 56 
Q 45.5625 56 51.78125 48.09375 
Q 58.015625 40.1875 58.015625 27.296875 
Q 58.015625 14.40625 51.78125 6.484375 
Q 45.5625 -1.421875 35.59375 -1.421875 
Q 29.59375 -1.421875 25.265625 0.953125 
Q 20.953125 3.328125 18.109375 8.203125 
z
M 48.6875 27.296875 
Q 48.6875 37.203125 44.609375 42.84375 
Q 40.53125 48.484375 33.40625 48.484375 
Q 26.265625 48.484375 22.1875 42.84375 
Q 18.109375 37.203125 18.109375 27.296875 
Q 18.109375 17.390625 22.1875 11.75 
Q 26.265625 6.109375 33.40625 6.109375 
Q 40.53125 6.109375 44.609375 11.75 
Q 48.6875 17.390625 48.6875 27.296875 
z
" id="DejaVuSans-112"/>
     <path d="M 30.609375 48.390625 
Q 23.390625 48.390625 19.1875 42.75 
Q 14.984375 37.109375 14.984375 27.296875 
Q 14.984375 17.484375 19.15625 11.84375 
Q 23.34375 6.203125 30.609375 6.203125 
Q 37.796875 6.203125 41.984375 11.859375 
Q 46.1875 17.53125 46.1875 27.296875 
Q 46.1875 37.015625 41.984375 42.703125 
Q 37.796875 48.390625 30.609375 48.390625 
z
M 30.609375 56 
Q 42.328125 56 49.015625 48.375 
Q 55.71875 40.765625 55.71875 27.296875 
Q 55.71875 13.875 49.015625 6.21875 
Q 42.328125 -1.421875 30.609375 -1.421875 
Q 18.84375 -1.421875 12.171875 6.21875 
Q 5.515625 13.875 5.515625 27.296875 
Q 5.515625 40.765625 12.171875 48.375 
Q 18.84375 56 30.609375 56 
z
" id="DejaVuSans-111"/>
     <path d="M 25.390625 72.90625 
L 33.6875 72.90625 
L 8.296875 -9.28125 
L 0 -9.28125 
z
" id="DejaVuSans-47"/>
     <path d="M 44.390625 34.1875 
Q 47.5625 33.109375 50.5625 29.59375 
Q 53.5625 26.078125 56.59375 19.921875 
L 66.609375 0 
L 56 0 
L 46.6875 18.703125 
Q 43.0625 26.03125 39.671875 28.421875 
Q 36.28125 30.8125 30.421875 30.8125 
L 19.671875 30.8125 
L 19.671875 0 
L 9.8125 0 
L 9.8125 72.90625 
L 32.078125 72.90625 
Q 44.578125 72.90625 50.734375 67.671875 
Q 56.890625 62.453125 56.890625 51.90625 
Q 56.890625 45.015625 53.6875 40.46875 
Q 50.484375 35.9375 44.390625 34.1875 
z
M 19.671875 64.796875 
L 19.671875 38.921875 
L 32.078125 38.921875 
Q 39.203125 38.921875 42.84375 42.21875 
Q 46.484375 45.515625 46.484375 51.90625 
Q 46.484375 58.296875 42.84375 61.546875 
Q 39.203125 64.796875 32.078125 64.796875 
z
" id="DejaVuSans-82"/>
     <path d="M 54.890625 33.015625 
L 54.890625 0 
L 45.90625 0 
L 45.90625 32.71875 
Q 45.90625 40.484375 42.875 44.328125 
Q 39.84375 48.1875 33.796875 48.1875 
Q 26.515625 48.1875 22.3125 43.546875 
Q 18.109375 38.921875 18.109375 30.90625 
L 18.109375 0 
L 9.078125 0 
L 9.078125 54.6875 
L 18.109375 54.6875 
L 18.109375 46.1875 
Q 21.34375 51.125 25.703125 53.5625 
Q 30.078125 56 35.796875 56 
Q 45.21875 56 50.046875 50.171875 
Q 54.890625 44.34375 54.890625 33.015625 
z
" id="DejaVuSans-110"/>
     <path d="M -0.296875 72.90625 
L 61.375 72.90625 
L 61.375 64.59375 
L 35.5 64.59375 
L 35.5 0 
L 25.59375 0 
L 25.59375 64.59375 
L -0.296875 64.59375 
z
" id="DejaVuSans-84"/>
     <path d="M 45.40625 46.390625 
L 45.40625 75.984375 
L 54.390625 75.984375 
L 54.390625 0 
L 45.40625 0 
L 45.40625 8.203125 
Q 42.578125 3.328125 38.25 0.953125 
Q 33.9375 -1.421875 27.875 -1.421875 
Q 17.96875 -1.421875 11.734375 6.484375 
Q 5.515625 14.40625 5.515625 27.296875 
Q 5.515625 40.1875 11.734375 48.09375 
Q 17.96875 56 27.875 56 
Q 33.9375 56 38.25 53.625 
Q 42.578125 51.265625 45.40625 46.390625 
z
M 14.796875 27.296875 
Q 14.796875 17.390625 18.875 11.75 
Q 22.953125 6.109375 30.078125 6.109375 
Q 37.203125 6.109375 41.296875 11.75 
Q 45.40625 17.390625 45.40625 27.296875 
Q 45.40625 37.203125 41.296875 42.84375 
Q 37.203125 48.484375 30.078125 48.484375 
Q 22.953125 48.484375 18.875 42.84375 
Q 14.796875 37.203125 14.796875 27.296875 
z
" id="DejaVuSans-100"/>
     <path d="M 9.8125 72.90625 
L 19.671875 72.90625 
L 19.671875 8.296875 
L 55.171875 8.296875 
L 55.171875 0 
L 9.8125 0 
z
" id="DejaVuSans-76"/>
    </defs>
    <g transform="translate(106.54875 35.472)scale(0.12 -0.12)">
     <use xlink:href="#DejaVuSans-80"/>
     <use x="60.287109" xlink:href="#DejaVuSans-114"/>
     <use x="101.400391" xlink:href="#DejaVuSans-105"/>
     <use x="129.183594" xlink:href="#DejaVuSans-99"/>
     <use x="184.164062" xlink:href="#DejaVuSans-101"/>
     <use x="245.6875" xlink:href="#DejaVuSans-115"/>
     <use x="297.787109" xlink:href="#DejaVuSans-32"/>
     <use x="329.574219" xlink:href="#DejaVuSans-119"/>
     <use x="411.361328" xlink:href="#DejaVuSans-105"/>
     <use x="439.144531" xlink:href="#DejaVuSans-116"/>
     <use x="478.353516" xlink:href="#DejaVuSans-104"/>
     <use x="541.732422" xlink:href="#DejaVuSans-32"/>
     <use x="573.519531" xlink:href="#DejaVuSans-83"/>
     <use x="636.996094" xlink:href="#DejaVuSans-117"/>
     <use x="700.375" xlink:href="#DejaVuSans-112"/>
     <use x="763.851562" xlink:href="#DejaVuSans-112"/>
     <use x="827.328125" xlink:href="#DejaVuSans-111"/>
     <use x="888.509766" xlink:href="#DejaVuSans-114"/>
     <use x="929.623047" xlink:href="#DejaVuSans-116"/>
     <use x="968.832031" xlink:href="#DejaVuSans-47"/>
     <use x="1002.523438" xlink:href="#DejaVuSans-82"/>
     <use x="1071.943359" xlink:href="#DejaVuSans-101"/>
     <use x="1133.466797" xlink:href="#DejaVuSans-115"/>
     <use x="1185.566406" xlink:href="#DejaVuSans-105"/>
     <use x="1213.349609" xlink:href="#DejaVuSans-115"/>
     <use x="1265.449219" xlink:href="#DejaVuSans-116"/>
     <use x="1304.658203" xlink:href="#DejaVuSans-97"/>
     <use x="1365.9375" xlink:href="#DejaVuSans-110"/>
     <use x="1429.316406" xlink:href="#DejaVuSans-99"/>
     <use x="1484.296875" xlink:href="#DejaVuSans-101"/>
     <use x="1545.820312" xlink:href="#DejaVuSans-32"/>
     <use x="1577.607422" xlink:href="#DejaVuSans-84"/>
     <use x="1638.472656" xlink:href="#DejaVuSans-114"/>
     <use x="1679.554688" xlink:href="#DejaVuSans-101"/>
     <use x="1741.078125" xlink:href="#DejaVuSans-110"/>
     <use x="1804.457031" xlink:href="#DejaVuSans-100"/>
     <use x="1867.933594" xlink:href="#DejaVuSans-32"/>
     <use x="1899.720703" xlink:href="#DejaVuSans-76"/>
     <use x="1955.433594" xlink:href="#DejaVuSans-105"/>
     <use x="1983.216797" xlink:href="#DejaVuSans-110"/>
     <use x="2046.595703" xlink:href="#DejaVuSans-101"/>
     <use x="2108.119141" xlink:href="#DejaVuSans-115"/>
    </g>
   </g>
   <g id="legend_1">
    <g id="patch_7">
     <path d="M 295.934063 122.862625 
L 407.72 122.862625 
Q 409.72 122.862625 409.72 120.862625 
L 409.72 48.472 
Q 409.72 46.472 407.72 46.472 
L 295.934063 46.472 
Q 293.934063 46.472 293.934063 48.472 
L 293.934063 120.862625 
Q 293.934063 122.862625 295.934063 122.862625 
z
" style="fill:#ffffff;opacity:0.8;stroke:#cccccc;stroke-linejoin:miter;"/>
    </g>
    <g id="line2d_36">
     <path d="M 297.934063 54.570438 
L 317.934063 54.570438 
" style="fill:none;stroke:#000000;stroke-dasharray:5.55,2.4;stroke-dashoffset:0;stroke-width:1.5;"/>
    </g>
    <g id="line2d_37"/>
    <g id="text_18">
     <!-- Close Price -->
     <defs>
      <path d="M 64.40625 67.28125 
L 64.40625 56.890625 
Q 59.421875 61.53125 53.78125 63.8125 
Q 48.140625 66.109375 41.796875 66.109375 
Q 29.296875 66.109375 22.65625 58.46875 
Q 16.015625 50.828125 16.015625 36.375 
Q 16.015625 21.96875 22.65625 14.328125 
Q 29.296875 6.6875 41.796875 6.6875 
Q 48.140625 6.6875 53.78125 8.984375 
Q 59.421875 11.28125 64.40625 15.921875 
L 64.40625 5.609375 
Q 59.234375 2.09375 53.4375 0.328125 
Q 47.65625 -1.421875 41.21875 -1.421875 
Q 24.65625 -1.421875 15.125 8.703125 
Q 5.609375 18.84375 5.609375 36.375 
Q 5.609375 53.953125 15.125 64.078125 
Q 24.65625 74.21875 41.21875 74.21875 
Q 47.75 74.21875 53.53125 72.484375 
Q 59.328125 70.75 64.40625 67.28125 
z
" id="DejaVuSans-67"/>
      <path d="M 9.421875 75.984375 
L 18.40625 75.984375 
L 18.40625 0 
L 9.421875 0 
z
" id="DejaVuSans-108"/>
     </defs>
     <g transform="translate(325.934063 58.070438)scale(0.1 -0.1)">
      <use xlink:href="#DejaVuSans-67"/>
      <use x="69.824219" xlink:href="#DejaVuSans-108"/>
      <use x="97.607422" xlink:href="#DejaVuSans-111"/>
      <use x="158.789062" xlink:href="#DejaVuSans-115"/>
      <use x="210.888672" xlink:href="#DejaVuSans-101"/>
      <use x="272.412109" xlink:href="#DejaVuSans-32"/>
      <use x="304.199219" xlink:href="#DejaVuSans-80"/>
      <use x="364.486328" xlink:href="#DejaVuSans-114"/>
      <use x="405.599609" xlink:href="#DejaVuSans-105"/>
      <use x="433.382812" xlink:href="#DejaVuSans-99"/>
      <use x="488.363281" xlink:href="#DejaVuSans-101"/>
     </g>
    </g>
    <g id="line2d_38">
     <path d="M 297.934063 69.248563 
L 317.934063 69.248563 
" style="fill:none;stroke:#bfbf00;stroke-dasharray:5.55,2.4;stroke-dashoffset:0;stroke-width:1.5;"/>
    </g>
    <g id="line2d_39"/>
    <g id="text_19">
     <!-- Avg. Support -->
     <defs>
      <path d="M 34.1875 63.1875 
L 20.796875 26.90625 
L 47.609375 26.90625 
z
M 28.609375 72.90625 
L 39.796875 72.90625 
L 67.578125 0 
L 57.328125 0 
L 50.6875 18.703125 
L 17.828125 18.703125 
L 11.1875 0 
L 0.78125 0 
z
" id="DejaVuSans-65"/>
      <path d="M 2.984375 54.6875 
L 12.5 54.6875 
L 29.59375 8.796875 
L 46.6875 54.6875 
L 56.203125 54.6875 
L 35.6875 0 
L 23.484375 0 
z
" id="DejaVuSans-118"/>
      <path d="M 45.40625 27.984375 
Q 45.40625 37.75 41.375 43.109375 
Q 37.359375 48.484375 30.078125 48.484375 
Q 22.859375 48.484375 18.828125 43.109375 
Q 14.796875 37.75 14.796875 27.984375 
Q 14.796875 18.265625 18.828125 12.890625 
Q 22.859375 7.515625 30.078125 7.515625 
Q 37.359375 7.515625 41.375 12.890625 
Q 45.40625 18.265625 45.40625 27.984375 
z
M 54.390625 6.78125 
Q 54.390625 -7.171875 48.1875 -13.984375 
Q 42 -20.796875 29.203125 -20.796875 
Q 24.46875 -20.796875 20.265625 -20.09375 
Q 16.0625 -19.390625 12.109375 -17.921875 
L 12.109375 -9.1875 
Q 16.0625 -11.328125 19.921875 -12.34375 
Q 23.78125 -13.375 27.78125 -13.375 
Q 36.625 -13.375 41.015625 -8.765625 
Q 45.40625 -4.15625 45.40625 5.171875 
L 45.40625 9.625 
Q 42.625 4.78125 38.28125 2.390625 
Q 33.9375 0 27.875 0 
Q 17.828125 0 11.671875 7.65625 
Q 5.515625 15.328125 5.515625 27.984375 
Q 5.515625 40.671875 11.671875 48.328125 
Q 17.828125 56 27.875 56 
Q 33.9375 56 38.28125 53.609375 
Q 42.625 51.21875 45.40625 46.390625 
L 45.40625 54.6875 
L 54.390625 54.6875 
z
" id="DejaVuSans-103"/>
     </defs>
     <g transform="translate(325.934063 72.748563)scale(0.1 -0.1)">
      <use xlink:href="#DejaVuSans-65"/>
      <use x="68.330078" xlink:href="#DejaVuSans-118"/>
      <use x="127.509766" xlink:href="#DejaVuSans-103"/>
      <use x="190.986328" xlink:href="#DejaVuSans-46"/>
      <use x="222.773438" xlink:href="#DejaVuSans-32"/>
      <use x="254.560547" xlink:href="#DejaVuSans-83"/>
      <use x="318.037109" xlink:href="#DejaVuSans-117"/>
      <use x="381.416016" xlink:href="#DejaVuSans-112"/>
      <use x="444.892578" xlink:href="#DejaVuSans-112"/>
      <use x="508.369141" xlink:href="#DejaVuSans-111"/>
      <use x="569.550781" xlink:href="#DejaVuSans-114"/>
      <use x="610.664062" xlink:href="#DejaVuSans-116"/>
     </g>
    </g>
    <g id="line2d_40">
     <path d="M 297.934063 83.926688 
L 317.934063 83.926688 
" style="fill:none;stroke:#0000ff;stroke-dasharray:5.55,2.4;stroke-dashoffset:0;stroke-width:1.5;"/>
    </g>
    <g id="line2d_41"/>
    <g id="text_20">
     <!-- Avg. Resistance -->
     <g transform="translate(325.934063 87.426688)scale(0.1 -0.1)">
      <use xlink:href="#DejaVuSans-65"/>
      <use x="68.330078" xlink:href="#DejaVuSans-118"/>
      <use x="127.509766" xlink:href="#DejaVuSans-103"/>
      <use x="190.986328" xlink:href="#DejaVuSans-46"/>
      <use x="222.773438" xlink:href="#DejaVuSans-32"/>
      <use x="254.560547" xlink:href="#DejaVuSans-82"/>
      <use x="323.980469" xlink:href="#DejaVuSans-101"/>
      <use x="385.503906" xlink:href="#DejaVuSans-115"/>
      <use x="437.603516" xlink:href="#DejaVuSans-105"/>
      <use x="465.386719" xlink:href="#DejaVuSans-115"/>
      <use x="517.486328" xlink:href="#DejaVuSans-116"/>
      <use x="556.695312" xlink:href="#DejaVuSans-97"/>
      <use x="617.974609" xlink:href="#DejaVuSans-110"/>
      <use x="681.353516" xlink:href="#DejaVuSans-99"/>
      <use x="736.333984" xlink:href="#DejaVuSans-101"/>
     </g>
    </g>
    <g id="line2d_42">
     <path d="M 297.934063 98.604813 
L 317.934063 98.604813 
" style="fill:none;stroke:#008000;stroke-dasharray:5.55,2.4;stroke-dashoffset:0;stroke-width:1.5;"/>
    </g>
    <g id="line2d_43"/>
    <g id="text_21">
     <!-- Support -->
     <g transform="translate(325.934063 102.104813)scale(0.1 -0.1)">
      <use xlink:href="#DejaVuSans-83"/>
      <use x="63.476562" xlink:href="#DejaVuSans-117"/>
      <use x="126.855469" xlink:href="#DejaVuSans-112"/>
      <use x="190.332031" xlink:href="#DejaVuSans-112"/>
      <use x="253.808594" xlink:href="#DejaVuSans-111"/>
      <use x="314.990234" xlink:href="#DejaVuSans-114"/>
      <use x="356.103516" xlink:href="#DejaVuSans-116"/>
     </g>
    </g>
    <g id="line2d_44">
     <path d="M 297.934063 113.282938 
L 317.934063 113.282938 
" style="fill:none;stroke:#ff0000;stroke-dasharray:5.55,2.4;stroke-dashoffset:0;stroke-width:1.5;"/>
    </g>
    <g id="line2d_45"/>
    <g id="text_22">
     <!-- Resistance -->
     <g transform="translate(325.934063 116.782938)scale(0.1 -0.1)">
      <use xlink:href="#DejaVuSans-82"/>
      <use x="69.419922" xlink:href="#DejaVuSans-101"/>
      <use x="130.943359" xlink:href="#DejaVuSans-115"/>
      <use x="183.042969" xlink:href="#DejaVuSans-105"/>
      <use x="210.826172" xlink:href="#DejaVuSans-115"/>
      <use x="262.925781" xlink:href="#DejaVuSans-116"/>
      <use x="302.134766" xlink:href="#DejaVuSans-97"/>
      <use x="363.414062" xlink:href="#DejaVuSans-110"/>
      <use x="426.792969" xlink:href="#DejaVuSans-99"/>
      <use x="481.773438" xlink:href="#DejaVuSans-101"/>
     </g>
    </g>
   </g>
  </g>
 </g>
 <defs>
  <clipPath id="p137885cadf">
   <rect height="266.112" width="357.12" x="57.6" y="41.472"/>
  </clipPath>
 </defs>
</svg>
