<?xml version="1.0" encoding="utf-8" standalone="no"?>
<!DOCTYPE svg PUBLIC "-//W3C//DTD SVG 1.1//EN"
  "http://www.w3.org/Graphics/SVG/1.1/DTD/svg11.dtd">
<!-- Created with matplotlib (https://matplotlib.org/) -->
<svg height="345.6pt" version="1.1" viewBox="0 0 460.8 345.6" width="460.8pt" xmlns="http://www.w3.org/2000/svg" xmlns:xlink="http://www.w3.org/1999/xlink">
 <defs>
  <style type="text/css">
*{stroke-linecap:butt;stroke-linejoin:round;}
  </style>
 </defs>
 <g id="figure_1">
  <g id="patch_1">
   <path d="M 0 345.6 
L 460.8 345.6 
L 460.8 0 
L 0 0 
z
" style="fill:#ffffff;"/>
  </g>
  <g id="axes_1">
   <g id="patch_2">
    <path d="M 57.6 307.584 
L 414.72 307.584 
L 414.72 41.472 
L 57.6 41.472 
z
" style="fill:#ffffff;"/>
   </g>
   <g id="matplotlib.axis_1">
    <g id="xtick_1">
     <g id="line2d_1">
      <defs>
       <path d="M 0 0 
L 0 3.5 
" id="m67a35e2a45" style="stroke:#000000;stroke-width:0.8;"/>
      </defs>
      <g>
       <use style="stroke:#000000;stroke-width:0.8;" x="73.832727" xlink:href="#m67a35e2a45" y="307.584"/>
      </g>
     </g>
     <g id="text_1">
      <!-- 0 -->
      <defs>
       <path d="M 31.78125 66.40625 
Q 24.171875 66.40625 20.328125 58.90625 
Q 16.5 51.421875 16.5 36.375 
Q 16.5 21.390625 20.328125 13.890625 
Q 24.171875 6.390625 31.78125 6.390625 
Q 39.453125 6.390625 43.28125 13.890625 
Q 47.125 21.390625 47.125 36.375 
Q 47.125 51.421875 43.28125 58.90625 
Q 39.453125 66.40625 31.78125 66.40625 
z
M 31.78125 74.21875 
Q 44.046875 74.21875 50.515625 64.515625 
Q 56.984375 54.828125 56.984375 36.375 
Q 56.984375 17.96875 50.515625 8.265625 
Q 44.046875 -1.421875 31.78125 -1.421875 
Q 19.53125 -1.421875 13.0625 8.265625 
Q 6.59375 17.96875 6.59375 36.375 
Q 6.59375 54.828125 13.0625 64.515625 
Q 19.53125 74.21875 31.78125 74.21875 
z
" id="DejaVuSans-48"/>
      </defs>
      <g transform="translate(67.282797 324.34569)rotate(-30)scale(0.1 -0.1)">
       <use xlink:href="#DejaVuSans-48"/>
      </g>
     </g>
    </g>
    <g id="xtick_2">
     <g id="line2d_2">
      <g>
       <use style="stroke:#000000;stroke-width:0.8;" x="138.763636" xlink:href="#m67a35e2a45" y="307.584"/>
      </g>
     </g>
     <g id="text_2">
      <!-- 100 -->
      <defs>
       <path d="M 12.40625 8.296875 
L 28.515625 8.296875 
L 28.515625 63.921875 
L 10.984375 60.40625 
L 10.984375 69.390625 
L 28.421875 72.90625 
L 38.28125 72.90625 
L 38.28125 8.296875 
L 54.390625 8.296875 
L 54.390625 0 
L 12.40625 0 
z
" id="DejaVuSans-49"/>
      </defs>
      <g transform="translate(121.193533 330.70819)rotate(-30)scale(0.1 -0.1)">
       <use xlink:href="#DejaVuSans-49"/>
       <use x="63.623047" xlink:href="#DejaVuSans-48"/>
       <use x="127.246094" xlink:href="#DejaVuSans-48"/>
      </g>
     </g>
    </g>
    <g id="xtick_3">
     <g id="line2d_3">
      <g>
       <use style="stroke:#000000;stroke-width:0.8;" x="203.694545" xlink:href="#m67a35e2a45" y="307.584"/>
      </g>
     </g>
     <g id="text_3">
      <!-- 200 -->
      <defs>
       <path d="M 19.1875 8.296875 
L 53.609375 8.296875 
L 53.609375 0 
L 7.328125 0 
L 7.328125 8.296875 
Q 12.9375 14.109375 22.625 23.890625 
Q 32.328125 33.6875 34.8125 36.53125 
Q 39.546875 41.84375 41.421875 45.53125 
Q 43.3125 49.21875 43.3125 52.78125 
Q 43.3125 58.59375 39.234375 62.25 
Q 35.15625 65.921875 28.609375 65.921875 
Q 23.96875 65.921875 18.8125 64.3125 
Q 13.671875 62.703125 7.8125 59.421875 
L 7.8125 69.390625 
Q 13.765625 71.78125 18.9375 73 
Q 24.125 74.21875 28.421875 74.21875 
Q 39.75 74.21875 46.484375 68.546875 
Q 53.21875 62.890625 53.21875 53.421875 
Q 53.21875 48.921875 51.53125 44.890625 
Q 49.859375 40.875 45.40625 35.40625 
Q 44.1875 33.984375 37.640625 27.21875 
Q 31.109375 20.453125 19.1875 8.296875 
z
" id="DejaVuSans-50"/>
      </defs>
      <g transform="translate(186.124442 330.70819)rotate(-30)scale(0.1 -0.1)">
       <use xlink:href="#DejaVuSans-50"/>
       <use x="63.623047" xlink:href="#DejaVuSans-48"/>
       <use x="127.246094" xlink:href="#DejaVuSans-48"/>
      </g>
     </g>
    </g>
    <g id="xtick_4">
     <g id="line2d_4">
      <g>
       <use style="stroke:#000000;stroke-width:0.8;" x="268.625455" xlink:href="#m67a35e2a45" y="307.584"/>
      </g>
     </g>
     <g id="text_4">
      <!-- 300 -->
      <defs>
       <path d="M 40.578125 39.3125 
Q 47.65625 37.796875 51.625 33 
Q 55.609375 28.21875 55.609375 21.1875 
Q 55.609375 10.40625 48.1875 4.484375 
Q 40.765625 -1.421875 27.09375 -1.421875 
Q 22.515625 -1.421875 17.65625 -0.515625 
Q 12.796875 0.390625 7.625 2.203125 
L 7.625 11.71875 
Q 11.71875 9.328125 16.59375 8.109375 
Q 21.484375 6.890625 26.8125 6.890625 
Q 36.078125 6.890625 40.9375 10.546875 
Q 45.796875 14.203125 45.796875 21.1875 
Q 45.796875 27.640625 41.28125 31.265625 
Q 36.765625 34.90625 28.71875 34.90625 
L 20.21875 34.90625 
L 20.21875 43.015625 
L 29.109375 43.015625 
Q 36.375 43.015625 40.234375 45.921875 
Q 44.09375 48.828125 44.09375 54.296875 
Q 44.09375 59.90625 40.109375 62.90625 
Q 36.140625 65.921875 28.71875 65.921875 
Q 24.65625 65.921875 20.015625 65.03125 
Q 15.375 64.15625 9.8125 62.3125 
L 9.8125 71.09375 
Q 15.4375 72.65625 20.34375 73.4375 
Q 25.25 74.21875 29.59375 74.21875 
Q 40.828125 74.21875 47.359375 69.109375 
Q 53.90625 64.015625 53.90625 55.328125 
Q 53.90625 49.265625 50.4375 45.09375 
Q 46.96875 40.921875 40.578125 39.3125 
z
" id="DejaVuSans-51"/>
      </defs>
      <g transform="translate(251.055351 330.70819)rotate(-30)scale(0.1 -0.1)">
       <use xlink:href="#DejaVuSans-51"/>
       <use x="63.623047" xlink:href="#DejaVuSans-48"/>
       <use x="127.246094" xlink:href="#DejaVuSans-48"/>
      </g>
     </g>
    </g>
    <g id="xtick_5">
     <g id="line2d_5">
      <g>
       <use style="stroke:#000000;stroke-width:0.8;" x="333.556364" xlink:href="#m67a35e2a45" y="307.584"/>
      </g>
     </g>
     <g id="text_5">
      <!-- 400 -->
      <defs>
       <path d="M 37.796875 64.3125 
L 12.890625 25.390625 
L 37.796875 25.390625 
z
M 35.203125 72.90625 
L 47.609375 72.90625 
L 47.609375 25.390625 
L 58.015625 25.390625 
L 58.015625 17.1875 
L 47.609375 17.1875 
L 47.609375 0 
L 37.796875 0 
L 37.796875 17.1875 
L 4.890625 17.1875 
L 4.890625 26.703125 
z
" id="DejaVuSans-52"/>
      </defs>
      <g transform="translate(315.98626 330.70819)rotate(-30)scale(0.1 -0.1)">
       <use xlink:href="#DejaVuSans-52"/>
       <use x="63.623047" xlink:href="#DejaVuSans-48"/>
       <use x="127.246094" xlink:href="#DejaVuSans-48"/>
      </g>
     </g>
    </g>
    <g id="xtick_6">
     <g id="line2d_6">
      <g>
       <use style="stroke:#000000;stroke-width:0.8;" x="398.487273" xlink:href="#m67a35e2a45" y="307.584"/>
      </g>
     </g>
     <g id="text_6">
      <!-- 500 -->
      <defs>
       <path d="M 10.796875 72.90625 
L 49.515625 72.90625 
L 49.515625 64.59375 
L 19.828125 64.59375 
L 19.828125 46.734375 
Q 21.96875 47.46875 24.109375 47.828125 
Q 26.265625 48.1875 28.421875 48.1875 
Q 40.625 48.1875 47.75 41.5 
Q 54.890625 34.8125 54.890625 23.390625 
Q 54.890625 11.625 47.5625 5.09375 
Q 40.234375 -1.421875 26.90625 -1.421875 
Q 22.3125 -1.421875 17.546875 -0.640625 
Q 12.796875 0.140625 7.71875 1.703125 
L 7.71875 11.625 
Q 12.109375 9.234375 16.796875 8.0625 
Q 21.484375 6.890625 26.703125 6.890625 
Q 35.15625 6.890625 40.078125 11.328125 
Q 45.015625 15.765625 45.015625 23.390625 
Q 45.015625 31 40.078125 35.4375 
Q 35.15625 39.890625 26.703125 39.890625 
Q 22.75 39.890625 18.8125 39.015625 
Q 14.890625 38.140625 10.796875 36.28125 
z
" id="DejaVuSans-53"/>
      </defs>
      <g transform="translate(380.917169 330.70819)rotate(-30)scale(0.1 -0.1)">
       <use xlink:href="#DejaVuSans-53"/>
       <use x="63.623047" xlink:href="#DejaVuSans-48"/>
       <use x="127.246094" xlink:href="#DejaVuSans-48"/>
      </g>
     </g>
    </g>
    <g id="text_7">
     <!-- Date -->
     <defs>
      <path d="M 19.671875 64.796875 
L 19.671875 8.109375 
L 31.59375 8.109375 
Q 46.6875 8.109375 53.6875 14.9375 
Q 60.6875 21.78125 60.6875 36.53125 
Q 60.6875 51.171875 53.6875 57.984375 
Q 46.6875 64.796875 31.59375 64.796875 
z
M 9.8125 72.90625 
L 30.078125 72.90625 
Q 51.265625 72.90625 61.171875 64.09375 
Q 71.09375 55.28125 71.09375 36.53125 
Q 71.09375 17.671875 61.125 8.828125 
Q 51.171875 0 30.078125 0 
L 9.8125 0 
z
" id="DejaVuSans-68"/>
      <path d="M 34.28125 27.484375 
Q 23.390625 27.484375 19.1875 25 
Q 14.984375 22.515625 14.984375 16.5 
Q 14.984375 11.71875 18.140625 8.90625 
Q 21.296875 6.109375 26.703125 6.109375 
Q 34.1875 6.109375 38.703125 11.40625 
Q 43.21875 16.703125 43.21875 25.484375 
L 43.21875 27.484375 
z
M 52.203125 31.203125 
L 52.203125 0 
L 43.21875 0 
L 43.21875 8.296875 
Q 40.140625 3.328125 35.546875 0.953125 
Q 30.953125 -1.421875 24.3125 -1.421875 
Q 15.921875 -1.421875 10.953125 3.296875 
Q 6 8.015625 6 15.921875 
Q 6 25.140625 12.171875 29.828125 
Q 18.359375 34.515625 30.609375 34.515625 
L 43.21875 34.515625 
L 43.21875 35.40625 
Q 43.21875 41.609375 39.140625 45 
Q 35.0625 48.390625 27.6875 48.390625 
Q 23 48.390625 18.546875 47.265625 
Q 14.109375 46.140625 10.015625 43.890625 
L 10.015625 52.203125 
Q 14.9375 54.109375 19.578125 55.046875 
Q 24.21875 56 28.609375 56 
Q 40.484375 56 46.34375 49.84375 
Q 52.203125 43.703125 52.203125 31.203125 
z
" id="DejaVuSans-97"/>
      <path d="M 18.3125 70.21875 
L 18.3125 54.6875 
L 36.8125 54.6875 
L 36.8125 47.703125 
L 18.3125 47.703125 
L 18.3125 18.015625 
Q 18.3125 11.328125 20.140625 9.421875 
Q 21.96875 7.515625 27.59375 7.515625 
L 36.8125 7.515625 
L 36.8125 0 
L 27.59375 0 
Q 17.1875 0 13.234375 3.875 
Q 9.28125 7.765625 9.28125 18.015625 
L 9.28125 47.703125 
L 2.6875 47.703125 
L 2.6875 54.6875 
L 9.28125 54.6875 
L 9.28125 70.21875 
z
" id="DejaVuSans-116"/>
      <path d="M 56.203125 29.59375 
L 56.203125 25.203125 
L 14.890625 25.203125 
Q 15.484375 15.921875 20.484375 11.0625 
Q 25.484375 6.203125 34.421875 6.203125 
Q 39.59375 6.203125 44.453125 7.46875 
Q 49.3125 8.734375 54.109375 11.28125 
L 54.109375 2.78125 
Q 49.265625 0.734375 44.1875 -0.34375 
Q 39.109375 -1.421875 33.890625 -1.421875 
Q 20.796875 -1.421875 13.15625 6.1875 
Q 5.515625 13.8125 5.515625 26.8125 
Q 5.515625 40.234375 12.765625 48.109375 
Q 20.015625 56 32.328125 56 
Q 43.359375 56 49.78125 48.890625 
Q 56.203125 41.796875 56.203125 29.59375 
z
M 47.21875 32.234375 
Q 47.125 39.59375 43.09375 43.984375 
Q 39.0625 48.390625 32.421875 48.390625 
Q 24.90625 48.390625 20.390625 44.140625 
Q 15.875 39.890625 15.1875 32.171875 
z
" id="DejaVuSans-101"/>
     </defs>
     <g transform="translate(224.209219 344.10769)scale(0.1 -0.1)">
      <use xlink:href="#DejaVuSans-68"/>
      <use x="77.001953" xlink:href="#DejaVuSans-97"/>
      <use x="138.28125" xlink:href="#DejaVuSans-116"/>
      <use x="177.490234" xlink:href="#DejaVuSans-101"/>
     </g>
    </g>
   </g>
   <g id="matplotlib.axis_2">
    <g id="ytick_1">
     <g id="line2d_7">
      <defs>
       <path d="M 0 0 
L -3.5 0 
" id="mf6886a6f38" style="stroke:#000000;stroke-width:0.8;"/>
      </defs>
      <g>
       <use style="stroke:#000000;stroke-width:0.8;" x="57.6" xlink:href="#mf6886a6f38" y="283.489608"/>
      </g>
     </g>
     <g id="text_8">
      <!-- 1.13 -->
      <defs>
       <path d="M 10.6875 12.40625 
L 21 12.40625 
L 21 0 
L 10.6875 0 
z
" id="DejaVuSans-46"/>
      </defs>
      <g transform="translate(28.334375 287.288827)scale(0.1 -0.1)">
       <use xlink:href="#DejaVuSans-49"/>
       <use x="63.623047" xlink:href="#DejaVuSans-46"/>
       <use x="95.410156" xlink:href="#DejaVuSans-49"/>
       <use x="159.033203" xlink:href="#DejaVuSans-51"/>
      </g>
     </g>
    </g>
    <g id="ytick_2">
     <g id="line2d_8">
      <g>
       <use style="stroke:#000000;stroke-width:0.8;" x="57.6" xlink:href="#mf6886a6f38" y="249.01147"/>
      </g>
     </g>
     <g id="text_9">
      <!-- 1.14 -->
      <g transform="translate(28.334375 252.810688)scale(0.1 -0.1)">
       <use xlink:href="#DejaVuSans-49"/>
       <use x="63.623047" xlink:href="#DejaVuSans-46"/>
       <use x="95.410156" xlink:href="#DejaVuSans-49"/>
       <use x="159.033203" xlink:href="#DejaVuSans-52"/>
      </g>
     </g>
    </g>
    <g id="ytick_3">
     <g id="line2d_9">
      <g>
       <use style="stroke:#000000;stroke-width:0.8;" x="57.6" xlink:href="#mf6886a6f38" y="214.533332"/>
      </g>
     </g>
     <g id="text_10">
      <!-- 1.15 -->
      <g transform="translate(28.334375 218.33255)scale(0.1 -0.1)">
       <use xlink:href="#DejaVuSans-49"/>
       <use x="63.623047" xlink:href="#DejaVuSans-46"/>
       <use x="95.410156" xlink:href="#DejaVuSans-49"/>
       <use x="159.033203" xlink:href="#DejaVuSans-53"/>
      </g>
     </g>
    </g>
    <g id="ytick_4">
     <g id="line2d_10">
      <g>
       <use style="stroke:#000000;stroke-width:0.8;" x="57.6" xlink:href="#mf6886a6f38" y="180.055193"/>
      </g>
     </g>
     <g id="text_11">
      <!-- 1.16 -->
      <defs>
       <path d="M 33.015625 40.375 
Q 26.375 40.375 22.484375 35.828125 
Q 18.609375 31.296875 18.609375 23.390625 
Q 18.609375 15.53125 22.484375 10.953125 
Q 26.375 6.390625 33.015625 6.390625 
Q 39.65625 6.390625 43.53125 10.953125 
Q 47.40625 15.53125 47.40625 23.390625 
Q 47.40625 31.296875 43.53125 35.828125 
Q 39.65625 40.375 33.015625 40.375 
z
M 52.59375 71.296875 
L 52.59375 62.3125 
Q 48.875 64.0625 45.09375 64.984375 
Q 41.3125 65.921875 37.59375 65.921875 
Q 27.828125 65.921875 22.671875 59.328125 
Q 17.53125 52.734375 16.796875 39.40625 
Q 19.671875 43.65625 24.015625 45.921875 
Q 28.375 48.1875 33.59375 48.1875 
Q 44.578125 48.1875 50.953125 41.515625 
Q 57.328125 34.859375 57.328125 23.390625 
Q 57.328125 12.15625 50.6875 5.359375 
Q 44.046875 -1.421875 33.015625 -1.421875 
Q 20.359375 -1.421875 13.671875 8.265625 
Q 6.984375 17.96875 6.984375 36.375 
Q 6.984375 53.65625 15.1875 63.9375 
Q 23.390625 74.21875 37.203125 74.21875 
Q 40.921875 74.21875 44.703125 73.484375 
Q 48.484375 72.75 52.59375 71.296875 
z
" id="DejaVuSans-54"/>
      </defs>
      <g transform="translate(28.334375 183.854412)scale(0.1 -0.1)">
       <use xlink:href="#DejaVuSans-49"/>
       <use x="63.623047" xlink:href="#DejaVuSans-46"/>
       <use x="95.410156" xlink:href="#DejaVuSans-49"/>
       <use x="159.033203" xlink:href="#DejaVuSans-54"/>
      </g>
     </g>
    </g>
    <g id="ytick_5">
     <g id="line2d_11">
      <g>
       <use style="stroke:#000000;stroke-width:0.8;" x="57.6" xlink:href="#mf6886a6f38" y="145.577055"/>
      </g>
     </g>
     <g id="text_12">
      <!-- 1.17 -->
      <defs>
       <path d="M 8.203125 72.90625 
L 55.078125 72.90625 
L 55.078125 68.703125 
L 28.609375 0 
L 18.3125 0 
L 43.21875 64.59375 
L 8.203125 64.59375 
z
" id="DejaVuSans-55"/>
      </defs>
      <g transform="translate(28.334375 149.376274)scale(0.1 -0.1)">
       <use xlink:href="#DejaVuSans-49"/>
       <use x="63.623047" xlink:href="#DejaVuSans-46"/>
       <use x="95.410156" xlink:href="#DejaVuSans-49"/>
       <use x="159.033203" xlink:href="#DejaVuSans-55"/>
      </g>
     </g>
    </g>
    <g id="ytick_6">
     <g id="line2d_12">
      <g>
       <use style="stroke:#000000;stroke-width:0.8;" x="57.6" xlink:href="#mf6886a6f38" y="111.098917"/>
      </g>
     </g>
     <g id="text_13">
      <!-- 1.18 -->
      <defs>
       <path d="M 31.78125 34.625 
Q 24.75 34.625 20.71875 30.859375 
Q 16.703125 27.09375 16.703125 20.515625 
Q 16.703125 13.921875 20.71875 10.15625 
Q 24.75 6.390625 31.78125 6.390625 
Q 38.8125 6.390625 42.859375 10.171875 
Q 46.921875 13.96875 46.921875 20.515625 
Q 46.921875 27.09375 42.890625 30.859375 
Q 38.875 34.625 31.78125 34.625 
z
M 21.921875 38.8125 
Q 15.578125 40.375 12.03125 44.71875 
Q 8.5 49.078125 8.5 55.328125 
Q 8.5 64.0625 14.71875 69.140625 
Q 20.953125 74.21875 31.78125 74.21875 
Q 42.671875 74.21875 48.875 69.140625 
Q 55.078125 64.0625 55.078125 55.328125 
Q 55.078125 49.078125 51.53125 44.71875 
Q 48 40.375 41.703125 38.8125 
Q 48.828125 37.15625 52.796875 32.3125 
Q 56.78125 27.484375 56.78125 20.515625 
Q 56.78125 9.90625 50.3125 4.234375 
Q 43.84375 -1.421875 31.78125 -1.421875 
Q 19.734375 -1.421875 13.25 4.234375 
Q 6.78125 9.90625 6.78125 20.515625 
Q 6.78125 27.484375 10.78125 32.3125 
Q 14.796875 37.15625 21.921875 38.8125 
z
M 18.3125 54.390625 
Q 18.3125 48.734375 21.84375 45.5625 
Q 25.390625 42.390625 31.78125 42.390625 
Q 38.140625 42.390625 41.71875 45.5625 
Q 45.3125 48.734375 45.3125 54.390625 
Q 45.3125 60.0625 41.71875 63.234375 
Q 38.140625 66.40625 31.78125 66.40625 
Q 25.390625 66.40625 21.84375 63.234375 
Q 18.3125 60.0625 18.3125 54.390625 
z
" id="DejaVuSans-56"/>
      </defs>
      <g transform="translate(28.334375 114.898136)scale(0.1 -0.1)">
       <use xlink:href="#DejaVuSans-49"/>
       <use x="63.623047" xlink:href="#DejaVuSans-46"/>
       <use x="95.410156" xlink:href="#DejaVuSans-49"/>
       <use x="159.033203" xlink:href="#DejaVuSans-56"/>
      </g>
     </g>
    </g>
    <g id="ytick_7">
     <g id="line2d_13">
      <g>
       <use style="stroke:#000000;stroke-width:0.8;" x="57.6" xlink:href="#mf6886a6f38" y="76.620779"/>
      </g>
     </g>
     <g id="text_14">
      <!-- 1.19 -->
      <defs>
       <path d="M 10.984375 1.515625 
L 10.984375 10.5 
Q 14.703125 8.734375 18.5 7.8125 
Q 22.3125 6.890625 25.984375 6.890625 
Q 35.75 6.890625 40.890625 13.453125 
Q 46.046875 20.015625 46.78125 33.40625 
Q 43.953125 29.203125 39.59375 26.953125 
Q 35.25 24.703125 29.984375 24.703125 
Q 19.046875 24.703125 12.671875 31.3125 
Q 6.296875 37.9375 6.296875 49.421875 
Q 6.296875 60.640625 12.9375 67.421875 
Q 19.578125 74.21875 30.609375 74.21875 
Q 43.265625 74.21875 49.921875 64.515625 
Q 56.59375 54.828125 56.59375 36.375 
Q 56.59375 19.140625 48.40625 8.859375 
Q 40.234375 -1.421875 26.421875 -1.421875 
Q 22.703125 -1.421875 18.890625 -0.6875 
Q 15.09375 0.046875 10.984375 1.515625 
z
M 30.609375 32.421875 
Q 37.25 32.421875 41.125 36.953125 
Q 45.015625 41.5 45.015625 49.421875 
Q 45.015625 57.28125 41.125 61.84375 
Q 37.25 66.40625 30.609375 66.40625 
Q 23.96875 66.40625 20.09375 61.84375 
Q 16.21875 57.28125 16.21875 49.421875 
Q 16.21875 41.5 20.09375 36.953125 
Q 23.96875 32.421875 30.609375 32.421875 
z
" id="DejaVuSans-57"/>
      </defs>
      <g transform="translate(28.334375 80.419998)scale(0.1 -0.1)">
       <use xlink:href="#DejaVuSans-49"/>
       <use x="63.623047" xlink:href="#DejaVuSans-46"/>
       <use x="95.410156" xlink:href="#DejaVuSans-49"/>
       <use x="159.033203" xlink:href="#DejaVuSans-57"/>
      </g>
     </g>
    </g>
    <g id="ytick_8">
     <g id="line2d_14">
      <g>
       <use style="stroke:#000000;stroke-width:0.8;" x="57.6" xlink:href="#mf6886a6f38" y="42.142641"/>
      </g>
     </g>
     <g id="text_15">
      <!-- 1.20 -->
      <g transform="translate(28.334375 45.941859)scale(0.1 -0.1)">
       <use xlink:href="#DejaVuSans-49"/>
       <use x="63.623047" xlink:href="#DejaVuSans-46"/>
       <use x="95.410156" xlink:href="#DejaVuSans-50"/>
       <use x="159.033203" xlink:href="#DejaVuSans-48"/>
      </g>
     </g>
    </g>
    <g id="text_16">
     <!-- Price -->
     <defs>
      <path d="M 19.671875 64.796875 
L 19.671875 37.40625 
L 32.078125 37.40625 
Q 38.96875 37.40625 42.71875 40.96875 
Q 46.484375 44.53125 46.484375 51.125 
Q 46.484375 57.671875 42.71875 61.234375 
Q 38.96875 64.796875 32.078125 64.796875 
z
M 9.8125 72.90625 
L 32.078125 72.90625 
Q 44.34375 72.90625 50.609375 67.359375 
Q 56.890625 61.8125 56.890625 51.125 
Q 56.890625 40.328125 50.609375 34.8125 
Q 44.34375 29.296875 32.078125 29.296875 
L 19.671875 29.296875 
L 19.671875 0 
L 9.8125 0 
z
" id="DejaVuSans-80"/>
      <path d="M 41.109375 46.296875 
Q 39.59375 47.171875 37.8125 47.578125 
Q 36.03125 48 33.890625 48 
Q 26.265625 48 22.1875 43.046875 
Q 18.109375 38.09375 18.109375 28.8125 
L 18.109375 0 
L 9.078125 0 
L 9.078125 54.6875 
L 18.109375 54.6875 
L 18.109375 46.1875 
Q 20.953125 51.171875 25.484375 53.578125 
Q 30.03125 56 36.53125 56 
Q 37.453125 56 38.578125 55.875 
Q 39.703125 55.765625 41.0625 55.515625 
z
" id="DejaVuSans-114"/>
      <path d="M 9.421875 54.6875 
L 18.40625 54.6875 
L 18.40625 0 
L 9.421875 0 
z
M 9.421875 75.984375 
L 18.40625 75.984375 
L 18.40625 64.59375 
L 9.421875 64.59375 
z
" id="DejaVuSans-105"/>
      <path d="M 48.78125 52.59375 
L 48.78125 44.1875 
Q 44.96875 46.296875 41.140625 47.34375 
Q 37.3125 48.390625 33.40625 48.390625 
Q 24.65625 48.390625 19.8125 42.84375 
Q 14.984375 37.3125 14.984375 27.296875 
Q 14.984375 17.28125 19.8125 11.734375 
Q 24.65625 6.203125 33.40625 6.203125 
Q 37.3125 6.203125 41.140625 7.25 
Q 44.96875 8.296875 48.78125 10.40625 
L 48.78125 2.09375 
Q 45.015625 0.34375 40.984375 -0.53125 
Q 36.96875 -1.421875 32.421875 -1.421875 
Q 20.0625 -1.421875 12.78125 6.34375 
Q 5.515625 14.109375 5.515625 27.296875 
Q 5.515625 40.671875 12.859375 48.328125 
Q 20.21875 56 33.015625 56 
Q 37.15625 56 41.109375 55.140625 
Q 45.0625 54.296875 48.78125 52.59375 
z
" id="DejaVuSans-99"/>
     </defs>
     <g transform="translate(22.254688 186.812375)rotate(-90)scale(0.1 -0.1)">
      <use xlink:href="#DejaVuSans-80"/>
      <use x="60.287109" xlink:href="#DejaVuSans-114"/>
      <use x="101.400391" xlink:href="#DejaVuSans-105"/>
      <use x="129.183594" xlink:href="#DejaVuSans-99"/>
      <use x="184.164062" xlink:href="#DejaVuSans-101"/>
     </g>
    </g>
   </g>
   <g id="line2d_15">
    <path clip-path="url(#pf44b87e420)" d="M 73.832727 290.936886 
L 74.482036 292.90214 
L 75.131345 292.384968 
L 75.780655 293.419312 
L 76.429964 293.970962 
L 77.079273 295.488 
L 77.728582 290.661061 
L 78.377891 288.419982 
L 79.0272 286.59264 
L 79.676509 285.558296 
L 80.325818 288.178635 
L 80.975127 285.799643 
L 82.273745 276.766371 
L 82.923055 277.628324 
L 83.572364 283.558564 
L 84.221673 281.627788 
L 84.870982 284.110214 
L 85.520291 283.213783 
L 86.1696 283.420652 
L 86.818909 281.489876 
L 87.468218 278.007584 
L 88.117527 280.524488 
L 88.766836 278.4558 
L 90.065455 275.007986 
L 90.714764 274.318423 
L 91.364073 275.697549 
L 92.013382 273.353035 
L 92.662691 272.870341 
L 93.312 277.076674 
L 93.961309 280.49001 
L 95.259927 273.284079 
L 95.909236 271.663607 
L 96.558545 274.663205 
L 97.207855 265.147238 
L 97.857164 260.182387 
L 98.506473 261.354643 
L 99.155782 260.251343 
L 99.805091 259.492824 
L 100.4544 265.216195 
L 101.103709 266.250539 
L 101.753018 268.595052 
L 102.402327 267.353839 
L 103.051636 267.974446 
L 104.350255 268.008924 
L 104.999564 268.45714 
L 105.648873 270.043134 
L 106.947491 267.905489 
L 107.5968 270.318959 
L 108.246109 268.664008 
L 108.895418 272.732429 
L 109.544727 265.974714 
L 110.843345 259.216999 
L 111.492655 256.665616 
L 112.141964 258.699827 
L 112.791273 252.52824 
L 113.440582 249.287295 
L 114.089891 247.046216 
L 114.7392 247.908169 
L 115.388509 250.11477 
L 116.037818 251.218071 
L 116.687127 252.873021 
L 117.336436 249.01147 
L 117.985745 247.908169 
L 118.635055 245.942915 
L 119.284364 245.425743 
L 119.933673 244.494834 
L 120.582982 244.874093 
L 121.232291 248.046082 
L 121.8816 249.804467 
L 122.530909 250.66642 
L 123.180218 249.080426 
L 123.829527 247.115172 
L 124.478836 237.70264 
L 125.128145 236.22008 
L 125.777455 239.702372 
L 126.426764 234.840955 
L 127.725382 236.875165 
L 128.374691 239.495504 
L 129.024 242.943317 
L 129.673309 247.011738 
L 130.322618 246.529044 
L 130.971927 246.908303 
L 131.621236 246.97726 
L 132.919855 244.874093 
L 134.218473 244.839615 
L 134.867782 243.012274 
L 135.517091 243.908705 
L 136.1664 244.18453 
L 136.815709 247.908169 
L 137.465018 247.184128 
L 138.114327 246.942781 
L 138.763636 247.839213 
L 139.412945 249.769989 
L 140.062255 246.287697 
L 140.711564 251.355983 
L 141.360873 255.527838 
L 142.010182 250.735377 
L 142.659491 244.460355 
L 143.3088 245.391265 
L 143.958109 238.943853 
L 144.607418 237.840553 
L 145.256727 237.909509 
L 146.555345 254.941709 
L 147.204655 256.251879 
L 147.853964 255.1141 
L 148.503273 254.631406 
L 149.152582 255.562316 
L 149.801891 254.18319 
L 150.4512 253.148846 
L 151.749818 255.424403 
L 152.399127 254.114234 
L 153.048436 251.804199 
L 153.697745 253.321237 
L 154.347055 255.976054 
L 154.996364 255.079622 
L 155.645673 252.252415 
L 156.294982 243.322577 
L 156.944291 244.460355 
L 157.5936 239.150722 
L 158.242909 241.495236 
L 158.892218 242.460623 
L 159.541527 238.357725 
L 160.190836 241.495236 
L 160.840145 236.22008 
L 161.489455 236.737253 
L 162.138764 236.116646 
L 162.788073 236.254559 
L 163.437382 235.220214 
L 164.086691 239.288635 
L 164.736 242.52958 
L 165.385309 236.668296 
L 166.034618 234.461695 
L 166.683927 241.288367 
L 167.333236 243.288099 
L 167.982545 242.736449 
L 168.631855 242.52958 
L 169.281164 234.254827 
L 169.930473 230.944925 
L 170.579782 229.01415 
L 171.229091 229.807147 
L 171.8784 229.221018 
L 172.527709 229.876103 
L 173.177018 230.944925 
L 173.826327 233.117048 
L 174.475636 242.598536 
L 175.124945 242.598536 
L 175.774255 235.289171 
L 176.423564 234.151392 
L 177.072873 235.702908 
L 177.722182 236.59934 
L 178.371491 234.909911 
L 179.0208 232.393007 
L 179.670109 232.668832 
L 180.319418 234.01348 
L 180.968727 233.08257 
L 181.618036 229.703712 
L 182.267345 229.841625 
L 182.916655 228.531456 
L 183.565964 228.255631 
L 184.864582 238.461159 
L 185.513891 233.944523 
L 186.1632 233.151526 
L 186.812509 234.254827 
L 188.111127 233.910045 
L 188.760436 235.909777 
L 189.409745 236.116646 
L 190.059055 235.633952 
L 190.708364 228.531456 
L 191.357673 218.808621 
L 192.006982 216.739932 
L 192.656291 208.947873 
L 193.3056 202.948677 
L 193.954909 203.879587 
L 194.604218 205.775884 
L 195.253527 205.258712 
L 195.902836 203.500327 
L 196.552145 203.431371 
L 197.201455 202.465983 
L 197.850764 203.879587 
L 198.500073 200.811033 
L 199.149382 198.845779 
L 199.798691 200.604164 
L 200.448 201.05238 
L 201.097309 200.914467 
L 201.746618 203.63824 
L 202.395927 208.051442 
L 203.045236 206.810229 
L 204.343855 190.812372 
L 204.993164 187.502471 
L 205.642473 181.503275 
L 206.291782 183.192704 
L 206.941091 182.296272 
L 207.5904 184.606308 
L 208.889018 190.881329 
L 209.538327 190.67446 
L 210.187636 187.502471 
L 210.836945 190.467591 
L 211.486255 189.433247 
L 212.135564 190.467591 
L 212.784873 192.225976 
L 213.434182 191.22611 
L 214.083491 188.881597 
L 214.7328 191.157154 
L 215.382109 187.950687 
L 216.680727 185.433783 
L 217.330036 183.054791 
L 217.979345 184.813176 
L 218.628655 183.985701 
L 219.277964 182.951357 
L 219.927273 184.468395 
L 220.576582 189.640116 
L 221.225891 200.018035 
L 221.8752 184.847655 
L 222.524509 181.641188 
L 223.173818 172.33209 
L 223.823127 173.021653 
L 224.472436 177.296942 
L 225.121745 177.021117 
L 225.771055 182.537619 
L 226.420364 181.330884 
L 227.069673 181.675666 
L 227.718982 179.19324 
L 228.368291 181.710144 
L 229.0176 175.193776 
L 229.666909 175.29721 
L 230.316218 174.883473 
L 230.965527 175.504079 
L 231.614836 180.606844 
L 232.264145 179.020849 
L 232.913455 175.159298 
L 233.562764 176.814248 
L 234.212073 179.951759 
L 234.861382 180.951625 
L 235.510691 185.67513 
L 236.16 179.606978 
L 236.809309 174.917951 
L 237.458618 175.883339 
L 238.107927 171.366703 
L 238.757236 168.332626 
L 239.406545 167.918889 
L 240.055855 166.057069 
L 240.705164 167.574107 
L 241.354473 165.8502 
L 242.003782 160.816392 
L 242.653091 164.815856 
L 243.3024 161.885215 
L 243.951709 162.885081 
L 244.601018 149.473085 
L 245.250327 148.197394 
L 245.899636 141.991329 
L 246.548945 141.853416 
L 247.198255 143.784192 
L 247.847564 145.094361 
L 248.496873 142.474023 
L 249.146182 146.78379 
L 249.795491 147.16305 
L 250.4448 143.335976 
L 251.743418 130.372196 
L 252.392727 132.061625 
L 253.691345 118.925454 
L 254.340655 128.303508 
L 254.989964 130.061893 
L 255.639273 126.441688 
L 256.937891 129.855024 
L 257.5872 127.786336 
L 258.236509 128.165595 
L 258.885818 123.717916 
L 259.535127 121.959531 
L 260.184436 122.683571 
L 260.833745 125.407344 
L 261.483055 130.165327 
L 262.132364 137.164389 
L 262.781673 134.785398 
L 263.430982 133.440751 
L 264.080291 136.130045 
L 264.7296 141.853416 
L 265.378909 138.26769 
L 266.028218 135.647351 
L 266.677527 132.544319 
L 267.326836 143.991061 
L 267.976145 134.19927 
L 268.625455 134.440617 
L 269.274764 135.509439 
L 270.573382 133.509707 
L 271.222691 134.957789 
L 271.872 137.302302 
L 272.521309 140.612203 
L 273.170618 140.026075 
L 273.819927 138.060821 
L 275.118545 139.095165 
L 276.417164 137.233346 
L 277.066473 135.750786 
L 277.715782 135.68183 
L 278.365091 135.30257 
L 279.0144 133.647619 
L 280.313018 125.062563 
L 280.962327 128.062161 
L 281.611636 129.234418 
L 282.260945 129.613677 
L 282.910255 137.853952 
L 283.559564 130.510109 
L 284.208873 126.545123 
L 284.858182 119.718452 
L 285.507491 121.649227 
L 286.1568 120.201145 
L 286.806109 115.236294 
L 287.455418 122.511181 
L 288.104727 118.959933 
L 288.754036 113.995081 
L 289.403345 113.374474 
L 290.052655 114.512253 
L 290.701964 117.71872 
L 291.351273 118.132457 
L 292.000582 121.269968 
L 292.649891 118.959933 
L 293.2992 119.304714 
L 294.597818 125.028085 
L 295.247127 126.062429 
L 295.896436 125.579735 
L 296.545745 131.027281 
L 297.195055 125.786604 
L 297.844364 129.37233 
L 298.493673 128.717246 
L 299.142982 118.959933 
L 299.792291 115.201815 
L 300.4416 112.788346 
L 301.090909 114.37434 
L 301.740218 109.788748 
L 302.389527 101.376082 
L 303.038836 97.721399 
L 303.688145 95.687189 
L 304.337455 94.721801 
L 304.986764 96.480186 
L 305.636073 94.480454 
L 306.285382 86.205701 
L 306.934691 88.308868 
L 307.584 82.34415 
L 308.233309 79.861724 
L 308.882618 79.447986 
L 309.531927 77.448254 
L 310.181236 80.689199 
L 310.830545 76.069129 
L 311.479855 84.964488 
L 312.129164 91.101597 
L 312.778473 91.377422 
L 313.427782 93.894326 
L 314.077091 97.34214 
L 314.7264 95.997492 
L 315.375709 102.686251 
L 316.025018 100.341738 
L 316.674327 103.582683 
L 317.323636 114.132993 
L 317.972945 114.650165 
L 318.622255 114.960468 
L 319.271564 118.339326 
L 319.920873 118.339326 
L 320.570182 118.890976 
L 321.219491 113.029693 
L 321.8688 117.511851 
L 322.518109 127.165729 
L 323.167418 120.959665 
L 323.816727 122.062965 
L 324.466036 120.339058 
L 325.115345 119.37367 
L 325.764655 120.132189 
L 326.413964 128.337986 
L 327.063273 124.062697 
L 327.712582 118.27037 
L 328.361891 130.199806 
L 329.0112 136.957521 
L 329.660509 136.819608 
L 330.309818 142.956717 
L 331.608436 132.440885 
L 332.257745 128.406942 
L 332.907055 128.613811 
L 333.556364 127.648423 
L 334.205673 125.200476 
L 334.854982 123.44209 
L 336.1536 124.821216 
L 336.802909 124.75226 
L 337.452218 124.821216 
L 338.101527 127.027817 
L 338.750836 125.441822 
L 339.400145 120.614883 
L 340.049455 122.200878 
L 340.698764 120.063233 
L 341.348073 122.545659 
L 342.646691 115.684509 
L 343.296 113.581343 
L 343.945309 112.822824 
L 344.594618 121.373402 
L 345.243927 124.476435 
L 345.893236 135.785264 
L 346.542545 137.095433 
L 347.191855 126.062429 
L 347.841164 123.062831 
L 348.490473 118.753064 
L 349.139782 117.029157 
L 349.789091 117.167069 
L 350.4384 110.133529 
L 351.087709 110.168007 
L 351.737018 112.064305 
L 352.386327 111.719523 
L 353.035636 106.271978 
L 353.684945 107.926928 
L 354.334255 107.582147 
L 354.983564 104.203289 
L 355.632873 105.823762 
L 356.282182 105.341068 
L 356.931491 110.064573 
L 357.5808 102.686251 
L 358.230109 104.065377 
L 358.879418 97.204227 
L 359.528727 91.584291 
L 360.178036 99.514263 
L 361.476655 84.274926 
L 362.125964 79.620377 
L 362.775273 82.930278 
L 363.424582 77.724079 
L 364.073891 85.791964 
L 364.7232 88.481258 
L 365.372509 90.377556 
L 366.021818 90.687859 
L 366.671127 89.101865 
L 367.320436 88.412302 
L 367.969745 86.136745 
L 368.619055 86.240179 
L 369.268364 83.930144 
L 369.917673 86.240179 
L 370.566982 89.170821 
L 371.216291 86.033311 
L 371.8656 83.723275 
L 372.514909 83.033713 
L 373.164218 83.309538 
L 373.813527 96.376752 
L 374.462836 96.41123 
L 375.112145 90.136209 
L 375.761455 96.342274 
L 376.410764 94.75628 
L 377.060073 94.273586 
L 377.709382 91.653247 
L 378.358691 95.928536 
L 379.008 92.377288 
L 379.657309 83.44745 
L 380.306618 83.861188 
L 380.955927 85.516138 
L 381.605236 85.30927 
L 382.254545 84.37836 
L 382.903855 84.309404 
L 383.553164 83.102669 
L 384.202473 85.033445 
L 384.851782 85.447182 
L 385.501091 87.377958 
L 386.1504 97.652443 
L 386.799709 101.996689 
L 388.098327 96.273318 
L 388.747636 100.272782 
L 389.396945 97.100793 
L 390.046255 99.790088 
L 390.695564 105.168677 
L 391.344873 103.203423 
L 391.994182 104.892852 
L 392.643491 100.341738 
L 393.2928 120.511449 
L 393.942109 115.029425 
L 394.591418 119.580539 
L 395.240727 121.683705 
L 395.890036 117.580807 
L 396.539345 117.580807 
L 397.188655 114.92599 
L 397.837964 115.925856 
L 397.837964 115.925856 
" style="fill:none;stroke:#000000;stroke-dasharray:5.55,2.4;stroke-dashoffset:0;stroke-width:1.5;"/>
   </g>
   <g id="line2d_16">
    <defs>
     <path d="M 0 3 
C 0.795609 3 1.55874 2.683901 2.12132 2.12132 
C 2.683901 1.55874 3 0.795609 3 0 
C 3 -0.795609 2.683901 -1.55874 2.12132 -2.12132 
C 1.55874 -2.683901 0.795609 -3 0 -3 
C -0.795609 -3 -1.55874 -2.683901 -2.12132 -2.12132 
C -2.683901 -1.55874 -3 -0.795609 -3 0 
C -3 0.795609 -2.683901 1.55874 -2.12132 2.12132 
C -1.55874 2.683901 -0.795609 3 0 3 
z
" id="mfd29a9ec9a" style="stroke:#bfbf00;"/>
    </defs>
    <g clip-path="url(#pf44b87e420)">
     <use style="fill:#bfbf00;stroke:#bfbf00;" x="77.079273" xlink:href="#mfd29a9ec9a" y="295.488"/>
     <use style="fill:#bfbf00;stroke:#bfbf00;" x="80.325818" xlink:href="#mfd29a9ec9a" y="288.178635"/>
     <use style="fill:#bfbf00;stroke:#bfbf00;" x="84.870982" xlink:href="#mfd29a9ec9a" y="284.110214"/>
     <use style="fill:#bfbf00;stroke:#bfbf00;" x="88.117527" xlink:href="#mfd29a9ec9a" y="280.524488"/>
     <use style="fill:#bfbf00;stroke:#bfbf00;" x="91.364073" xlink:href="#mfd29a9ec9a" y="275.697549"/>
     <use style="fill:#bfbf00;stroke:#bfbf00;" x="93.961309" xlink:href="#mfd29a9ec9a" y="280.49001"/>
     <use style="fill:#bfbf00;stroke:#bfbf00;" x="96.558545" xlink:href="#mfd29a9ec9a" y="274.663205"/>
     <use style="fill:#bfbf00;stroke:#bfbf00;" x="98.506473" xlink:href="#mfd29a9ec9a" y="261.354643"/>
     <use style="fill:#bfbf00;stroke:#bfbf00;" x="101.753018" xlink:href="#mfd29a9ec9a" y="268.595052"/>
     <use style="fill:#bfbf00;stroke:#bfbf00;" x="105.648873" xlink:href="#mfd29a9ec9a" y="270.043134"/>
     <use style="fill:#bfbf00;stroke:#bfbf00;" x="108.895418" xlink:href="#mfd29a9ec9a" y="272.732429"/>
     <use style="fill:#bfbf00;stroke:#bfbf00;" x="116.687127" xlink:href="#mfd29a9ec9a" y="252.873021"/>
     <use style="fill:#bfbf00;stroke:#bfbf00;" x="122.530909" xlink:href="#mfd29a9ec9a" y="250.66642"/>
     <use style="fill:#bfbf00;stroke:#bfbf00;" x="125.777455" xlink:href="#mfd29a9ec9a" y="239.702372"/>
     <use style="fill:#bfbf00;stroke:#bfbf00;" x="129.673309" xlink:href="#mfd29a9ec9a" y="247.011738"/>
     <use style="fill:#bfbf00;stroke:#bfbf00;" x="131.621236" xlink:href="#mfd29a9ec9a" y="246.97726"/>
     <use style="fill:#bfbf00;stroke:#bfbf00;" x="136.815709" xlink:href="#mfd29a9ec9a" y="247.908169"/>
     <use style="fill:#bfbf00;stroke:#bfbf00;" x="139.412945" xlink:href="#mfd29a9ec9a" y="249.769989"/>
     <use style="fill:#bfbf00;stroke:#bfbf00;" x="141.360873" xlink:href="#mfd29a9ec9a" y="255.527838"/>
     <use style="fill:#bfbf00;stroke:#bfbf00;" x="147.204655" xlink:href="#mfd29a9ec9a" y="256.251879"/>
     <use style="fill:#bfbf00;stroke:#bfbf00;" x="149.152582" xlink:href="#mfd29a9ec9a" y="255.562316"/>
     <use style="fill:#bfbf00;stroke:#bfbf00;" x="151.749818" xlink:href="#mfd29a9ec9a" y="255.424403"/>
     <use style="fill:#bfbf00;stroke:#bfbf00;" x="154.347055" xlink:href="#mfd29a9ec9a" y="255.976054"/>
     <use style="fill:#bfbf00;stroke:#bfbf00;" x="158.892218" xlink:href="#mfd29a9ec9a" y="242.460623"/>
     <use style="fill:#bfbf00;stroke:#bfbf00;" x="164.736" xlink:href="#mfd29a9ec9a" y="242.52958"/>
     <use style="fill:#bfbf00;stroke:#bfbf00;" x="167.333236" xlink:href="#mfd29a9ec9a" y="243.288099"/>
     <use style="fill:#bfbf00;stroke:#bfbf00;" x="174.475636" xlink:href="#mfd29a9ec9a" y="242.598536"/>
     <use style="fill:#bfbf00;stroke:#bfbf00;" x="177.722182" xlink:href="#mfd29a9ec9a" y="236.59934"/>
     <use style="fill:#bfbf00;stroke:#bfbf00;" x="180.319418" xlink:href="#mfd29a9ec9a" y="234.01348"/>
     <use style="fill:#bfbf00;stroke:#bfbf00;" x="184.864582" xlink:href="#mfd29a9ec9a" y="238.461159"/>
     <use style="fill:#bfbf00;stroke:#bfbf00;" x="186.812509" xlink:href="#mfd29a9ec9a" y="234.254827"/>
     <use style="fill:#bfbf00;stroke:#bfbf00;" x="189.409745" xlink:href="#mfd29a9ec9a" y="236.116646"/>
     <use style="fill:#bfbf00;stroke:#bfbf00;" x="194.604218" xlink:href="#mfd29a9ec9a" y="205.775884"/>
     <use style="fill:#bfbf00;stroke:#bfbf00;" x="197.850764" xlink:href="#mfd29a9ec9a" y="203.879587"/>
     <use style="fill:#bfbf00;stroke:#bfbf00;" x="202.395927" xlink:href="#mfd29a9ec9a" y="208.051442"/>
     <use style="fill:#bfbf00;stroke:#bfbf00;" x="208.889018" xlink:href="#mfd29a9ec9a" y="190.881329"/>
     <use style="fill:#bfbf00;stroke:#bfbf00;" x="212.784873" xlink:href="#mfd29a9ec9a" y="192.225976"/>
     <use style="fill:#bfbf00;stroke:#bfbf00;" x="217.979345" xlink:href="#mfd29a9ec9a" y="184.813176"/>
     <use style="fill:#bfbf00;stroke:#bfbf00;" x="221.225891" xlink:href="#mfd29a9ec9a" y="200.018035"/>
     <use style="fill:#bfbf00;stroke:#bfbf00;" x="225.771055" xlink:href="#mfd29a9ec9a" y="182.537619"/>
     <use style="fill:#bfbf00;stroke:#bfbf00;" x="228.368291" xlink:href="#mfd29a9ec9a" y="181.710144"/>
     <use style="fill:#bfbf00;stroke:#bfbf00;" x="231.614836" xlink:href="#mfd29a9ec9a" y="180.606844"/>
     <use style="fill:#bfbf00;stroke:#bfbf00;" x="235.510691" xlink:href="#mfd29a9ec9a" y="185.67513"/>
     <use style="fill:#bfbf00;stroke:#bfbf00;" x="242.653091" xlink:href="#mfd29a9ec9a" y="164.815856"/>
     <use style="fill:#bfbf00;stroke:#bfbf00;" x="247.847564" xlink:href="#mfd29a9ec9a" y="145.094361"/>
     <use style="fill:#bfbf00;stroke:#bfbf00;" x="249.795491" xlink:href="#mfd29a9ec9a" y="147.16305"/>
     <use style="fill:#bfbf00;stroke:#bfbf00;" x="254.989964" xlink:href="#mfd29a9ec9a" y="130.061893"/>
     <use style="fill:#bfbf00;stroke:#bfbf00;" x="256.937891" xlink:href="#mfd29a9ec9a" y="129.855024"/>
     <use style="fill:#bfbf00;stroke:#bfbf00;" x="262.132364" xlink:href="#mfd29a9ec9a" y="137.164389"/>
     <use style="fill:#bfbf00;stroke:#bfbf00;" x="264.7296" xlink:href="#mfd29a9ec9a" y="141.853416"/>
     <use style="fill:#bfbf00;stroke:#bfbf00;" x="267.326836" xlink:href="#mfd29a9ec9a" y="143.991061"/>
     <use style="fill:#bfbf00;stroke:#bfbf00;" x="269.274764" xlink:href="#mfd29a9ec9a" y="135.509439"/>
     <use style="fill:#bfbf00;stroke:#bfbf00;" x="272.521309" xlink:href="#mfd29a9ec9a" y="140.612203"/>
     <use style="fill:#bfbf00;stroke:#bfbf00;" x="275.118545" xlink:href="#mfd29a9ec9a" y="139.095165"/>
     <use style="fill:#bfbf00;stroke:#bfbf00;" x="282.910255" xlink:href="#mfd29a9ec9a" y="137.853952"/>
     <use style="fill:#bfbf00;stroke:#bfbf00;" x="285.507491" xlink:href="#mfd29a9ec9a" y="121.649227"/>
     <use style="fill:#bfbf00;stroke:#bfbf00;" x="287.455418" xlink:href="#mfd29a9ec9a" y="122.511181"/>
     <use style="fill:#bfbf00;stroke:#bfbf00;" x="292.000582" xlink:href="#mfd29a9ec9a" y="121.269968"/>
     <use style="fill:#bfbf00;stroke:#bfbf00;" x="296.545745" xlink:href="#mfd29a9ec9a" y="131.027281"/>
     <use style="fill:#bfbf00;stroke:#bfbf00;" x="297.844364" xlink:href="#mfd29a9ec9a" y="129.37233"/>
     <use style="fill:#bfbf00;stroke:#bfbf00;" x="304.986764" xlink:href="#mfd29a9ec9a" y="96.480186"/>
     <use style="fill:#bfbf00;stroke:#bfbf00;" x="310.181236" xlink:href="#mfd29a9ec9a" y="80.689199"/>
     <use style="fill:#bfbf00;stroke:#bfbf00;" x="320.570182" xlink:href="#mfd29a9ec9a" y="118.890976"/>
     <use style="fill:#bfbf00;stroke:#bfbf00;" x="322.518109" xlink:href="#mfd29a9ec9a" y="127.165729"/>
     <use style="fill:#bfbf00;stroke:#bfbf00;" x="326.413964" xlink:href="#mfd29a9ec9a" y="128.337986"/>
     <use style="fill:#bfbf00;stroke:#bfbf00;" x="330.309818" xlink:href="#mfd29a9ec9a" y="142.956717"/>
     <use style="fill:#bfbf00;stroke:#bfbf00;" x="338.101527" xlink:href="#mfd29a9ec9a" y="127.027817"/>
     <use style="fill:#bfbf00;stroke:#bfbf00;" x="341.348073" xlink:href="#mfd29a9ec9a" y="122.545659"/>
     <use style="fill:#bfbf00;stroke:#bfbf00;" x="346.542545" xlink:href="#mfd29a9ec9a" y="137.095433"/>
     <use style="fill:#bfbf00;stroke:#bfbf00;" x="351.737018" xlink:href="#mfd29a9ec9a" y="112.064305"/>
     <use style="fill:#bfbf00;stroke:#bfbf00;" x="353.684945" xlink:href="#mfd29a9ec9a" y="107.926928"/>
     <use style="fill:#bfbf00;stroke:#bfbf00;" x="356.931491" xlink:href="#mfd29a9ec9a" y="110.064573"/>
     <use style="fill:#bfbf00;stroke:#bfbf00;" x="360.178036" xlink:href="#mfd29a9ec9a" y="99.514263"/>
     <use style="fill:#bfbf00;stroke:#bfbf00;" x="366.021818" xlink:href="#mfd29a9ec9a" y="90.687859"/>
     <use style="fill:#bfbf00;stroke:#bfbf00;" x="370.566982" xlink:href="#mfd29a9ec9a" y="89.170821"/>
     <use style="fill:#bfbf00;stroke:#bfbf00;" x="374.462836" xlink:href="#mfd29a9ec9a" y="96.41123"/>
     <use style="fill:#bfbf00;stroke:#bfbf00;" x="375.761455" xlink:href="#mfd29a9ec9a" y="96.342274"/>
     <use style="fill:#bfbf00;stroke:#bfbf00;" x="378.358691" xlink:href="#mfd29a9ec9a" y="95.928536"/>
     <use style="fill:#bfbf00;stroke:#bfbf00;" x="380.955927" xlink:href="#mfd29a9ec9a" y="85.516138"/>
     <use style="fill:#bfbf00;stroke:#bfbf00;" x="386.799709" xlink:href="#mfd29a9ec9a" y="101.996689"/>
     <use style="fill:#bfbf00;stroke:#bfbf00;" x="388.747636" xlink:href="#mfd29a9ec9a" y="100.272782"/>
     <use style="fill:#bfbf00;stroke:#bfbf00;" x="390.695564" xlink:href="#mfd29a9ec9a" y="105.168677"/>
     <use style="fill:#bfbf00;stroke:#bfbf00;" x="393.2928" xlink:href="#mfd29a9ec9a" y="120.511449"/>
     <use style="fill:#bfbf00;stroke:#bfbf00;" x="395.240727" xlink:href="#mfd29a9ec9a" y="121.683705"/>
    </g>
   </g>
   <g id="line2d_17">
    <path clip-path="url(#pf44b87e420)" d="M 73.832727 288.175233 
L 397.837964 75.204806 
" style="fill:none;stroke:#bfbf00;stroke-dasharray:5.55,2.4;stroke-dashoffset:0;stroke-width:1.5;"/>
   </g>
   <g id="line2d_18">
    <defs>
     <path d="M 0 3 
C 0.795609 3 1.55874 2.683901 2.12132 2.12132 
C 2.683901 1.55874 3 0.795609 3 0 
C 3 -0.795609 2.683901 -1.55874 2.12132 -2.12132 
C 1.55874 -2.683901 0.795609 -3 0 -3 
C -0.795609 -3 -1.55874 -2.683901 -2.12132 -2.12132 
C -2.683901 -1.55874 -3 -0.795609 -3 0 
C -3 0.795609 -2.683901 1.55874 -2.12132 2.12132 
C -1.55874 2.683901 -0.795609 3 0 3 
z
" id="me2ff086179" style="stroke:#0000ff;"/>
    </defs>
    <g clip-path="url(#pf44b87e420)">
     <use style="fill:#0000ff;stroke:#0000ff;" x="79.676509" xlink:href="#me2ff086179" y="285.558296"/>
     <use style="fill:#0000ff;stroke:#0000ff;" x="82.273745" xlink:href="#me2ff086179" y="276.766371"/>
     <use style="fill:#0000ff;stroke:#0000ff;" x="87.468218" xlink:href="#me2ff086179" y="278.007584"/>
     <use style="fill:#0000ff;stroke:#0000ff;" x="90.714764" xlink:href="#me2ff086179" y="274.318423"/>
     <use style="fill:#0000ff;stroke:#0000ff;" x="92.662691" xlink:href="#me2ff086179" y="272.870341"/>
     <use style="fill:#0000ff;stroke:#0000ff;" x="95.909236" xlink:href="#me2ff086179" y="271.663607"/>
     <use style="fill:#0000ff;stroke:#0000ff;" x="97.857164" xlink:href="#me2ff086179" y="260.182387"/>
     <use style="fill:#0000ff;stroke:#0000ff;" x="99.805091" xlink:href="#me2ff086179" y="259.492824"/>
     <use style="fill:#0000ff;stroke:#0000ff;" x="102.402327" xlink:href="#me2ff086179" y="267.353839"/>
     <use style="fill:#0000ff;stroke:#0000ff;" x="106.947491" xlink:href="#me2ff086179" y="267.905489"/>
     <use style="fill:#0000ff;stroke:#0000ff;" x="114.089891" xlink:href="#me2ff086179" y="247.046216"/>
     <use style="fill:#0000ff;stroke:#0000ff;" x="119.933673" xlink:href="#me2ff086179" y="244.494834"/>
     <use style="fill:#0000ff;stroke:#0000ff;" x="125.128145" xlink:href="#me2ff086179" y="236.22008"/>
     <use style="fill:#0000ff;stroke:#0000ff;" x="126.426764" xlink:href="#me2ff086179" y="234.840955"/>
     <use style="fill:#0000ff;stroke:#0000ff;" x="130.322618" xlink:href="#me2ff086179" y="246.529044"/>
     <use style="fill:#0000ff;stroke:#0000ff;" x="134.867782" xlink:href="#me2ff086179" y="243.012274"/>
     <use style="fill:#0000ff;stroke:#0000ff;" x="138.114327" xlink:href="#me2ff086179" y="246.942781"/>
     <use style="fill:#0000ff;stroke:#0000ff;" x="140.062255" xlink:href="#me2ff086179" y="246.287697"/>
     <use style="fill:#0000ff;stroke:#0000ff;" x="144.607418" xlink:href="#me2ff086179" y="237.840553"/>
     <use style="fill:#0000ff;stroke:#0000ff;" x="148.503273" xlink:href="#me2ff086179" y="254.631406"/>
     <use style="fill:#0000ff;stroke:#0000ff;" x="150.4512" xlink:href="#me2ff086179" y="253.148846"/>
     <use style="fill:#0000ff;stroke:#0000ff;" x="153.048436" xlink:href="#me2ff086179" y="251.804199"/>
     <use style="fill:#0000ff;stroke:#0000ff;" x="157.5936" xlink:href="#me2ff086179" y="239.150722"/>
     <use style="fill:#0000ff;stroke:#0000ff;" x="163.437382" xlink:href="#me2ff086179" y="235.220214"/>
     <use style="fill:#0000ff;stroke:#0000ff;" x="166.034618" xlink:href="#me2ff086179" y="234.461695"/>
     <use style="fill:#0000ff;stroke:#0000ff;" x="170.579782" xlink:href="#me2ff086179" y="229.01415"/>
     <use style="fill:#0000ff;stroke:#0000ff;" x="176.423564" xlink:href="#me2ff086179" y="234.151392"/>
     <use style="fill:#0000ff;stroke:#0000ff;" x="179.0208" xlink:href="#me2ff086179" y="232.393007"/>
     <use style="fill:#0000ff;stroke:#0000ff;" x="183.565964" xlink:href="#me2ff086179" y="228.255631"/>
     <use style="fill:#0000ff;stroke:#0000ff;" x="186.1632" xlink:href="#me2ff086179" y="233.151526"/>
     <use style="fill:#0000ff;stroke:#0000ff;" x="188.111127" xlink:href="#me2ff086179" y="233.910045"/>
     <use style="fill:#0000ff;stroke:#0000ff;" x="193.3056" xlink:href="#me2ff086179" y="202.948677"/>
     <use style="fill:#0000ff;stroke:#0000ff;" x="197.201455" xlink:href="#me2ff086179" y="202.465983"/>
     <use style="fill:#0000ff;stroke:#0000ff;" x="199.149382" xlink:href="#me2ff086179" y="198.845779"/>
     <use style="fill:#0000ff;stroke:#0000ff;" x="205.642473" xlink:href="#me2ff086179" y="181.503275"/>
     <use style="fill:#0000ff;stroke:#0000ff;" x="210.187636" xlink:href="#me2ff086179" y="187.502471"/>
     <use style="fill:#0000ff;stroke:#0000ff;" x="211.486255" xlink:href="#me2ff086179" y="189.433247"/>
     <use style="fill:#0000ff;stroke:#0000ff;" x="217.330036" xlink:href="#me2ff086179" y="183.054791"/>
     <use style="fill:#0000ff;stroke:#0000ff;" x="219.277964" xlink:href="#me2ff086179" y="182.951357"/>
     <use style="fill:#0000ff;stroke:#0000ff;" x="223.173818" xlink:href="#me2ff086179" y="172.33209"/>
     <use style="fill:#0000ff;stroke:#0000ff;" x="227.718982" xlink:href="#me2ff086179" y="179.19324"/>
     <use style="fill:#0000ff;stroke:#0000ff;" x="230.316218" xlink:href="#me2ff086179" y="174.883473"/>
     <use style="fill:#0000ff;stroke:#0000ff;" x="232.913455" xlink:href="#me2ff086179" y="175.159298"/>
     <use style="fill:#0000ff;stroke:#0000ff;" x="242.003782" xlink:href="#me2ff086179" y="160.816392"/>
     <use style="fill:#0000ff;stroke:#0000ff;" x="246.548945" xlink:href="#me2ff086179" y="141.853416"/>
     <use style="fill:#0000ff;stroke:#0000ff;" x="248.496873" xlink:href="#me2ff086179" y="142.474023"/>
     <use style="fill:#0000ff;stroke:#0000ff;" x="253.691345" xlink:href="#me2ff086179" y="118.925454"/>
     <use style="fill:#0000ff;stroke:#0000ff;" x="255.639273" xlink:href="#me2ff086179" y="126.441688"/>
     <use style="fill:#0000ff;stroke:#0000ff;" x="259.535127" xlink:href="#me2ff086179" y="121.959531"/>
     <use style="fill:#0000ff;stroke:#0000ff;" x="263.430982" xlink:href="#me2ff086179" y="133.440751"/>
     <use style="fill:#0000ff;stroke:#0000ff;" x="266.677527" xlink:href="#me2ff086179" y="132.544319"/>
     <use style="fill:#0000ff;stroke:#0000ff;" x="267.976145" xlink:href="#me2ff086179" y="134.19927"/>
     <use style="fill:#0000ff;stroke:#0000ff;" x="270.573382" xlink:href="#me2ff086179" y="133.509707"/>
     <use style="fill:#0000ff;stroke:#0000ff;" x="273.819927" xlink:href="#me2ff086179" y="138.060821"/>
     <use style="fill:#0000ff;stroke:#0000ff;" x="280.313018" xlink:href="#me2ff086179" y="125.062563"/>
     <use style="fill:#0000ff;stroke:#0000ff;" x="284.858182" xlink:href="#me2ff086179" y="119.718452"/>
     <use style="fill:#0000ff;stroke:#0000ff;" x="286.806109" xlink:href="#me2ff086179" y="115.236294"/>
     <use style="fill:#0000ff;stroke:#0000ff;" x="289.403345" xlink:href="#me2ff086179" y="113.374474"/>
     <use style="fill:#0000ff;stroke:#0000ff;" x="292.649891" xlink:href="#me2ff086179" y="118.959933"/>
     <use style="fill:#0000ff;stroke:#0000ff;" x="297.195055" xlink:href="#me2ff086179" y="125.786604"/>
     <use style="fill:#0000ff;stroke:#0000ff;" x="304.337455" xlink:href="#me2ff086179" y="94.721801"/>
     <use style="fill:#0000ff;stroke:#0000ff;" x="309.531927" xlink:href="#me2ff086179" y="77.448254"/>
     <use style="fill:#0000ff;stroke:#0000ff;" x="310.830545" xlink:href="#me2ff086179" y="76.069129"/>
     <use style="fill:#0000ff;stroke:#0000ff;" x="321.219491" xlink:href="#me2ff086179" y="113.029693"/>
     <use style="fill:#0000ff;stroke:#0000ff;" x="325.115345" xlink:href="#me2ff086179" y="119.37367"/>
     <use style="fill:#0000ff;stroke:#0000ff;" x="327.712582" xlink:href="#me2ff086179" y="118.27037"/>
     <use style="fill:#0000ff;stroke:#0000ff;" x="334.854982" xlink:href="#me2ff086179" y="123.44209"/>
     <use style="fill:#0000ff;stroke:#0000ff;" x="336.802909" xlink:href="#me2ff086179" y="124.75226"/>
     <use style="fill:#0000ff;stroke:#0000ff;" x="340.698764" xlink:href="#me2ff086179" y="120.063233"/>
     <use style="fill:#0000ff;stroke:#0000ff;" x="343.945309" xlink:href="#me2ff086179" y="112.822824"/>
     <use style="fill:#0000ff;stroke:#0000ff;" x="350.4384" xlink:href="#me2ff086179" y="110.133529"/>
     <use style="fill:#0000ff;stroke:#0000ff;" x="353.035636" xlink:href="#me2ff086179" y="106.271978"/>
     <use style="fill:#0000ff;stroke:#0000ff;" x="354.983564" xlink:href="#me2ff086179" y="104.203289"/>
     <use style="fill:#0000ff;stroke:#0000ff;" x="359.528727" xlink:href="#me2ff086179" y="91.584291"/>
     <use style="fill:#0000ff;stroke:#0000ff;" x="363.424582" xlink:href="#me2ff086179" y="77.724079"/>
     <use style="fill:#0000ff;stroke:#0000ff;" x="369.268364" xlink:href="#me2ff086179" y="83.930144"/>
     <use style="fill:#0000ff;stroke:#0000ff;" x="372.514909" xlink:href="#me2ff086179" y="83.033713"/>
     <use style="fill:#0000ff;stroke:#0000ff;" x="375.112145" xlink:href="#me2ff086179" y="90.136209"/>
     <use style="fill:#0000ff;stroke:#0000ff;" x="377.709382" xlink:href="#me2ff086179" y="91.653247"/>
     <use style="fill:#0000ff;stroke:#0000ff;" x="379.657309" xlink:href="#me2ff086179" y="83.44745"/>
     <use style="fill:#0000ff;stroke:#0000ff;" x="383.553164" xlink:href="#me2ff086179" y="83.102669"/>
     <use style="fill:#0000ff;stroke:#0000ff;" x="388.098327" xlink:href="#me2ff086179" y="96.273318"/>
     <use style="fill:#0000ff;stroke:#0000ff;" x="389.396945" xlink:href="#me2ff086179" y="97.100793"/>
     <use style="fill:#0000ff;stroke:#0000ff;" x="392.643491" xlink:href="#me2ff086179" y="100.341738"/>
     <use style="fill:#0000ff;stroke:#0000ff;" x="393.942109" xlink:href="#me2ff086179" y="115.029425"/>
     <use style="fill:#0000ff;stroke:#0000ff;" x="397.188655" xlink:href="#me2ff086179" y="114.92599"/>
    </g>
   </g>
   <g id="line2d_19">
    <path clip-path="url(#pf44b87e420)" d="M 73.832727 281.212458 
L 397.837964 66.827184 
" style="fill:none;stroke:#0000ff;stroke-dasharray:5.55,2.4;stroke-dashoffset:0;stroke-width:1.5;"/>
   </g>
   <g id="line2d_20">
    <path clip-path="url(#pf44b87e420)" d="M 84.870982 284.140077 
L 154.996364 255.717376 
" style="fill:none;stroke:#008000;stroke-dasharray:5.55,2.4;stroke-dashoffset:0;stroke-width:1.5;"/>
   </g>
   <g id="line2d_21">
    <path clip-path="url(#pf44b87e420)" d="M 116.687127 252.864295 
L 398.487273 283.805184 
" style="fill:none;stroke:#008000;stroke-dasharray:5.55,2.4;stroke-dashoffset:0;stroke-width:1.5;"/>
   </g>
   <g id="line2d_22">
    <path clip-path="url(#pf44b87e420)" d="M 77.079273 295.486783 
L 190.059055 235.744451 
" style="fill:none;stroke:#008000;stroke-dasharray:5.55,2.4;stroke-dashoffset:0;stroke-width:1.5;"/>
   </g>
   <g id="line2d_23">
    <path clip-path="url(#pf44b87e420)" d="M 158.892218 242.46766 
L 398.487273 244.544792 
" style="fill:none;stroke:#008000;stroke-dasharray:5.55,2.4;stroke-dashoffset:0;stroke-width:1.5;"/>
   </g>
   <g id="line2d_24">
    <path clip-path="url(#pf44b87e420)" d="M 189.409745 236.118928 
L 298.493673 128.922517 
" style="fill:none;stroke:#008000;stroke-dasharray:5.55,2.4;stroke-dashoffset:0;stroke-width:1.5;"/>
   </g>
   <g id="line2d_25">
    <path clip-path="url(#pf44b87e420)" d="M 189.409745 236.082581 
L 275.767855 138.340149 
" style="fill:none;stroke:#008000;stroke-dasharray:5.55,2.4;stroke-dashoffset:0;stroke-width:1.5;"/>
   </g>
   <g id="line2d_26">
    <path clip-path="url(#pf44b87e420)" d="M 346.542545 137.096022 
L 389.396945 99.71863 
" style="fill:none;stroke:#008000;stroke-dasharray:5.55,2.4;stroke-dashoffset:0;stroke-width:1.5;"/>
   </g>
   <g id="line2d_27">
    <path clip-path="url(#pf44b87e420)" d="M 330.309818 142.921645 
L 393.942109 120.268113 
" style="fill:none;stroke:#008000;stroke-dasharray:5.55,2.4;stroke-dashoffset:0;stroke-width:1.5;"/>
   </g>
   <g id="line2d_28">
    <path clip-path="url(#pf44b87e420)" d="M 82.273745 276.768581 
L 317.323636 53.953967 
" style="fill:none;stroke:#ff0000;stroke-dasharray:5.55,2.4;stroke-dashoffset:0;stroke-width:1.5;"/>
   </g>
   <g id="line2d_29">
    <path clip-path="url(#pf44b87e420)" d="M 87.468218 277.962572 
L 290.052655 53.568 
" style="fill:none;stroke:#ff0000;stroke-dasharray:5.55,2.4;stroke-dashoffset:0;stroke-width:1.5;"/>
   </g>
   <g id="line2d_30">
    <path clip-path="url(#pf44b87e420)" d="M 134.867782 243.014348 
L 169.930473 233.418278 
" style="fill:none;stroke:#ff0000;stroke-dasharray:5.55,2.4;stroke-dashoffset:0;stroke-width:1.5;"/>
   </g>
   <g id="line2d_31">
    <path clip-path="url(#pf44b87e420)" d="M 99.805091 259.413553 
L 244.601018 152.799176 
" style="fill:none;stroke:#ff0000;stroke-dasharray:5.55,2.4;stroke-dashoffset:0;stroke-width:1.5;"/>
   </g>
   <g id="line2d_32">
    <path clip-path="url(#pf44b87e420)" d="M 255.639273 126.444023 
L 335.504291 53.688792 
" style="fill:none;stroke:#ff0000;stroke-dasharray:5.55,2.4;stroke-dashoffset:0;stroke-width:1.5;"/>
   </g>
   <g id="line2d_33">
    <path clip-path="url(#pf44b87e420)" d="M 255.639273 126.444023 
L 335.504291 53.688792 
" style="fill:none;stroke:#ff0000;stroke-dasharray:5.55,2.4;stroke-dashoffset:0;stroke-width:1.5;"/>
   </g>
   <g id="line2d_34">
    <path clip-path="url(#pf44b87e420)" d="M 309.531927 77.459313 
L 380.306618 83.601318 
" style="fill:none;stroke:#ff0000;stroke-dasharray:5.55,2.4;stroke-dashoffset:0;stroke-width:1.5;"/>
   </g>
   <g id="line2d_35">
    <path clip-path="url(#pf44b87e420)" d="M 363.424582 77.724079 
L 375.761455 90.825772 
" style="fill:none;stroke:#ff0000;stroke-dasharray:5.55,2.4;stroke-dashoffset:0;stroke-width:1.5;"/>
   </g>
   <g id="patch_3">
    <path d="M 57.6 307.584 
L 57.6 41.472 
" style="fill:none;stroke:#000000;stroke-linecap:square;stroke-linejoin:miter;stroke-width:0.8;"/>
   </g>
   <g id="patch_4">
    <path d="M 414.72 307.584 
L 414.72 41.472 
" style="fill:none;stroke:#000000;stroke-linecap:square;stroke-linejoin:miter;stroke-width:0.8;"/>
   </g>
   <g id="patch_5">
    <path d="M 57.6 307.584 
L 414.72 307.584 
" style="fill:none;stroke:#000000;stroke-linecap:square;stroke-linejoin:miter;stroke-width:0.8;"/>
   </g>
   <g id="patch_6">
    <path d="M 57.6 41.472 
L 414.72 41.472 
" style="fill:none;stroke:#000000;stroke-linecap:square;stroke-linejoin:miter;stroke-width:0.8;"/>
   </g>
   <g id="text_17">
    <!-- Prices with Support/Resistance Trend Lines -->
    <defs>
     <path d="M 44.28125 53.078125 
L 44.28125 44.578125 
Q 40.484375 46.53125 36.375 47.5 
Q 32.28125 48.484375 27.875 48.484375 
Q 21.1875 48.484375 17.84375 46.4375 
Q 14.5 44.390625 14.5 40.28125 
Q 14.5 37.15625 16.890625 35.375 
Q 19.28125 33.59375 26.515625 31.984375 
L 29.59375 31.296875 
Q 39.15625 29.25 43.1875 25.515625 
Q 47.21875 21.78125 47.21875 15.09375 
Q 47.21875 7.46875 41.1875 3.015625 
Q 35.15625 -1.421875 24.609375 -1.421875 
Q 20.21875 -1.421875 15.453125 -0.5625 
Q 10.6875 0.296875 5.421875 2 
L 5.421875 11.28125 
Q 10.40625 8.6875 15.234375 7.390625 
Q 20.0625 6.109375 24.8125 6.109375 
Q 31.15625 6.109375 34.5625 8.28125 
Q 37.984375 10.453125 37.984375 14.40625 
Q 37.984375 18.0625 35.515625 20.015625 
Q 33.0625 21.96875 24.703125 23.78125 
L 21.578125 24.515625 
Q 13.234375 26.265625 9.515625 29.90625 
Q 5.8125 33.546875 5.8125 39.890625 
Q 5.8125 47.609375 11.28125 51.796875 
Q 16.75 56 26.8125 56 
Q 31.78125 56 36.171875 55.265625 
Q 40.578125 54.546875 44.28125 53.078125 
z
" id="DejaVuSans-115"/>
     <path id="DejaVuSans-32"/>
     <path d="M 4.203125 54.6875 
L 13.1875 54.6875 
L 24.421875 12.015625 
L 35.59375 54.6875 
L 46.1875 54.6875 
L 57.421875 12.015625 
L 68.609375 54.6875 
L 77.59375 54.6875 
L 63.28125 0 
L 52.6875 0 
L 40.921875 44.828125 
L 29.109375 0 
L 18.5 0 
z
" id="DejaVuSans-119"/>
     <path d="M 54.890625 33.015625 
L 54.890625 0 
L 45.90625 0 
L 45.90625 32.71875 
Q 45.90625 40.484375 42.875 44.328125 
Q 39.84375 48.1875 33.796875 48.1875 
Q 26.515625 48.1875 22.3125 43.546875 
Q 18.109375 38.921875 18.109375 30.90625 
L 18.109375 0 
L 9.078125 0 
L 9.078125 75.984375 
L 18.109375 75.984375 
L 18.109375 46.1875 
Q 21.34375 51.125 25.703125 53.5625 
Q 30.078125 56 35.796875 56 
Q 45.21875 56 50.046875 50.171875 
Q 54.890625 44.34375 54.890625 33.015625 
z
" id="DejaVuSans-104"/>
     <path d="M 53.515625 70.515625 
L 53.515625 60.890625 
Q 47.90625 63.578125 42.921875 64.890625 
Q 37.9375 66.21875 33.296875 66.21875 
Q 25.25 66.21875 20.875 63.09375 
Q 16.5 59.96875 16.5 54.203125 
Q 16.5 49.359375 19.40625 46.890625 
Q 22.3125 44.4375 30.421875 42.921875 
L 36.375 41.703125 
Q 47.40625 39.59375 52.65625 34.296875 
Q 57.90625 29 57.90625 20.125 
Q 57.90625 9.515625 50.796875 4.046875 
Q 43.703125 -1.421875 29.984375 -1.421875 
Q 24.8125 -1.421875 18.96875 -0.25 
Q 13.140625 0.921875 6.890625 3.21875 
L 6.890625 13.375 
Q 12.890625 10.015625 18.65625 8.296875 
Q 24.421875 6.59375 29.984375 6.59375 
Q 38.421875 6.59375 43.015625 9.90625 
Q 47.609375 13.234375 47.609375 19.390625 
Q 47.609375 24.75 44.3125 27.78125 
Q 41.015625 30.8125 33.5 32.328125 
L 27.484375 33.5 
Q 16.453125 35.6875 11.515625 40.375 
Q 6.59375 45.0625 6.59375 53.421875 
Q 6.59375 63.09375 13.40625 68.65625 
Q 20.21875 74.21875 32.171875 74.21875 
Q 37.3125 74.21875 42.625 73.28125 
Q 47.953125 72.359375 53.515625 70.515625 
z
" id="DejaVuSans-83"/>
     <path d="M 8.5 21.578125 
L 8.5 54.6875 
L 17.484375 54.6875 
L 17.484375 21.921875 
Q 17.484375 14.15625 20.5 10.265625 
Q 23.53125 6.390625 29.59375 6.390625 
Q 36.859375 6.390625 41.078125 11.03125 
Q 45.3125 15.671875 45.3125 23.6875 
L 45.3125 54.6875 
L 54.296875 54.6875 
L 54.296875 0 
L 45.3125 0 
L 45.3125 8.40625 
Q 42.046875 3.421875 37.71875 1 
Q 33.40625 -1.421875 27.6875 -1.421875 
Q 18.265625 -1.421875 13.375 4.4375 
Q 8.5 10.296875 8.5 21.578125 
z
M 31.109375 56 
z
" id="DejaVuSans-117"/>
     <path d="M 18.109375 8.203125 
L 18.109375 -20.796875 
L 9.078125 -20.796875 
L 9.078125 54.6875 
L 18.109375 54.6875 
L 18.109375 46.390625 
Q 20.953125 51.265625 25.265625 53.625 
Q 29.59375 56 35.59375 56 
Q 45.5625 56 51.78125 48.09375 
Q 58.015625 40.1875 58.015625 27.296875 
Q 58.015625 14.40625 51.78125 6.484375 
Q 45.5625 -1.421875 35.59375 -1.421875 
Q 29.59375 -1.421875 25.265625 0.953125 
Q 20.953125 3.328125 18.109375 8.203125 
z
M 48.6875 27.296875 
Q 48.6875 37.203125 44.609375 42.84375 
Q 40.53125 48.484375 33.40625 48.484375 
Q 26.265625 48.484375 22.1875 42.84375 
Q 18.109375 37.203125 18.109375 27.296875 
Q 18.109375 17.390625 22.1875 11.75 
Q 26.265625 6.109375 33.40625 6.109375 
Q 40.53125 6.109375 44.609375 11.75 
Q 48.6875 17.390625 48.6875 27.296875 
z
" id="DejaVuSans-112"/>
     <path d="M 30.609375 48.390625 
Q 23.390625 48.390625 19.1875 42.75 
Q 14.984375 37.109375 14.984375 27.296875 
Q 14.984375 17.484375 19.15625 11.84375 
Q 23.34375 6.203125 30.609375 6.203125 
Q 37.796875 6.203125 41.984375 11.859375 
Q 46.1875 17.53125 46.1875 27.296875 
Q 46.1875 37.015625 41.984375 42.703125 
Q 37.796875 48.390625 30.609375 48.390625 
z
M 30.609375 56 
Q 42.328125 56 49.015625 48.375 
Q 55.71875 40.765625 55.71875 27.296875 
Q 55.71875 13.875 49.015625 6.21875 
Q 42.328125 -1.421875 30.609375 -1.421875 
Q 18.84375 -1.421875 12.171875 6.21875 
Q 5.515625 13.875 5.515625 27.296875 
Q 5.515625 40.765625 12.171875 48.375 
Q 18.84375 56 30.609375 56 
z
" id="DejaVuSans-111"/>
     <path d="M 25.390625 72.90625 
L 33.6875 72.90625 
L 8.296875 -9.28125 
L 0 -9.28125 
z
" id="DejaVuSans-47"/>
     <path d="M 44.390625 34.1875 
Q 47.5625 33.109375 50.5625 29.59375 
Q 53.5625 26.078125 56.59375 19.921875 
L 66.609375 0 
L 56 0 
L 46.6875 18.703125 
Q 43.0625 26.03125 39.671875 28.421875 
Q 36.28125 30.8125 30.421875 30.8125 
L 19.671875 30.8125 
L 19.671875 0 
L 9.8125 0 
L 9.8125 72.90625 
L 32.078125 72.90625 
Q 44.578125 72.90625 50.734375 67.671875 
Q 56.890625 62.453125 56.890625 51.90625 
Q 56.890625 45.015625 53.6875 40.46875 
Q 50.484375 35.9375 44.390625 34.1875 
z
M 19.671875 64.796875 
L 19.671875 38.921875 
L 32.078125 38.921875 
Q 39.203125 38.921875 42.84375 42.21875 
Q 46.484375 45.515625 46.484375 51.90625 
Q 46.484375 58.296875 42.84375 61.546875 
Q 39.203125 64.796875 32.078125 64.796875 
z
" id="DejaVuSans-82"/>
     <path d="M 54.890625 33.015625 
L 54.890625 0 
L 45.90625 0 
L 45.90625 32.71875 
Q 45.90625 40.484375 42.875 44.328125 
Q 39.84375 48.1875 33.796875 48.1875 
Q 26.515625 48.1875 22.3125 43.546875 
Q 18.109375 38.921875 18.109375 30.90625 
L 18.109375 0 
L 9.078125 0 
L 9.078125 54.6875 
L 18.109375 54.6875 
L 18.109375 46.1875 
Q 21.34375 51.125 25.703125 53.5625 
Q 30.078125 56 35.796875 56 
Q 45.21875 56 50.046875 50.171875 
Q 54.890625 44.34375 54.890625 33.015625 
z
" id="DejaVuSans-110"/>
     <path d="M -0.296875 72.90625 
L 61.375 72.90625 
L 61.375 64.59375 
L 35.5 64.59375 
L 35.5 0 
L 25.59375 0 
L 25.59375 64.59375 
L -0.296875 64.59375 
z
" id="DejaVuSans-84"/>
     <path d="M 45.40625 46.390625 
L 45.40625 75.984375 
L 54.390625 75.984375 
L 54.390625 0 
L 45.40625 0 
L 45.40625 8.203125 
Q 42.578125 3.328125 38.25 0.953125 
Q 33.9375 -1.421875 27.875 -1.421875 
Q 17.96875 -1.421875 11.734375 6.484375 
Q 5.515625 14.40625 5.515625 27.296875 
Q 5.515625 40.1875 11.734375 48.09375 
Q 17.96875 56 27.875 56 
Q 33.9375 56 38.25 53.625 
Q 42.578125 51.265625 45.40625 46.390625 
z
M 14.796875 27.296875 
Q 14.796875 17.390625 18.875 11.75 
Q 22.953125 6.109375 30.078125 6.109375 
Q 37.203125 6.109375 41.296875 11.75 
Q 45.40625 17.390625 45.40625 27.296875 
Q 45.40625 37.203125 41.296875 42.84375 
Q 37.203125 48.484375 30.078125 48.484375 
Q 22.953125 48.484375 18.875 42.84375 
Q 14.796875 37.203125 14.796875 27.296875 
z
" id="DejaVuSans-100"/>
     <path d="M 9.8125 72.90625 
L 19.671875 72.90625 
L 19.671875 8.296875 
L 55.171875 8.296875 
L 55.171875 0 
L 9.8125 0 
z
" id="DejaVuSans-76"/>
    </defs>
    <g transform="translate(106.54875 35.472)scale(0.12 -0.12)">
     <use xlink:href="#DejaVuSans-80"/>
     <use x="60.287109" xlink:href="#DejaVuSans-114"/>
     <use x="101.400391" xlink:href="#DejaVuSans-105"/>
     <use x="129.183594" xlink:href="#DejaVuSans-99"/>
     <use x="184.164062" xlink:href="#DejaVuSans-101"/>
     <use x="245.6875" xlink:href="#DejaVuSans-115"/>
     <use x="297.787109" xlink:href="#DejaVuSans-32"/>
     <use x="329.574219" xlink:href="#DejaVuSans-119"/>
     <use x="411.361328" xlink:href="#DejaVuSans-105"/>
     <use x="439.144531" xlink:href="#DejaVuSans-116"/>
     <use x="478.353516" xlink:href="#DejaVuSans-104"/>
     <use x="541.732422" xlink:href="#DejaVuSans-32"/>
     <use x="573.519531" xlink:href="#DejaVuSans-83"/>
     <use x="636.996094" xlink:href="#DejaVuSans-117"/>
     <use x="700.375" xlink:href="#DejaVuSans-112"/>
     <use x="763.851562" xlink:href="#DejaVuSans-112"/>
     <use x="827.328125" xlink:href="#DejaVuSans-111"/>
     <use x="888.509766" xlink:href="#DejaVuSans-114"/>
     <use x="929.623047" xlink:href="#DejaVuSans-116"/>
     <use x="968.832031" xlink:href="#DejaVuSans-47"/>
     <use x="1002.523438" xlink:href="#DejaVuSans-82"/>
     <use x="1071.943359" xlink:href="#DejaVuSans-101"/>
     <use x="1133.466797" xlink:href="#DejaVuSans-115"/>
     <use x="1185.566406" xlink:href="#DejaVuSans-105"/>
     <use x="1213.349609" xlink:href="#DejaVuSans-115"/>
     <use x="1265.449219" xlink:href="#DejaVuSans-116"/>
     <use x="1304.658203" xlink:href="#DejaVuSans-97"/>
     <use x="1365.9375" xlink:href="#DejaVuSans-110"/>
     <use x="1429.316406" xlink:href="#DejaVuSans-99"/>
     <use x="1484.296875" xlink:href="#DejaVuSans-101"/>
     <use x="1545.820312" xlink:href="#DejaVuSans-32"/>
     <use x="1577.607422" xlink:href="#DejaVuSans-84"/>
     <use x="1638.472656" xlink:href="#DejaVuSans-114"/>
     <use x="1679.554688" xlink:href="#DejaVuSans-101"/>
     <use x="1741.078125" xlink:href="#DejaVuSans-110"/>
     <use x="1804.457031" xlink:href="#DejaVuSans-100"/>
     <use x="1867.933594" xlink:href="#DejaVuSans-32"/>
     <use x="1899.720703" xlink:href="#DejaVuSans-76"/>
     <use x="1955.433594" xlink:href="#DejaVuSans-105"/>
     <use x="1983.216797" xlink:href="#DejaVuSans-110"/>
     <use x="2046.595703" xlink:href="#DejaVuSans-101"/>
     <use x="2108.119141" xlink:href="#DejaVuSans-115"/>
    </g>
   </g>
   <g id="legend_1">
    <g id="patch_7">
     <path d="M 64.6 122.862625 
L 176.385938 122.862625 
Q 178.385938 122.862625 178.385938 120.862625 
L 178.385938 48.472 
Q 178.385938 46.472 176.385938 46.472 
L 64.6 46.472 
Q 62.6 46.472 62.6 48.472 
L 62.6 120.862625 
Q 62.6 122.862625 64.6 122.862625 
z
" style="fill:#ffffff;opacity:0.8;stroke:#cccccc;stroke-linejoin:miter;"/>
    </g>
    <g id="line2d_36">
     <path d="M 66.6 54.570438 
L 86.6 54.570438 
" style="fill:none;stroke:#000000;stroke-dasharray:5.55,2.4;stroke-dashoffset:0;stroke-width:1.5;"/>
    </g>
    <g id="line2d_37"/>
    <g id="text_18">
     <!-- Close Price -->
     <defs>
      <path d="M 64.40625 67.28125 
L 64.40625 56.890625 
Q 59.421875 61.53125 53.78125 63.8125 
Q 48.140625 66.109375 41.796875 66.109375 
Q 29.296875 66.109375 22.65625 58.46875 
Q 16.015625 50.828125 16.015625 36.375 
Q 16.015625 21.96875 22.65625 14.328125 
Q 29.296875 6.6875 41.796875 6.6875 
Q 48.140625 6.6875 53.78125 8.984375 
Q 59.421875 11.28125 64.40625 15.921875 
L 64.40625 5.609375 
Q 59.234375 2.09375 53.4375 0.328125 
Q 47.65625 -1.421875 41.21875 -1.421875 
Q 24.65625 -1.421875 15.125 8.703125 
Q 5.609375 18.84375 5.609375 36.375 
Q 5.609375 53.953125 15.125 64.078125 
Q 24.65625 74.21875 41.21875 74.21875 
Q 47.75 74.21875 53.53125 72.484375 
Q 59.328125 70.75 64.40625 67.28125 
z
" id="DejaVuSans-67"/>
      <path d="M 9.421875 75.984375 
L 18.40625 75.984375 
L 18.40625 0 
L 9.421875 0 
z
" id="DejaVuSans-108"/>
     </defs>
     <g transform="translate(94.6 58.070438)scale(0.1 -0.1)">
      <use xlink:href="#DejaVuSans-67"/>
      <use x="69.824219" xlink:href="#DejaVuSans-108"/>
      <use x="97.607422" xlink:href="#DejaVuSans-111"/>
      <use x="158.789062" xlink:href="#DejaVuSans-115"/>
      <use x="210.888672" xlink:href="#DejaVuSans-101"/>
      <use x="272.412109" xlink:href="#DejaVuSans-32"/>
      <use x="304.199219" xlink:href="#DejaVuSans-80"/>
      <use x="364.486328" xlink:href="#DejaVuSans-114"/>
      <use x="405.599609" xlink:href="#DejaVuSans-105"/>
      <use x="433.382812" xlink:href="#DejaVuSans-99"/>
      <use x="488.363281" xlink:href="#DejaVuSans-101"/>
     </g>
    </g>
    <g id="line2d_38">
     <path d="M 66.6 69.248563 
L 86.6 69.248563 
" style="fill:none;stroke:#bfbf00;stroke-dasharray:5.55,2.4;stroke-dashoffset:0;stroke-width:1.5;"/>
    </g>
    <g id="line2d_39"/>
    <g id="text_19">
     <!-- Avg. Support -->
     <defs>
      <path d="M 34.1875 63.1875 
L 20.796875 26.90625 
L 47.609375 26.90625 
z
M 28.609375 72.90625 
L 39.796875 72.90625 
L 67.578125 0 
L 57.328125 0 
L 50.6875 18.703125 
L 17.828125 18.703125 
L 11.1875 0 
L 0.78125 0 
z
" id="DejaVuSans-65"/>
      <path d="M 2.984375 54.6875 
L 12.5 54.6875 
L 29.59375 8.796875 
L 46.6875 54.6875 
L 56.203125 54.6875 
L 35.6875 0 
L 23.484375 0 
z
" id="DejaVuSans-118"/>
      <path d="M 45.40625 27.984375 
Q 45.40625 37.75 41.375 43.109375 
Q 37.359375 48.484375 30.078125 48.484375 
Q 22.859375 48.484375 18.828125 43.109375 
Q 14.796875 37.75 14.796875 27.984375 
Q 14.796875 18.265625 18.828125 12.890625 
Q 22.859375 7.515625 30.078125 7.515625 
Q 37.359375 7.515625 41.375 12.890625 
Q 45.40625 18.265625 45.40625 27.984375 
z
M 54.390625 6.78125 
Q 54.390625 -7.171875 48.1875 -13.984375 
Q 42 -20.796875 29.203125 -20.796875 
Q 24.46875 -20.796875 20.265625 -20.09375 
Q 16.0625 -19.390625 12.109375 -17.921875 
L 12.109375 -9.1875 
Q 16.0625 -11.328125 19.921875 -12.34375 
Q 23.78125 -13.375 27.78125 -13.375 
Q 36.625 -13.375 41.015625 -8.765625 
Q 45.40625 -4.15625 45.40625 5.171875 
L 45.40625 9.625 
Q 42.625 4.78125 38.28125 2.390625 
Q 33.9375 0 27.875 0 
Q 17.828125 0 11.671875 7.65625 
Q 5.515625 15.328125 5.515625 27.984375 
Q 5.515625 40.671875 11.671875 48.328125 
Q 17.828125 56 27.875 56 
Q 33.9375 56 38.28125 53.609375 
Q 42.625 51.21875 45.40625 46.390625 
L 45.40625 54.6875 
L 54.390625 54.6875 
z
" id="DejaVuSans-103"/>
     </defs>
     <g transform="translate(94.6 72.748563)scale(0.1 -0.1)">
      <use xlink:href="#DejaVuSans-65"/>
      <use x="68.330078" xlink:href="#DejaVuSans-118"/>
      <use x="127.509766" xlink:href="#DejaVuSans-103"/>
      <use x="190.986328" xlink:href="#DejaVuSans-46"/>
      <use x="222.773438" xlink:href="#DejaVuSans-32"/>
      <use x="254.560547" xlink:href="#DejaVuSans-83"/>
      <use x="318.037109" xlink:href="#DejaVuSans-117"/>
      <use x="381.416016" xlink:href="#DejaVuSans-112"/>
      <use x="444.892578" xlink:href="#DejaVuSans-112"/>
      <use x="508.369141" xlink:href="#DejaVuSans-111"/>
      <use x="569.550781" xlink:href="#DejaVuSans-114"/>
      <use x="610.664062" xlink:href="#DejaVuSans-116"/>
     </g>
    </g>
    <g id="line2d_40">
     <path d="M 66.6 83.926688 
L 86.6 83.926688 
" style="fill:none;stroke:#0000ff;stroke-dasharray:5.55,2.4;stroke-dashoffset:0;stroke-width:1.5;"/>
    </g>
    <g id="line2d_41"/>
    <g id="text_20">
     <!-- Avg. Resistance -->
     <g transform="translate(94.6 87.426688)scale(0.1 -0.1)">
      <use xlink:href="#DejaVuSans-65"/>
      <use x="68.330078" xlink:href="#DejaVuSans-118"/>
      <use x="127.509766" xlink:href="#DejaVuSans-103"/>
      <use x="190.986328" xlink:href="#DejaVuSans-46"/>
      <use x="222.773438" xlink:href="#DejaVuSans-32"/>
      <use x="254.560547" xlink:href="#DejaVuSans-82"/>
      <use x="323.980469" xlink:href="#DejaVuSans-101"/>
      <use x="385.503906" xlink:href="#DejaVuSans-115"/>
      <use x="437.603516" xlink:href="#DejaVuSans-105"/>
      <use x="465.386719" xlink:href="#DejaVuSans-115"/>
      <use x="517.486328" xlink:href="#DejaVuSans-116"/>
      <use x="556.695312" xlink:href="#DejaVuSans-97"/>
      <use x="617.974609" xlink:href="#DejaVuSans-110"/>
      <use x="681.353516" xlink:href="#DejaVuSans-99"/>
      <use x="736.333984" xlink:href="#DejaVuSans-101"/>
     </g>
    </g>
    <g id="line2d_42">
     <path d="M 66.6 98.604813 
L 86.6 98.604813 
" style="fill:none;stroke:#008000;stroke-dasharray:5.55,2.4;stroke-dashoffset:0;stroke-width:1.5;"/>
    </g>
    <g id="line2d_43"/>
    <g id="text_21">
     <!-- Support -->
     <g transform="translate(94.6 102.104813)scale(0.1 -0.1)">
      <use xlink:href="#DejaVuSans-83"/>
      <use x="63.476562" xlink:href="#DejaVuSans-117"/>
      <use x="126.855469" xlink:href="#DejaVuSans-112"/>
      <use x="190.332031" xlink:href="#DejaVuSans-112"/>
      <use x="253.808594" xlink:href="#DejaVuSans-111"/>
      <use x="314.990234" xlink:href="#DejaVuSans-114"/>
      <use x="356.103516" xlink:href="#DejaVuSans-116"/>
     </g>
    </g>
    <g id="line2d_44">
     <path d="M 66.6 113.282938 
L 86.6 113.282938 
" style="fill:none;stroke:#ff0000;stroke-dasharray:5.55,2.4;stroke-dashoffset:0;stroke-width:1.5;"/>
    </g>
    <g id="line2d_45"/>
    <g id="text_22">
     <!-- Resistance -->
     <g transform="translate(94.6 116.782938)scale(0.1 -0.1)">
      <use xlink:href="#DejaVuSans-82"/>
      <use x="69.419922" xlink:href="#DejaVuSans-101"/>
      <use x="130.943359" xlink:href="#DejaVuSans-115"/>
      <use x="183.042969" xlink:href="#DejaVuSans-105"/>
      <use x="210.826172" xlink:href="#DejaVuSans-115"/>
      <use x="262.925781" xlink:href="#DejaVuSans-116"/>
      <use x="302.134766" xlink:href="#DejaVuSans-97"/>
      <use x="363.414062" xlink:href="#DejaVuSans-110"/>
      <use x="426.792969" xlink:href="#DejaVuSans-99"/>
      <use x="481.773438" xlink:href="#DejaVuSans-101"/>
     </g>
    </g>
   </g>
  </g>
 </g>
 <defs>
  <clipPath id="pf44b87e420">
   <rect height="266.112" width="357.12" x="57.6" y="41.472"/>
  </clipPath>
 </defs>
</svg>
